<svg width="20" height="20" viewBox="0 0 20 20" fill="none" xmlns="http://www.w3.org/2000/svg">
    <path
        d="M0.85 9.99999C0.85 10.6185 1.36552 11.1209 1.97091 11.1209H8.87908V18.029C8.87908 18.6345 9.3815 19.15 9.99999 19.15C10.6163 19.15 11.1318 18.6366 11.1318 18.029V11.1209H18.029C18.6345 11.1209 19.15 10.6185 19.15 9.99999C19.15 9.38367 18.6366 8.86817 18.029 8.86817H11.1318V1.97091C11.1318 1.36335 10.6163 0.85 9.99999 0.85C9.38151 0.85 8.87908 1.36552 8.87908 1.97091V8.86817H1.97091C1.36335 8.86817 0.85 9.38368 0.85 9.99999Z"
        fill="white" stroke="white" stroke-width="0.3" />
</svg>
