<svg xmlns="http://www.w3.org/2000/svg" version="1.1" width="120" height="120">
    <svg width="120" height="120" viewBox="0 0 120 120" fill="none"
        xmlns="http://www.w3.org/2000/svg">
        <g clip-path="url(#clip0_4619_280)">
            <rect width="120" height="120" fill="#161616"></rect>
            <mask id="SvgjsMask1060" style="mask-type:luminance" maskUnits="userSpaceOnUse" x="0"
                y="0" width="120" height="120">
                <path d="M120 0H0V120H120V0Z" fill="white"></path>
            </mask>
            <g mask="url(#mask0_4619_280)">
                <path
                    d="M13.3812 69.26C13.0084 69.26 12.6546 69.3323 12.3198 69.4769C11.9926 69.6139 11.7072 69.8079 11.4637 70.059C11.2202 70.3025 11.0262 70.5879 10.8816 70.9151C10.737 71.2423 10.6647 71.5923 10.6647 71.9651C10.6647 72.338 10.737 72.6918 10.8816 73.0266C11.0262 73.3538 11.2202 73.6392 11.4637 73.8827C11.7072 74.1262 11.9926 74.3202 12.3198 74.4648C12.6546 74.6094 13.0084 74.6817 13.3812 74.6817H17.3419V76.3937H13.3812C12.7725 76.3937 12.198 76.2796 11.6577 76.0513C11.1175 75.8154 10.6457 75.4997 10.2424 75.104C9.84673 74.7007 9.53094 74.2289 9.29506 73.6886C9.06678 73.1484 8.95264 72.5739 8.95264 71.9651C8.95264 71.3564 9.06678 70.7857 9.29506 70.253C9.53094 69.7128 9.84673 69.2448 10.2424 68.8491C10.6457 68.4458 11.1175 68.1301 11.6577 67.9018C12.198 67.6659 12.7725 67.5479 13.3812 67.5479H17.3419V69.26H13.3812ZM27.7666 76.4052H25.929L23.4407 69.8878L20.9525 76.4052H19.1149L22.5048 67.5365H24.3767L27.7666 76.4052ZM38.2578 74.6817V76.4052H35.5413L34.1716 73.4604H31.5692V76.4052H29.8571V71.7369H35.0277C35.2103 71.7369 35.3815 71.7026 35.5413 71.6341C35.7087 71.5656 35.8533 71.4705 35.975 71.3488C36.0968 71.227 36.1919 71.0863 36.2604 70.9265C36.3288 70.7667 36.3631 70.5955 36.3631 70.4128C36.3631 70.0933 36.2528 69.8231 36.0321 69.6025C35.8114 69.3818 35.5413 69.2714 35.2217 69.2714H29.8571V67.5479H35.2217C35.6174 67.5479 35.9864 67.624 36.3288 67.7762C36.6789 67.9284 36.9832 68.1339 37.242 68.3926C37.5007 68.6513 37.7023 68.9557 37.8469 69.3057C37.9991 69.6481 38.0752 70.0172 38.0752 70.4128C38.0752 70.7476 38.0219 71.071 37.9154 71.383C37.8165 71.6874 37.6719 71.9651 37.4817 72.2162C37.299 72.4674 37.0784 72.688 36.8196 72.8783C36.5685 73.0609 36.2908 73.2016 35.9864 73.3006L36.637 74.6817H38.2578ZM53.3143 74.6817V76.4052H50.5978L49.2281 73.4604H46.6257V76.4052H44.9137V71.7369H50.0842C50.2668 71.7369 50.438 71.7026 50.5978 71.6341C50.7652 71.5656 50.9098 71.4705 51.0315 71.3488C51.1533 71.227 51.2484 71.0863 51.3169 70.9265C51.3854 70.7667 51.4196 70.5955 51.4196 70.4128C51.4196 70.0933 51.3093 69.8231 51.0886 69.6025C50.8679 69.3818 50.5978 69.2714 50.2782 69.2714H44.9137V67.5479H50.2782C50.6739 67.5479 51.0429 67.624 51.3854 67.7762C51.7354 67.9284 52.0398 68.1339 52.2985 68.3926C52.5572 68.6513 52.7588 68.9557 52.9034 69.3057C53.0556 69.6481 53.1317 70.0172 53.1317 70.4128C53.1317 70.7476 53.0784 71.071 52.9719 71.383C52.873 71.6874 52.7284 71.9651 52.5382 72.2162C52.3555 72.4674 52.1349 72.688 51.8762 72.8783C51.625 73.0609 51.3473 73.2016 51.0429 73.3006L51.6935 74.6817H53.3143ZM57.4294 74.6702H63.4103V76.3823H55.7173V71.1319H62.7255V72.8554H57.4294V74.6702ZM55.7516 69.2486V67.5365H63.65V69.2486H55.7516ZM65.9886 76.4052V70.6297H67.7007V76.4052H65.9886ZM75.2796 67.5365V76.4052H73.3049L65.9886 67.5365H68.2143L73.5675 74.0082V67.5365H75.2796ZM85.1747 67.5365V69.2486H82.2185V76.4052H80.495V67.5365H85.1747ZM77.5388 69.2486V67.5365H79.7873V69.2486H77.5388ZM87.5993 76.3595C87.4547 76.3595 87.3139 76.3329 87.1769 76.2796C87.0476 76.2187 86.9334 76.1388 86.8345 76.0399C86.7356 75.941 86.6557 75.8269 86.5948 75.6975C86.5416 75.5605 86.5149 75.416 86.5149 75.2638C86.5149 75.1116 86.5416 74.9708 86.5948 74.8415C86.6557 74.7045 86.7356 74.5865 86.8345 74.4876C86.9334 74.3811 87.0476 74.3012 87.1769 74.2479C87.3139 74.187 87.4547 74.1566 87.5993 74.1566C87.9036 74.1566 88.1585 74.2669 88.364 74.4876C88.5771 74.7007 88.6836 74.9594 88.6836 75.2638C88.6836 75.5681 88.5771 75.8269 88.364 76.0399C88.1585 76.253 87.9036 76.3595 87.5993 76.3595ZM99.9471 76.4052H97.4817L94.1032 72.8326H93.0645V76.4052H91.3524V71.1091H93.8064L97.3561 67.5365H99.7759L95.5185 71.8282L99.9471 76.4052ZM91.3524 70.39V67.5365H93.0645V70.39H91.3524ZM110.167 71.1091V76.3937H105.339C104.731 76.3937 104.156 76.2796 103.616 76.0513C103.076 75.8154 102.604 75.4997 102.2 75.104C101.805 74.7007 101.489 74.2289 101.253 73.6886C101.025 73.1484 100.911 72.5739 100.911 71.9651C100.911 71.3564 101.025 70.7857 101.253 70.253C101.489 69.7128 101.805 69.2448 102.2 68.8491C102.604 68.4458 103.076 68.1301 103.616 67.9018C104.156 67.6659 104.731 67.5479 105.339 67.5479H109.3V69.26H105.339C104.966 69.26 104.613 69.3323 104.278 69.4769C103.951 69.6139 103.665 69.8079 103.422 70.059C103.178 70.3025 102.984 70.5879 102.84 70.9151C102.695 71.2423 102.623 71.5923 102.623 71.9651C102.623 72.338 102.695 72.6918 102.84 73.0266C102.984 73.3538 103.178 73.6392 103.422 73.8827C103.665 74.1262 103.951 74.3202 104.278 74.4648C104.613 74.6094 104.966 74.6817 105.339 74.6817H108.444V72.8326H105.533V71.1091H110.167Z"
                    fill="white"></path>
                <mask id="SvgjsMask1059" style="mask-type:luminance" maskUnits="userSpaceOnUse"
                    x="6" y="43" width="108" height="23">
                    <path d="M6 43H114V66H6V43Z" fill="white"></path>
                </mask>
                <g mask="url(#mask1_4619_280)">
                    <path
                        d="M113.617 54.8568L112.952 54.9014C112.878 54.9054 112.805 54.9088 112.731 54.9121L112.288 54.9327C112.14 54.9376 111.993 54.9399 111.845 54.9442C111.55 54.9549 111.254 54.9513 110.961 54.9541C110.887 54.9549 110.813 54.9531 110.74 54.9513L110.298 54.9442L110.188 54.9416L110.078 54.9376C109.784 54.9243 109.491 54.9169 109.198 54.8947C109.052 54.8848 108.905 54.8774 108.759 54.8652L108.322 54.8272C108.249 54.8208 108.176 54.8157 108.103 54.8073L107.886 54.7828L107.45 54.7334L107.016 54.675L106.799 54.6454L106.583 54.61L106.152 54.5399L105.724 54.4594L105.509 54.4191C105.438 54.4058 105.367 54.3888 105.296 54.3737L104.87 54.2817C104.799 54.2677 104.729 54.2488 104.659 54.2315L104.448 54.1797C104.308 54.1451 104.164 54.1129 104.029 54.0734L103.62 53.9608L103.518 53.9327L103.41 53.8998L103.193 53.8341L102.87 53.7352L102.78 53.7038L102.367 53.5626L101.955 53.4219C101.886 53.3995 101.818 53.3735 101.75 53.3469L101.545 53.2687L101.137 53.114L100.933 53.0357C100.864 53.0105 100.797 52.9806 100.729 52.9529L99.9189 52.6171L99.1144 52.259C98.9801 52.2014 98.8466 52.1372 98.7134 52.0747L98.3129 51.8863L98.1127 51.7923L98.0132 51.7456L97.9134 51.6962L97.5139 51.5012L97.1154 51.3062C96.9827 51.2404 96.8502 51.1721 96.7177 51.1055L96.319 50.9047C96.1865 50.8382 96.0538 50.7714 95.9213 50.702L95.1249 50.2914L93.5232 49.4614L92.7158 49.0474L92.3107 48.8399L91.903 48.6352L91.4936 48.4318L91.2894 48.3299L91.0826 48.2302L90.2541 47.8328L89.415 47.4494C89.2764 47.3844 89.1299 47.3235 88.9867 47.261L88.5525 47.075L88.3361 46.9829L88.2273 46.9368L88.1229 46.8947L87.7035 46.7285L87.2834 46.5623L87.2308 46.5417L87.1601 46.5154L87.0519 46.4749L86.8364 46.3961L86.404 46.2373L86.1883 46.1575C86.1163 46.1321 86.0433 46.1071 85.9706 46.0818L85.1009 45.7805L84.2246 45.4966C84.1516 45.4729 84.0788 45.4489 84.0048 45.426L83.785 45.3592L83.3435 45.2259C83.1969 45.1815 83.0494 45.1364 82.9021 45.0936L82.4582 44.9692C82.1624 44.8863 81.867 44.8014 81.5686 44.7265L80.8991 44.5539L80.7873 44.5249L80.6752 44.4979L79.7775 44.2855C77.3765 43.7456 74.9388 43.3582 72.4829 43.1614L72.0225 43.1236L71.9073 43.1145L71.7904 43.1081L71.0913 43.066C70.9363 43.0569 70.7783 43.0462 70.6298 43.0421L69.7272 43.0092L69.658 43.0069L69.6006 43.0061L69.486 43.0033L69.2562 43.0003L68.7975 42.9919C68.4917 42.9847 68.1857 42.987 67.8791 42.987C67.5728 42.9878 67.2662 42.9847 66.9602 42.9934L66.0417 43.0117L65.1226 43.0469L64.8928 43.0561C64.8162 43.0594 64.7397 43.0653 64.6628 43.0691L64.2034 43.0974L63.7447 43.1244C63.6681 43.1287 63.5915 43.1344 63.5149 43.141L63.2852 43.1596C62.9797 43.1853 62.6741 43.2075 62.3675 43.2355L61.4519 43.3319L61.2227 43.3556L60.994 43.3854L60.0799 43.5037C59.9275 43.5251 59.7759 43.5496 59.6235 43.5728L59.1681 43.6444L58.9399 43.6799L58.8263 43.698L58.7128 43.7194L57.8043 43.8866C57.6529 43.9118 57.5028 43.9457 57.3522 43.9778L56.8999 44.0742L56.4489 44.1711L55.9996 44.2812L55.5501 44.3916L55.3262 44.4466C55.2512 44.465 55.1769 44.4871 55.1029 44.5078L54.2118 44.7553L54.1007 44.7874L53.7686 44.8912L53.3273 45.0293L53.1065 45.0994C53.0332 45.1231 52.9592 45.1438 52.886 45.1708L52.4428 45.3271L52.0005 45.4836L51.7797 45.5616L51.5696 45.6442L50.7298 45.9748L50.6621 46.0013L50.6093 46.0242L50.5023 46.0704L50.2897 46.1624L49.8639 46.3477C49.7207 46.4068 49.5824 46.4741 49.4423 46.5391L49.0249 46.7367C48.7439 46.8642 48.4723 47.0074 48.1979 47.1443C48.0613 47.2141 47.923 47.2807 47.7872 47.3523L47.3826 47.5672C46.3021 48.1389 45.2512 48.7464 44.2084 49.3495C43.1657 49.9541 42.1332 50.5539 41.0874 51.1178C40.8268 51.2626 40.5636 51.3959 40.3007 51.534C40.1687 51.6016 40.0388 51.6725 39.9063 51.7372L39.5091 51.9332L39.1114 52.1282C38.9787 52.1915 38.8444 52.2508 38.7102 52.3125L38.3091 52.4961C38.1749 52.5593 38.0416 52.6105 37.9081 52.6679L37.5071 52.8351L37.307 52.9182C37.2378 52.9452 37.1663 52.9707 37.0961 52.9972L36.6727 53.1553L36.4618 53.2333L36.3559 53.273C36.336 53.2802 36.3541 53.2738 36.3426 53.2779L36.3168 53.286L36.2653 53.3031C35.7216 53.4917 35.159 53.6457 34.59 53.7828C33.4503 54.0579 32.2756 54.2529 31.0907 54.4395C30.4985 54.5335 29.9022 54.624 29.3041 54.7219L29.0792 54.7581L28.8538 54.7969C28.7037 54.8224 28.5506 54.8471 28.4041 54.8741L27.5155 55.037C26.337 55.2508 25.15 55.4484 23.9626 55.6544C21.5864 56.0658 19.2014 56.505 16.8573 57.1479C15.6862 57.4703 14.5251 57.8422 13.395 58.3031C12.8302 58.5333 12.2735 58.7859 11.7299 59.0658L11.6278 59.1178L11.5265 59.1721L11.3245 59.2814C11.1903 59.3546 11.0587 59.4329 10.9253 59.5078C10.7943 59.5876 10.6625 59.6648 10.5331 59.7472C10.4047 59.831 10.2745 59.9116 10.1486 59.9998L9.95917 60.1298L9.77295 60.2646C9.64785 60.3536 9.52755 60.4492 9.40564 60.5437C9.34483 60.5896 9.28615 60.6393 9.22693 60.6885L9.04986 60.8356L8.87784 60.9888C8.81997 61.04 8.76236 61.09 8.70717 61.1443L8.54 61.3031L8.49901 61.3426L8.37791 61.467C8.32512 61.5221 8.26994 61.5764 8.21794 61.6332L8.0631 61.8043C8.03763 61.8331 8.01139 61.8611 7.98673 61.8899L7.91252 61.9786L7.76516 62.1558L7.62423 62.3385C7.57734 62.3992 7.52966 62.4601 7.4868 62.5236L7.35417 62.712C7.33115 62.7433 7.3105 62.7755 7.28987 62.8083L7.22718 62.9052L7.16556 63.0023C7.14412 63.0344 7.12349 63.0666 7.10448 63.1005L6.98846 63.2995C6.96945 63.3324 6.94882 63.3653 6.93167 63.3992L6.7709 63.7051L6.67312 63.9134C6.64098 63.9824 6.60721 64.0518 6.57908 64.1231L6.49094 64.3355L6.4695 64.389L6.44994 64.4425L6.4103 64.5509C6.38485 64.6228 6.35751 64.6941 6.33367 64.7668L6.26534 64.9865L6.23078 65.0956C6.22008 65.1321 6.21097 65.1698 6.20104 65.2067L6.14264 65.4298L6.12791 65.4856C6.12283 65.504 6.11961 65.5228 6.11558 65.5409L6.04377 65.8718C6.02984 65.9368 6.07004 66.001 6.13434 66.0181C6.20104 66.0355 6.26856 65.9952 6.28596 65.9284L6.34197 65.7097L6.36984 65.6011C6.37492 65.583 6.37893 65.5639 6.38403 65.5468L6.40037 65.4933L6.46467 65.2825C6.47539 65.248 6.4845 65.2126 6.49683 65.1782L6.53379 65.0727L6.60802 64.8639C6.63426 64.7953 6.66321 64.727 6.69027 64.6579L6.73234 64.556L6.75296 64.505L6.77601 64.4548L6.86816 64.2534C6.8979 64.1858 6.93248 64.1208 6.96623 64.0548L7.06749 63.8583L7.17707 63.6666L7.23147 63.571C7.24941 63.5389 7.27006 63.5086 7.28987 63.4772L7.40775 63.2904C7.42651 63.2582 7.44795 63.2289 7.46858 63.1983L7.53209 63.1078L7.5945 63.0174C7.61512 62.9868 7.63656 62.9564 7.6588 62.9274L7.79222 62.7515C7.8359 62.6921 7.88358 62.6363 7.93075 62.5794L8.07061 62.4099L8.21794 62.2452L8.29217 62.1639C8.3168 62.1367 8.34333 62.1104 8.36798 62.0841L8.52203 61.9251C8.57296 61.8736 8.62733 61.8231 8.6809 61.7724L8.75996 61.6957L8.80042 61.6577L8.84141 61.6217L9.00618 61.4744C9.06055 61.425 9.11816 61.3788 9.17496 61.3319L9.34483 61.1912L9.52004 61.0564C9.57791 61.011 9.63631 60.9659 9.69633 60.923C9.81584 60.8366 9.93453 60.7494 10.058 60.6686L10.2407 60.5453L10.4286 60.427C10.5513 60.3462 10.6807 60.273 10.8066 60.1966C10.8701 60.1588 10.9349 60.1231 10.9992 60.0869L11.1919 59.9784C11.3237 59.91 11.4531 59.8394 11.5849 59.7726L11.7842 59.674L11.8831 59.6248L11.9836 59.5769C12.5189 59.3232 13.0665 59.0964 13.624 58.8896C14.7375 58.4775 15.8848 58.1507 17.0443 57.8726C18.2039 57.5945 19.3784 57.3668 20.5578 57.1642C21.738 56.9618 22.9239 56.7864 24.1139 56.6177C25.304 56.4492 26.4981 56.2881 27.6942 56.105L28.5868 55.9687C28.7359 55.9455 28.8809 55.9266 29.0284 55.9052L29.2482 55.8746L29.4705 55.8453C30.0638 55.7663 30.6598 55.6929 31.2586 55.6164C31.8582 55.5397 32.4594 55.4591 33.0623 55.3678C33.665 55.2758 34.2694 55.1688 34.8741 55.0411C35.4786 54.9136 36.083 54.7665 36.6819 54.5771L36.7385 54.5598L36.7669 54.5514C36.7732 54.5499 36.8097 54.5376 36.8069 54.5384L36.9134 54.5022L37.1273 54.4288L37.5546 54.2832C37.6258 54.2595 37.6965 54.2356 37.7682 54.2101L37.9873 54.1262L38.4248 53.9582C38.7201 53.8496 38.9994 53.7263 39.2837 53.607C39.4251 53.5468 39.5676 53.4877 39.7077 53.4257L40.1261 53.235L40.5444 53.0434C40.6836 52.9791 40.8196 52.91 40.9569 52.8432C41.2313 52.7092 41.5091 52.5776 41.7781 52.4367C42.8663 51.8856 43.9294 51.3028 44.9844 50.727C46.0394 50.1502 47.0903 49.5832 48.1494 49.0515L48.5466 48.8524C48.679 48.7864 48.8125 48.725 48.946 48.6615C49.2128 48.5366 49.477 48.4048 49.7473 48.2886L50.1498 48.1109C50.2841 48.051 50.4176 47.9901 50.5534 47.9373L50.9603 47.7719L51.163 47.6898L51.2651 47.6485L51.3151 47.6271C51.3164 47.6271 51.3169 47.6268 51.3169 47.6263C51.3169 47.6271 51.3179 47.6271 51.3266 47.623L51.3531 47.6133L52.2006 47.3028L52.413 47.2248L52.6192 47.1573L53.0317 47.0232L53.4434 46.8884C53.5111 46.8642 53.5833 46.8463 53.6533 46.8249L53.8641 46.764L54.4974 46.5797L54.6039 46.5483L54.71 46.5213L55.5634 46.3023C55.6341 46.285 55.705 46.2644 55.7765 46.2488L55.9914 46.2011L56.4215 46.1048L56.8514 46.0094L57.2846 45.9264L57.7167 45.8425C57.861 45.8152 58.0052 45.7854 58.1509 45.764L59.0216 45.6228L59.1309 45.6044L59.2396 45.5899L59.4589 45.56L59.8961 45.5017C60.0426 45.4818 60.1876 45.4604 60.3344 45.4433L60.7732 45.3961L61.213 45.3485L61.432 45.3248L61.6528 45.3067L62.534 45.2335C62.8283 45.2136 63.1229 45.1988 63.4179 45.1807L63.6385 45.1677C63.7117 45.1634 63.786 45.1593 63.8593 45.157L64.7448 45.1272C64.8185 45.1257 64.8921 45.1224 64.9663 45.1208L66.0739 45.1084L66.9602 45.1173C67.2555 45.118 67.5513 45.1295 67.8469 45.1387C68.1428 45.1479 68.4381 45.1553 68.734 45.1723L69.608 45.2169L70.5088 45.2819C70.6612 45.2911 70.8028 45.3067 70.9486 45.3199L71.3818 45.361L71.5992 45.3816L71.7072 45.3923L71.8167 45.4046L72.2547 45.4566C74.5914 45.7255 76.9063 46.1767 79.1909 46.7423C80.3324 47.0288 81.4665 47.349 82.5932 47.6946L83.0149 47.8254L83.2258 47.8914L83.4366 47.9597L84.2767 48.2345L85.1134 48.5223C85.1823 48.5463 85.2525 48.5695 85.3225 48.5939L85.5303 48.6689L85.9468 48.8195L86.1554 48.8935L86.259 48.9314L86.2856 48.9404C86.2863 48.9411 86.3193 48.9536 86.2942 48.9437L86.3471 48.9636L86.768 49.1257L87.2951 49.3273L87.3954 49.3681L87.5948 49.4507L87.9935 49.6143C88.126 49.6686 88.2587 49.7212 88.3945 49.7816L89.2034 50.1328L90.0121 50.4973L90.2145 50.5886L90.4164 50.6827L91.2251 51.0594L91.6304 51.2511L92.4416 51.636C94.606 52.6689 96.8114 53.7278 99.1259 54.595C100.285 55.0247 101.471 55.3992 102.685 55.698L102.905 55.7512L103.015 55.7777L103.132 55.8025L103.6 55.9011C103.757 55.9358 103.909 55.9595 104.064 55.9875L104.295 56.0286C104.371 56.0416 104.448 56.0574 104.525 56.0681L104.988 56.1372C105.065 56.1479 105.142 56.1611 105.219 56.17L105.452 56.1971L105.915 56.2524L106.38 56.2944L106.612 56.3151L107.309 56.3594C107.464 56.3668 107.619 56.3709 107.774 56.3768L108.006 56.3849C108.083 56.3882 108.16 56.3875 108.238 56.389L108.702 56.3931C108.857 56.3946 109.011 56.389 109.166 56.3875C109.475 56.3857 109.784 56.3701 110.092 56.3579L110.207 56.3528L110.323 56.3454L110.784 56.3141C110.86 56.309 110.938 56.3044 111.014 56.2967C111.321 56.2682 111.627 56.2442 111.932 56.2062C112.024 56.1955 112.115 56.1848 112.206 56.1741C112.148 56.2549 112.087 56.3347 112.034 56.4186C111.854 56.6959 111.699 56.9898 111.575 57.2983C111.452 57.607 111.362 57.9294 111.311 58.2577C111.285 58.4221 111.271 58.5876 111.265 58.753C111.26 58.9184 111.266 59.0831 111.282 59.247C111.297 59.4097 111.322 59.572 111.358 59.7306C111.373 59.8096 111.396 59.8879 111.415 59.9659C111.438 60.0434 111.459 60.1216 111.487 60.1973C111.529 60.3248 111.579 60.4484 111.632 60.5702C111.547 60.5024 111.461 60.4349 111.372 60.3709C111.312 60.3281 111.254 60.286 111.195 60.2432C111.135 60.2014 111.075 60.1604 111.015 60.1191L110.925 60.0564C110.895 60.0349 110.865 60.0148 110.835 59.9942L110.653 59.8715L110.563 59.8096L110.471 59.7505C110.41 59.711 110.349 59.6714 110.287 59.6319C110.164 59.5544 110.041 59.4798 109.919 59.4058C109.764 59.3143 109.61 59.2279 109.457 59.1448C109.287 59.0097 109.113 58.8749 108.928 58.7415C108.666 58.5516 108.391 58.3607 108.102 58.1721C108.029 58.1254 107.956 58.0785 107.882 58.0314C107.808 57.9852 107.732 57.9394 107.657 57.8924C107.581 57.8473 107.504 57.8012 107.427 57.7548C107.348 57.7104 107.269 57.6651 107.19 57.62C106.554 57.2613 105.862 56.9205 105.117 56.6212C104.743 56.4706 104.359 56.3288 103.962 56.1963C103.566 56.064 103.158 55.9432 102.741 55.8303C101.905 55.6064 101.031 55.4247 100.128 55.2766C99.6775 55.2024 99.2188 55.1374 98.7552 55.079C98.2906 55.0214 97.8205 54.9712 97.3452 54.9269C97.1073 54.9044 96.8683 54.8848 96.6289 54.8659C96.5069 54.8568 96.3849 54.8478 96.2624 54.8387C96.1429 54.8308 96.0224 54.8231 95.903 54.8157L95.722 54.8043C95.6602 54.8017 95.5977 54.7986 95.5356 54.7958C95.4113 54.7902 95.287 54.7844 95.1619 54.7795C94.9148 54.7729 94.666 54.7622 94.4158 54.7604C93.9165 54.7507 93.4127 54.7566 92.9052 54.7703C92.7786 54.7747 92.6515 54.7788 92.5249 54.7818C92.3972 54.7879 92.2704 54.7935 92.1427 54.7994C92.0149 54.805 91.8875 54.8132 91.7596 54.8208C91.632 54.828 91.5043 54.8353 91.3759 54.8453C90.3523 54.9162 89.3201 55.0281 88.2893 55.1695C86.2261 55.4509 84.1669 55.8427 82.1187 56.1626C81.6056 56.2417 81.0959 56.3158 80.5828 56.3857C80.0664 56.4543 79.5511 56.5223 79.036 56.5906C78.5214 56.6574 78.0075 56.7232 77.4952 56.7849C76.9839 56.8481 76.4732 56.909 75.9642 56.9669C73.9285 57.1996 71.9239 57.389 69.9809 57.5147C68.0381 57.6414 66.1579 57.7056 64.3746 57.7C63.4835 57.6964 62.6167 57.6768 61.7787 57.6414C60.9412 57.6052 60.1325 57.5501 59.3575 57.4851C58.5826 57.4176 57.8413 57.3329 57.137 57.2414C56.4338 57.1486 55.7694 57.0423 55.1447 56.932C54.5224 56.8208 53.9407 56.701 53.4046 56.5832C53.2711 56.5527 53.1402 56.5223 53.0118 56.4935C52.8842 56.4622 52.7588 56.4318 52.6363 56.4023C52.5143 56.3735 52.3948 56.3431 52.279 56.3133C52.1628 56.283 52.0482 56.2557 51.9387 56.2254C51.7189 56.1662 51.5096 56.1109 51.3151 56.0543C51.2173 56.026 51.1216 56 51.0302 55.9735C50.9399 55.9465 50.8515 55.92 50.7658 55.8945C50.5955 55.8453 50.4398 55.7941 50.2956 55.7497C50.1516 55.7061 50.0222 55.663 49.9053 55.6253C49.7892 55.5868 49.6853 55.5547 49.5972 55.5241C49.5091 55.4938 49.4341 55.4683 49.3741 55.4484C49.2546 55.4074 49.1921 55.3859 49.1921 55.3859C49.1921 55.3859 49.2513 55.414 49.3664 55.4675C49.4813 55.5211 49.6516 55.6024 49.8765 55.7002C49.9883 55.7505 50.1146 55.8063 50.2537 55.8649C50.3928 55.9241 50.5442 55.9883 50.7099 56.0543C50.7921 56.088 50.8786 56.1226 50.9669 56.1578C51.0557 56.194 51.1489 56.2284 51.2444 56.2656C51.4346 56.3403 51.639 56.4137 51.8555 56.4928C52.7203 56.8045 53.786 57.1453 55.0312 57.4596C55.653 57.6192 56.3194 57.7691 57.0268 57.9095C57.7333 58.052 58.4805 58.179 59.2636 58.2924C60.8294 58.5185 62.5383 58.6816 64.3491 58.7645C66.1594 58.8471 68.0721 58.8494 70.0452 58.7762C72.0184 58.7038 74.0528 58.5565 76.1117 58.3531C76.6263 58.3023 77.1427 58.248 77.6601 58.1912C78.177 58.1333 78.6952 58.0727 79.2139 58.0107C79.4735 57.9789 79.7328 57.9467 79.9932 57.9146C80.2528 57.8817 80.5121 57.8489 80.7715 57.8152L81.1633 57.7632C81.2945 57.7461 81.4254 57.7285 81.5564 57.7097C81.8183 57.6735 82.0794 57.6342 82.3395 57.5945C84.4257 57.2761 86.475 56.8772 88.4892 56.5863C88.9926 56.5126 89.4942 56.4459 89.9932 56.3875C90.492 56.3288 90.9887 56.2763 91.4829 56.2361C92.4705 56.1527 93.4474 56.1076 94.4092 56.1035C94.6496 56.1002 94.8883 56.105 95.1275 56.1058C95.2449 56.1084 95.3628 56.1119 95.4797 56.1142C95.5392 56.1157 95.5977 56.1165 95.6559 56.1183C95.7164 56.1198 95.7763 56.1224 95.8363 56.1249C95.9566 56.129 96.0768 56.1341 96.1965 56.1389C96.3132 56.144 96.4296 56.1486 96.5454 56.1547C96.6634 56.1604 96.781 56.167 96.898 56.1726C97.0149 56.1792 97.132 56.1856 97.2479 56.1925C97.7143 56.2195 98.1737 56.2531 98.6258 56.2927C99.0789 56.3314 99.5246 56.3783 99.9634 56.4308C100.401 56.4836 100.832 56.5455 101.255 56.6146C101.677 56.6827 102.091 56.7609 102.494 56.8473C103.303 57.0209 104.074 57.2284 104.799 57.4726C105.524 57.7178 106.205 57.9952 106.837 58.2965C107.152 58.4479 107.456 58.6041 107.748 58.763C108.039 58.9225 108.318 59.0864 108.585 59.2511C108.851 59.4155 109.108 59.5802 109.35 59.7461C109.594 59.9108 109.825 60.0755 110.044 60.2386C110.264 60.3997 110.471 60.5595 110.669 60.715C110.84 60.8506 111.003 60.9824 111.157 61.1107C111.18 61.1336 111.203 61.1558 111.226 61.179C111.323 61.2712 111.415 61.3666 111.508 61.4563C111.695 61.6363 111.877 61.8086 112.05 61.9722C112.138 62.0538 112.219 62.1359 112.299 62.2149C112.339 62.2537 112.38 62.2914 112.418 62.3301C112.456 62.3689 112.494 62.4069 112.531 62.4438C112.681 62.5909 112.812 62.7319 112.935 62.8535C112.966 62.883 112.992 62.9151 113.02 62.9439C113.048 62.9738 113.076 63.0023 113.101 63.0296C113.154 63.0839 113.202 63.1333 113.246 63.1785C113.331 63.2705 113.4 63.3439 113.449 63.3923C113.497 63.441 113.525 63.4665 113.525 63.4665L113.526 63.468C113.535 63.4764 113.547 63.4798 113.56 63.4772C113.58 63.4721 113.593 63.4517 113.588 63.4321C113.588 63.4321 113.58 63.3959 113.56 63.3291C113.542 63.2618 113.511 63.1647 113.468 63.0411C113.446 62.9801 113.418 62.9151 113.389 62.8427C113.357 62.7711 113.325 62.6913 113.285 62.6115C113.244 62.531 113.199 62.4461 113.152 62.3564C113.104 62.2659 113.047 62.1772 112.988 62.0824C112.959 62.0347 112.929 61.987 112.897 61.9386C112.865 61.8907 112.83 61.843 112.796 61.7938C112.724 61.6974 112.654 61.5945 112.572 61.4981C112.517 61.4293 112.457 61.3617 112.397 61.2934C112.333 61.1626 112.273 61.0316 112.219 60.8983C112.206 60.8639 112.191 60.83 112.179 60.7963L112.141 60.6929L112.123 60.6416L112.106 60.5896L112.072 60.4861C112.03 60.3469 111.992 60.208 111.965 60.0663C111.95 59.9965 111.941 59.9258 111.928 59.8557C111.919 59.7851 111.909 59.715 111.904 59.6442C111.89 59.5037 111.885 59.3628 111.89 59.2228C111.89 59.153 111.896 59.0839 111.901 59.0148C111.909 58.9457 111.915 58.8764 111.926 58.8083C111.946 58.6709 111.975 58.5361 112.011 58.4028C112.047 58.2702 112.091 58.14 112.143 58.0128C112.194 57.8851 112.254 57.7607 112.318 57.6391C112.447 57.3954 112.602 57.1657 112.777 56.9493C112.95 56.7339 113.145 56.533 113.351 56.3462C113.455 56.2531 113.56 56.1642 113.67 56.0806C113.725 56.0393 113.78 55.9982 113.835 55.9595C113.863 55.9396 113.89 55.9218 113.917 55.9037L113.958 55.8774L113.977 55.8657C113.981 55.8624 113.991 55.8575 113.99 55.8583L113.617 54.8568Z"
                        fill="white"></path>
                </g>
                <mask id="SvgjsMask1058" style="mask-type:luminance" maskUnits="userSpaceOnUse"
                    x="8" y="67" width="103" height="10">
                    <path d="M110.209 67.5076H8.9043V76.4359H110.209V67.5076Z" fill="white"></path>
                    <path
                        d="M13.381 69.2601C13.0081 69.2601 12.6543 69.3324 12.3195 69.477C11.9923 69.614 11.707 69.808 11.4635 70.0591C11.22 70.3026 11.0259 70.5879 10.8813 70.9151C10.7368 71.2423 10.6645 71.5924 10.6645 71.9652C10.6645 72.3381 10.7368 72.6919 10.8813 73.0267C11.0259 73.3539 11.22 73.6393 11.4635 73.8828C11.707 74.1263 11.9923 74.3203 12.3195 74.4649C12.6543 74.6095 13.0081 74.6817 13.381 74.6817H17.3416V76.3938H13.381C12.7723 76.3938 12.1978 76.2797 11.6575 76.0514C11.1172 75.8155 10.6455 75.4997 10.2422 75.1041C9.84648 74.7008 9.5307 74.229 9.29481 73.6887C9.06653 73.1485 8.95239 72.574 8.95239 71.9652C8.95239 71.3565 9.06653 70.7858 9.29481 70.2531C9.5307 69.7129 9.84648 69.2449 10.2422 68.8492C10.6455 68.4459 11.1172 68.1301 11.6575 67.9019C12.1978 67.666 12.7723 67.548 13.381 67.548H17.3416V69.2601H13.381ZM27.7664 76.4053H25.9287L23.4405 69.8879L20.9523 76.4053H19.1146L22.5045 67.5366H24.3764L27.7664 76.4053ZM38.2576 74.6817V76.4053H35.541L34.1714 73.4605H31.569V76.4053H29.8569V71.7369H35.0274C35.21 71.7369 35.3812 71.7027 35.541 71.6342C35.7084 71.5657 35.853 71.4706 35.9748 71.3489C36.0965 71.2271 36.1916 71.0864 36.2601 70.9266C36.3286 70.7668 36.3628 70.5956 36.3628 70.4129C36.3628 70.0933 36.2525 69.8232 36.0318 69.6025C35.8112 69.3819 35.541 69.2715 35.2214 69.2715H29.8569V67.548H35.2214C35.6171 67.548 35.9862 67.6241 36.3286 67.7763C36.6786 67.9285 36.983 68.134 37.2417 68.3927C37.5004 68.6514 37.7021 68.9558 37.8467 69.3058C37.9988 69.6482 38.0749 70.0172 38.0749 70.4129C38.0749 70.7477 38.0217 71.0711 37.9151 71.3831C37.8162 71.6875 37.6716 71.9652 37.4814 72.2163C37.2988 72.4674 37.0781 72.6881 36.8194 72.8783C36.5683 73.061 36.2906 73.2017 35.9862 73.3007L36.6368 74.6817H38.2576ZM53.3141 74.6817V76.4053H50.5976L49.2279 73.4605H46.6255V76.4053H44.9134V71.7369H50.0839C50.2665 71.7369 50.4378 71.7027 50.5976 71.6342C50.765 71.5657 50.9095 71.4706 51.0313 71.3489C51.153 71.2271 51.2481 71.0864 51.3166 70.9266C51.3851 70.7668 51.4194 70.5956 51.4194 70.4129C51.4194 70.0933 51.309 69.8232 51.0883 69.6025C50.8677 69.3819 50.5975 69.2715 50.278 69.2715H44.9134V67.548H50.278C50.6736 67.548 51.0427 67.6241 51.3851 67.7763C51.7351 67.9285 52.0395 68.134 52.2982 68.3927C52.5569 68.6514 52.7586 68.9558 52.9032 69.3058C53.0554 69.6482 53.1314 70.0172 53.1314 70.4129C53.1314 70.7477 53.0782 71.0711 52.9716 71.3831C52.8727 71.6875 52.7282 71.9652 52.5379 72.2163C52.3553 72.4674 52.1346 72.6881 51.8759 72.8783C51.6248 73.061 51.3471 73.2017 51.0427 73.3007L51.6933 74.6817H53.3141ZM57.4292 74.6703H63.4101V76.3824H55.7171V71.132H62.7252V72.8555H57.4292V74.6703ZM55.7513 69.2487V67.5366H63.6498V69.2487H55.7513ZM65.9884 76.4053V70.6298H67.7005V76.4053H65.9884ZM75.2793 67.5366V76.4053H73.3047L65.9884 67.5366H68.2141L73.5672 74.0083V67.5366H75.2793ZM85.1744 67.5366V69.2487H82.2182V76.4053H80.4947V67.5366H85.1744ZM77.5385 69.2487V67.5366H79.7871V69.2487H77.5385ZM87.599 76.3596C87.4544 76.3596 87.3137 76.333 87.1767 76.2797C87.0473 76.2188 86.9332 76.1389 86.8343 76.04C86.7354 75.9411 86.6555 75.8269 86.5946 75.6976C86.5413 75.5606 86.5147 75.416 86.5147 75.2639C86.5147 75.1117 86.5413 74.9709 86.5946 74.8415C86.6555 74.7046 86.7354 74.5866 86.8343 74.4877C86.9332 74.3812 87.0473 74.3013 87.1767 74.248C87.3137 74.1871 87.4544 74.1567 87.599 74.1567C87.9034 74.1567 88.1583 74.267 88.3637 74.4877C88.5768 74.7008 88.6833 74.9595 88.6833 75.2639C88.6833 75.5682 88.5768 75.8269 88.3637 76.04C88.1583 76.2531 87.9034 76.3596 87.599 76.3596ZM99.9469 76.4053H97.4815L94.1029 72.8327H93.0643V76.4053H91.3522V71.1092H93.8062L97.3559 67.5366H99.7757L95.5183 71.8283L99.9469 76.4053ZM91.3522 70.3901V67.5366H93.0643V70.3901H91.3522ZM110.167 71.1092V76.3938H105.339C104.73 76.3938 104.156 76.2797 103.616 76.0514C103.075 75.8155 102.604 75.4997 102.2 75.1041C101.805 74.7008 101.489 74.229 101.253 73.6887C101.025 73.1485 100.91 72.574 100.91 71.9652C100.91 71.3565 101.025 70.7858 101.253 70.2531C101.489 69.7129 101.805 69.2449 102.2 68.8492C102.604 68.4459 103.075 68.1301 103.616 67.9019C104.156 67.666 104.73 67.548 105.339 67.548H109.3V69.2601H105.339C104.966 69.2601 104.612 69.3324 104.278 69.477C103.95 69.614 103.665 69.808 103.422 70.0591C103.178 70.3026 102.984 70.5879 102.839 70.9151C102.695 71.2423 102.623 71.5924 102.623 71.9652C102.623 72.3381 102.695 72.6919 102.839 73.0267C102.984 73.3539 103.178 73.6393 103.422 73.8828C103.665 74.1263 103.95 74.3203 104.278 74.4649C104.612 74.6095 104.966 74.6817 105.339 74.6817H108.444V72.8327H105.533V71.1092H110.167Z"
                        fill="black"></path>
                </mask>
                <g mask="url(#mask2_4619_280)">
                    <path
                        d="M12.3192 69.477L12.329 69.5006L12.3293 69.5003L12.3192 69.477ZM11.4632 70.0591L11.4811 70.0771H11.4813L11.4814 70.0768L11.4632 70.0591ZM10.8811 73.0267L10.8578 73.0368L10.8579 73.0371L10.8811 73.0267ZM12.3192 74.4649L12.309 74.4882H12.3092L12.3192 74.4649ZM17.3414 74.6817H17.3667V74.6564H17.3414V74.6817ZM17.3414 76.3938V76.4192H17.3667V76.3938H17.3414ZM11.6572 76.0514L11.6471 76.0747L11.6474 76.075L11.6572 76.0514ZM10.2419 75.104L10.2238 75.1218L10.224 75.122L10.2241 75.1223L10.2419 75.104ZM9.29454 73.6887L9.27118 73.6986L9.27131 73.6989L9.29454 73.6887ZM9.29454 70.2531L9.27131 70.243L9.27123 70.2432L9.29454 70.2531ZM11.6572 67.9018L11.6671 67.9254L11.6674 67.9252L11.6572 67.9018ZM17.3414 67.548H17.3667V67.5226H17.3414V67.548ZM17.3414 69.2601V69.2855H17.3667V69.2601H17.3414ZM13.3807 69.2347C13.0045 69.2347 12.6472 69.3078 12.3092 69.4539L12.3293 69.5003C12.6608 69.3572 13.0113 69.2855 13.3807 69.2855V69.2347ZM12.3094 69.4536C11.9791 69.5919 11.6909 69.7879 11.445 70.0416L11.4814 70.0768C11.7225 69.8283 12.0049 69.6363 12.329 69.5006L12.3094 69.4536ZM11.4453 70.0413C11.1995 70.2871 11.0037 70.575 10.8579 70.905L10.9043 70.9255C11.0476 70.6011 11.2399 70.3183 11.4811 70.0771L11.4453 70.0413ZM10.8579 70.905C10.7118 71.2355 10.6388 71.589 10.6388 71.9652H10.6896C10.6896 71.5959 10.7612 71.2494 10.9043 70.9255L10.8579 70.905ZM10.6388 71.9652C10.6388 72.3416 10.7118 72.6987 10.8578 73.0368L10.9044 73.0168C10.7612 72.6853 10.6896 72.3348 10.6896 71.9652H10.6388ZM10.8579 73.0371C11.0037 73.3671 11.1995 73.655 11.4453 73.9008L11.4811 73.865C11.2399 73.6238 11.0476 73.341 10.9043 73.0166L10.8579 73.0371ZM11.4453 73.9008C11.6911 74.1465 11.979 74.3423 12.309 74.4882L12.3295 74.4418C12.005 74.2985 11.7223 74.1062 11.4811 73.865L11.4453 73.9008ZM12.3092 74.4882C12.6472 74.6343 13.0045 74.7071 13.3807 74.7071V74.6564C13.0113 74.6564 12.6608 74.5848 12.3293 74.4418L12.3092 74.4882ZM13.3807 74.7071H17.3414V74.6564H13.3807V74.7071ZM17.316 74.6817V76.3938H17.3667V74.6817H17.316ZM17.3414 76.3684H13.3807V76.4192H17.3414V76.3684ZM13.3807 76.3684C12.7753 76.3684 12.2041 76.2551 11.6671 76.0281L11.6474 76.075C12.1909 76.3045 12.7687 76.4192 13.3807 76.4192V76.3684ZM11.6674 76.0283C11.1298 75.7934 10.6607 75.4794 10.2597 75.086L10.2241 75.1223C10.6297 75.5203 11.1041 75.8376 11.6471 76.0747L11.6674 76.0283ZM10.26 75.0863C9.86658 74.6853 9.5525 74.2163 9.31777 73.6786L9.27131 73.6989C9.50836 74.2419 9.82585 74.7162 10.2238 75.1218L10.26 75.0863ZM9.3179 73.6788C9.09099 73.1419 8.97749 72.5709 8.97749 71.9652H8.92676C8.92676 72.5772 9.04153 73.1553 9.27118 73.6986L9.3179 73.6788ZM8.97749 71.9652C8.97749 71.3598 9.09099 70.7926 9.31785 70.2633L9.27123 70.2432C9.04153 70.7792 8.92676 71.3534 8.92676 71.9652H8.97749ZM9.31777 70.2633C9.55247 69.7258 9.86651 69.2606 10.2598 68.8672L10.224 68.8314C9.82592 69.2294 9.50839 69.7002 9.27131 70.243L9.31777 70.2633ZM10.2598 68.8672C10.6607 68.4662 11.1298 68.1524 11.6671 67.9254L11.6474 67.8785C11.1042 68.1081 10.6296 68.4256 10.224 68.8314L10.2598 68.8672ZM11.6674 67.9252C12.2043 67.6908 12.7754 67.5734 13.3807 67.5734V67.5226C12.7686 67.5226 12.1906 67.6413 11.6471 67.8788L11.6674 67.9252ZM13.3807 67.5734H17.3414V67.5226H13.3807V67.5734ZM17.316 67.548V69.2601H17.3667V67.548H17.316ZM17.3414 69.2347H13.3807V69.2855H17.3414V69.2347ZM27.7661 76.4052V76.4306H27.8029L27.7899 76.3963L27.7661 76.4052ZM25.9285 76.4052L25.9049 76.4144L25.911 76.4306H25.9285V76.4052ZM23.4402 69.8879L23.4641 69.879L23.4402 69.8168L23.4166 69.879L23.4402 69.8879ZM20.952 76.4052V76.4306H20.9695L20.9757 76.4144L20.952 76.4052ZM19.1144 76.4052L19.0907 76.3963L19.0775 76.4306H19.1144V76.4052ZM22.5043 67.5366V67.5112H22.4868L22.4807 67.5277L22.5043 67.5366ZM24.3762 67.5366L24.4 67.5277L24.3937 67.5112H24.3762V67.5366ZM27.7661 76.3799H25.9285V76.4306H27.7661V76.3799ZM25.9523 76.3963L23.4641 69.879L23.4166 69.897L25.9049 76.4144L25.9523 76.3963ZM23.4166 69.879L20.9283 76.3963L20.9757 76.4144L23.4641 69.897L23.4166 69.879ZM20.952 76.3799H19.1144V76.4306H20.952V76.3799ZM19.1381 76.4144L22.5281 67.5457L22.4807 67.5277L19.0907 76.3963L19.1381 76.4144ZM22.5043 67.562H24.3762V67.5112H22.5043V67.562ZM24.3526 67.5457L27.7425 76.4144L27.7899 76.3963L24.4 67.5277L24.3526 67.5457ZM38.2573 74.6817H38.2827V74.6564H38.2573V74.6817ZM38.2573 76.4052V76.4306H38.2827V76.4052H38.2573ZM35.5408 76.4052L35.5177 76.4161L35.5245 76.4306H35.5408V76.4052ZM34.1711 73.4604L34.1942 73.4498L34.1873 73.4351H34.1711V73.4604ZM31.5687 73.4604V73.4351H31.5434V73.4604H31.5687ZM31.5687 76.4052V76.4306H31.5941V76.4052H31.5687ZM29.8566 76.4052H29.8313V76.4306H29.8566V76.4052ZM29.8566 71.7369V71.7116H29.8313V71.7369H29.8566ZM35.5408 71.6342L35.5311 71.6109H35.5309L35.5408 71.6342ZM29.8566 69.2715H29.8313V69.2969H29.8566V69.2715ZM29.8566 67.548V67.5226H29.8313V67.548H29.8566ZM37.8464 69.3058L37.8231 69.3156V69.3159L37.8233 69.3162L37.8464 69.3058ZM37.9149 71.3831L37.891 71.375L37.8908 71.3752V71.3755L37.9149 71.3831ZM37.4811 72.2163L37.4609 72.2011V72.2013L37.4606 72.2016L37.4811 72.2163ZM35.9859 73.3006L35.9781 73.2765L35.9507 73.2854L35.9631 73.3115L35.9859 73.3006ZM36.6365 74.6817L36.6137 74.6926L36.6205 74.7071H36.6365V74.6817ZM38.2319 74.6817V76.4052H38.2827V74.6817H38.2319ZM38.2573 76.3799H35.5408V76.4306H38.2573V76.3799ZM35.5639 76.3946L34.1942 73.4498L34.148 73.4713L35.5177 76.4161L35.5639 76.3946ZM34.1711 73.4351H31.5687V73.4858H34.1711V73.4351ZM31.5434 73.4604V76.4052H31.5941V73.4604H31.5434ZM31.5687 76.3799H29.8566V76.4306H31.5687V76.3799ZM29.882 76.4052V71.7369H29.8313V76.4052H29.882ZM29.8566 71.7623H35.0271V71.7116H29.8566V71.7623ZM35.0271 71.7623C35.2131 71.7623 35.3876 71.7275 35.5509 71.6575L35.5309 71.6109C35.3744 71.6781 35.2065 71.7116 35.0271 71.7116V71.7623ZM35.5504 71.6578C35.7209 71.588 35.8682 71.4911 35.9925 71.3669L35.9565 71.3311C35.8373 71.4503 35.6958 71.5436 35.5311 71.6109L35.5504 71.6578ZM35.9925 71.3669C36.1165 71.2428 36.2134 71.0993 36.2832 70.9367L36.2365 70.9166C36.1693 71.0734 36.076 71.2116 35.9565 71.3311L35.9925 71.3669ZM36.2832 70.9367C36.3532 70.7736 36.3879 70.5988 36.3879 70.4129H36.3372C36.3372 70.5925 36.3037 70.7601 36.2365 70.9166L36.2832 70.9367ZM36.3879 70.4129C36.3879 70.087 36.2751 69.8103 36.0496 69.5848L36.0136 69.6205C36.2294 69.8364 36.3372 70.0999 36.3372 70.4129H36.3879ZM36.0496 69.5848C35.8241 69.359 35.5474 69.2461 35.2212 69.2461V69.2969C35.5342 69.2969 35.798 69.4047 36.0136 69.6205L36.0496 69.5848ZM35.2212 69.2461H29.8566V69.2969H35.2212V69.2461ZM29.882 69.2715V67.548H29.8313V69.2715H29.882ZM29.8566 67.5734H35.2212V67.5226H29.8566V67.5734ZM35.2212 67.5734C35.6136 67.5734 35.9791 67.649 36.3182 67.7996L36.3387 67.7532C35.9928 67.5995 35.6202 67.5226 35.2212 67.5226V67.5734ZM36.3182 67.7996C36.6654 67.9505 36.9673 68.1542 37.2234 68.4106L37.2595 68.3749C36.9985 68.1136 36.6913 67.9064 36.3385 67.7532L36.3182 67.7996ZM37.2234 68.4106C37.4799 68.6668 37.6797 68.9684 37.8231 69.3156L37.87 69.2961C37.7241 68.9433 37.5205 68.6359 37.2595 68.3749L37.2234 68.4106ZM37.8233 69.3162C37.974 69.6553 38.0493 70.0208 38.0493 70.4129H38.1C38.1 70.0139 38.0234 69.6413 37.8697 69.2956L37.8233 69.3162ZM38.0493 70.4129C38.0493 70.7452 37.9965 71.0658 37.891 71.375L37.939 71.3915C38.0463 71.0767 38.1 70.7505 38.1 70.4129H38.0493ZM37.8908 71.3755C37.7926 71.6771 37.6496 71.9523 37.4609 72.2011L37.5014 72.2318C37.6934 71.9784 37.8393 71.6981 37.939 71.391L37.8908 71.3755ZM37.4606 72.2016C37.2798 72.4504 37.0609 72.6693 36.8042 72.858L36.8341 72.8989C37.0948 72.7071 37.3175 72.4847 37.5017 72.2313L37.4606 72.2016ZM36.8042 72.858C36.5553 73.0389 36.2801 73.1784 35.9781 73.2765L35.9938 73.325C36.3007 73.225 36.5807 73.0833 36.8341 72.8989L36.8042 72.858ZM35.9631 73.3115L36.6137 74.6926L36.6596 74.6711L36.009 73.29L35.9631 73.3115ZM36.6365 74.7071H38.2573V74.6564H36.6365V74.7071ZM53.3138 74.6817H53.3392V74.6564H53.3138V74.6817ZM53.3138 76.4052V76.4306H53.3392V76.4052H53.3138ZM50.5973 76.4052L50.5745 76.4161L50.5813 76.4306H50.5973V76.4052ZM49.2276 73.4604L49.2507 73.4498L49.2438 73.4351H49.2276V73.4604ZM46.6252 73.4604V73.4351H46.5999V73.4604H46.6252ZM46.6252 76.4052V76.4306H46.6506V76.4052H46.6252ZM44.9131 76.4052H44.8878V76.4306H44.9131V76.4052ZM44.9131 71.7369V71.7116H44.8878V71.7369H44.9131ZM50.5973 71.6342L50.5879 71.6109H50.5876H50.5874L50.5973 71.6342ZM44.9131 69.2715H44.8878V69.2969H44.9131V69.2715ZM44.9131 67.548V67.5226H44.8878V67.548H44.9131ZM51.3849 67.7763L51.3747 67.7996H51.375L51.3849 67.7763ZM52.9029 69.3058L52.8796 69.3156L52.8798 69.3159V69.3162L52.9029 69.3058ZM52.9714 71.3831L52.9475 71.375V71.3752L52.9473 71.3755L52.9714 71.3831ZM52.5377 72.2163L52.5176 72.2011L52.5174 72.2013V72.2016L52.5377 72.2163ZM51.8756 72.8783L51.8906 72.8989H51.8909L51.8756 72.8783ZM51.0424 73.3006L51.0348 73.2765L51.0074 73.2854L51.0196 73.3115L51.0424 73.3006ZM51.693 74.6817L51.6702 74.6926L51.677 74.7071H51.693V74.6817ZM53.2884 74.6817V76.4052H53.3392V74.6817H53.2884ZM53.3138 76.3799H50.5973V76.4306H53.3138V76.3799ZM50.6204 76.3946L49.2507 73.4498L49.2048 73.4713L50.5745 76.4161L50.6204 76.3946ZM49.2276 73.4351H46.6252V73.4858H49.2276V73.4351ZM46.5999 73.4604V76.4052H46.6506V73.4604H46.5999ZM46.6252 76.3799H44.9131V76.4306H46.6252V76.3799ZM44.9385 76.4052V71.7369H44.8878V76.4052H44.9385ZM44.9131 71.7623H50.0837V71.7116H44.9131V71.7623ZM50.0837 71.7623C50.2696 71.7623 50.4443 71.7275 50.6074 71.6575L50.5874 71.6109C50.4309 71.6781 50.2632 71.7116 50.0837 71.7116V71.7623ZM50.6069 71.6578C50.7774 71.588 50.9247 71.4911 51.049 71.3669L51.0133 71.3311C50.894 71.4503 50.7523 71.5436 50.5879 71.6109L50.6069 71.6578ZM51.049 71.3669C51.1731 71.2428 51.2699 71.0993 51.3397 70.9367L51.2933 70.9166C51.2261 71.0734 51.1327 71.2116 51.0133 71.3311L51.049 71.3669ZM51.3397 70.9367C51.4097 70.7736 51.4445 70.5988 51.4445 70.4129H51.3937C51.3937 70.5925 51.3602 70.7601 51.2933 70.9166L51.3397 70.9367ZM51.4445 70.4129C51.4445 70.087 51.3316 69.8103 51.1061 69.5848L51.0703 69.6205C51.2862 69.8364 51.3937 70.0999 51.3937 70.4129H51.4445ZM51.1061 69.5848C50.8806 69.359 50.6039 69.2461 50.2777 69.2461V69.2969C50.5909 69.2969 50.8545 69.4047 51.0703 69.6205L51.1061 69.5848ZM50.2777 69.2461H44.9131V69.2969H50.2777V69.2461ZM44.9385 69.2715V67.548H44.8878V69.2715H44.9385ZM44.9131 67.5734H50.2777V67.5226H44.9131V67.5734ZM50.2777 67.5734C50.6701 67.5734 51.0356 67.649 51.3747 67.7996L51.3952 67.7532C51.0495 67.5995 50.6769 67.5226 50.2777 67.5226V67.5734ZM51.375 67.7996C51.7222 67.9505 52.0238 68.1542 52.2802 68.4106L52.316 68.3749C52.055 68.1136 51.7478 67.9064 51.395 67.7532L51.375 67.7996ZM52.2802 68.4106C52.5364 68.6668 52.7363 68.9684 52.8796 69.3156L52.9265 69.2961C52.7806 68.9433 52.5772 68.6359 52.316 68.3749L52.2802 68.4106ZM52.8798 69.3162C53.0305 69.6553 53.1058 70.0208 53.1058 70.4129H53.1565C53.1565 70.0139 53.0799 69.6413 52.9262 69.2956L52.8798 69.3162ZM53.1058 70.4129C53.1058 70.7452 53.0531 71.0658 52.9475 71.375L52.9955 71.3915C53.103 71.0767 53.1565 70.7505 53.1565 70.4129H53.1058ZM52.9473 71.3755C52.8494 71.6771 52.7061 71.9523 52.5176 72.2011L52.5579 72.2318C52.75 71.9784 52.8958 71.6981 52.9957 71.391L52.9473 71.3755ZM52.5174 72.2016C52.3363 72.4504 52.1174 72.6693 51.8607 72.858L51.8909 72.8989C52.1516 72.7071 52.3741 72.4847 52.5582 72.2313L52.5174 72.2016ZM51.8609 72.858C51.6119 73.0389 51.3367 73.1784 51.0348 73.2765L51.0503 73.325C51.3572 73.225 51.6375 73.0833 51.8906 72.8989L51.8609 72.858ZM51.0196 73.3115L51.6702 74.6926L51.7161 74.6711L51.0655 73.29L51.0196 73.3115ZM51.693 74.7071H53.3138V74.6564H51.693V74.7071ZM57.4289 74.6703H57.4036V74.6957H57.4289V74.6703ZM63.4098 74.6703H63.4352V74.6449H63.4098V74.6703ZM63.4098 76.3824V76.4078H63.4352V76.3824H63.4098ZM55.7168 76.3824H55.6915V76.4078H55.7168V76.3824ZM55.7168 71.132V71.1066H55.6915V71.132H55.7168ZM62.725 71.132H62.7503V71.1066H62.725V71.132ZM62.725 72.8555V72.8809H62.7503V72.8555H62.725ZM57.4289 72.8555V72.8301H57.4036V72.8555H57.4289ZM55.7511 69.2487H55.7257V69.2741H55.7511V69.2487ZM55.7511 67.5366V67.5112H55.7257V67.5366H55.7511ZM63.6495 67.5366H63.6749V67.5112H63.6495V67.5366ZM63.6495 69.2487V69.2741H63.6749V69.2487H63.6495ZM57.4289 74.6957H63.4098V74.6449H57.4289V74.6957ZM63.3845 74.6703V76.3824H63.4352V74.6703H63.3845ZM63.4098 76.357H55.7168V76.4078H63.4098V76.357ZM55.7422 76.3824V71.132H55.6915V76.3824H55.7422ZM55.7168 71.1574H62.725V71.1066H55.7168V71.1574ZM62.6996 71.132V72.8555H62.7503V71.132H62.6996ZM62.725 72.8301H57.4289V72.8809H62.725V72.8301ZM57.4036 72.8555V74.6703H57.4543V72.8555H57.4036ZM55.7764 69.2487V67.5366H55.7257V69.2487H55.7764ZM55.7511 67.562H63.6495V67.5112H55.7511V67.562ZM63.6242 67.5366V69.2487H63.6749V67.5366H63.6242ZM63.6495 69.2233H55.7511V69.2741H63.6495V69.2233ZM65.9881 76.4052H65.9627V76.4306H65.9881V76.4052ZM65.9881 70.6298V70.6044H65.9627V70.6298H65.9881ZM67.7002 70.6298H67.7256V70.6044H67.7002V70.6298ZM67.7002 76.4052V76.4306H67.7256V76.4052H67.7002ZM75.2791 67.5366H75.3044V67.5112H75.2791V67.5366ZM75.2791 76.4052V76.4306H75.3044V76.4052H75.2791ZM73.3044 76.4052L73.2849 76.4215L73.2925 76.4306H73.3044V76.4052ZM65.9881 67.5366V67.5112H65.9343L65.9686 67.5528L65.9881 67.5366ZM68.2138 67.5366L68.2334 67.5206L68.2257 67.5112H68.2138V67.5366ZM73.567 74.0083L73.5474 74.0245L73.5923 74.0788V74.0083H73.567ZM73.567 67.5366V67.5112H73.5416V67.5366H73.567ZM66.0135 76.4052V70.6298H65.9627V76.4052H66.0135ZM65.9881 70.6551H67.7002V70.6044H65.9881V70.6551ZM67.6748 70.6298V76.4052H67.7256V70.6298H67.6748ZM67.7002 76.3799H65.9881V76.4306H67.7002V76.3799ZM75.2537 67.5366V76.4052H75.3044V67.5366H75.2537ZM75.2791 76.3799H73.3044V76.4306H75.2791V76.3799ZM73.324 76.3892L66.0076 67.5206L65.9686 67.5528L73.2849 76.4215L73.324 76.3892ZM65.9881 67.562H68.2138V67.5112H65.9881V67.562ZM68.1943 67.5528L73.5474 74.0245L73.5865 73.9923L68.2334 67.5206L68.1943 67.5528ZM73.5923 74.0083V67.5366H73.5416V74.0083H73.5923ZM73.567 67.562H75.2791V67.5112H73.567V67.562ZM85.1742 67.5366H85.1995V67.5112H85.1742V67.5366ZM85.1742 69.2487V69.2741H85.1995V69.2487H85.1742ZM82.218 69.2487V69.2233H82.1926V69.2487H82.218ZM82.218 76.4052V76.4306H82.2433V76.4052H82.218ZM80.4945 76.4052H80.4691V76.4306H80.4945V76.4052ZM80.4945 67.5366V67.5112H80.4691V67.5366H80.4945ZM77.5383 69.2487H77.5129V69.2741H77.5383V69.2487ZM77.5383 67.5366V67.5112H77.5129V67.5366H77.5383ZM79.7868 67.5366H79.8122V67.5112H79.7868V67.5366ZM79.7868 69.2487V69.2741H79.8122V69.2487H79.7868ZM85.1488 67.5366V69.2487H85.1995V67.5366H85.1488ZM85.1742 69.2233H82.218V69.2741H85.1742V69.2233ZM82.1926 69.2487V76.4052H82.2433V69.2487H82.1926ZM82.218 76.3799H80.4945V76.4306H82.218V76.3799ZM80.5198 76.4052V67.5366H80.4691V76.4052H80.5198ZM80.4945 67.562H85.1742V67.5112H80.4945V67.562ZM77.5636 69.2487V67.5366H77.5129V69.2487H77.5636ZM77.5383 67.562H79.7868V67.5112H77.5383V67.562ZM79.7614 67.5366V69.2487H79.8122V67.5366H79.7614ZM79.7868 69.2233H77.5383V69.2741H79.7868V69.2233ZM87.1764 76.2797L87.1655 76.3028L87.1663 76.303L87.1673 76.3035L87.1764 76.2797ZM86.5943 75.6976L86.5707 75.7069L86.571 75.7077L86.5712 75.7085L86.5943 75.6976ZM86.5943 74.8415L86.5712 74.8314L86.571 74.8316L86.5707 74.8319L86.5943 74.8415ZM86.834 74.4877L86.852 74.5057L86.8523 74.5054L86.8525 74.5049L86.834 74.4877ZM87.1764 74.248L87.1861 74.2716L87.1863 74.2713H87.1868L87.1764 74.248ZM88.3635 74.4877L88.345 74.5052L88.3452 74.5054L88.3455 74.5057L88.3635 74.4877ZM88.3635 76.04L88.3455 76.0222L88.3452 76.0225L88.3635 76.04ZM87.5988 76.3342C87.4575 76.3342 87.3197 76.3083 87.1856 76.2561L87.1673 76.3035C87.3071 76.3578 87.4509 76.3849 87.5988 76.3849V76.3342ZM87.1873 76.2568C87.0605 76.1972 86.9487 76.1189 86.852 76.0222L86.816 76.058C86.9172 76.1589 87.0336 76.2406 87.1655 76.3028L87.1873 76.2568ZM86.852 76.0222C86.7551 75.9253 86.677 75.8137 86.6172 75.6869L86.5712 75.7085C86.6334 75.8404 86.7151 75.957 86.816 76.058L86.852 76.0222ZM86.6179 75.6884C86.5659 75.5545 86.5398 75.413 86.5398 75.2638H86.4891C86.4891 75.4191 86.5162 75.5669 86.5707 75.7069L86.6179 75.6884ZM86.5398 75.2638C86.5398 75.1147 86.5659 74.9772 86.6177 74.8512L86.5707 74.8319C86.5162 74.9645 86.4891 75.1089 86.4891 75.2638H86.5398ZM86.6174 74.8519C86.6773 74.7175 86.7554 74.6023 86.852 74.5057L86.816 74.4699C86.7148 74.5711 86.6331 74.6916 86.5712 74.8314L86.6174 74.8519ZM86.8525 74.5049C86.9492 74.4012 87.0603 74.3233 87.1861 74.2716L87.1668 74.2247C87.0339 74.2794 86.9167 74.3614 86.8155 74.4704L86.8525 74.5049ZM87.1868 74.2713C87.3205 74.2117 87.4577 74.182 87.5988 74.182V74.1313C87.4504 74.1313 87.3063 74.1628 87.166 74.2249L87.1868 74.2713ZM87.5988 74.182C87.896 74.182 88.1443 74.2896 88.345 74.5052L88.382 74.4704C88.1717 74.2447 87.91 74.1313 87.5988 74.1313V74.182ZM88.3455 74.5057C88.5537 74.7139 88.6577 74.9663 88.6577 75.2638H88.7084C88.7084 74.9529 88.5994 74.6878 88.3815 74.4699L88.3455 74.5057ZM88.6577 75.2638C88.6577 75.5616 88.5537 75.814 88.3455 76.0222L88.3815 76.058C88.5994 75.8401 88.7084 75.5751 88.7084 75.2638H88.6577ZM88.3452 76.0225C88.1446 76.2305 87.8965 76.3342 87.5988 76.3342V76.3849C87.9097 76.3849 88.1712 76.2759 88.3818 76.0577L88.3452 76.0225ZM99.9466 76.4052V76.4306H100.006L99.9649 76.3877L99.9466 76.4052ZM97.4812 76.4052L97.4629 76.4227L97.4703 76.4306H97.4812V76.4052ZM94.1027 72.8327L94.1212 72.8154L94.1136 72.8073H94.1027V72.8327ZM93.064 72.8327V72.8073H93.0386V72.8327H93.064ZM93.064 76.4052V76.4306H93.0894V76.4052H93.064ZM91.3519 76.4052H91.3265V76.4306H91.3519V76.4052ZM91.3519 71.1092V71.0838H91.3265V71.1092H91.3519ZM93.8059 71.1092V71.1345H93.8166L93.8239 71.1272L93.8059 71.1092ZM97.3556 67.5366V67.5112H97.3452L97.3376 67.5188L97.3556 67.5366ZM99.7754 67.5366L99.7934 67.5546L99.8363 67.5112H99.7754V67.5366ZM95.518 71.8282L95.5 71.8105L95.4825 71.8282L95.4997 71.846L95.518 71.8282ZM91.3519 70.3901H91.3265V70.4154H91.3519V70.3901ZM91.3519 67.5366V67.5112H91.3265V67.5366H91.3519ZM93.064 67.5366H93.0894V67.5112H93.064V67.5366ZM93.064 70.3901V70.4154H93.0894V70.3901H93.064ZM99.9466 76.3799H97.4812V76.4306H99.9466V76.3799ZM97.4997 76.388L94.1212 72.8154L94.0844 72.8502L97.4629 76.4227L97.4997 76.388ZM94.1027 72.8073H93.064V72.858H94.1027V72.8073ZM93.0386 72.8327V76.4052H93.0894V72.8327H93.0386ZM93.064 76.3799H91.3519V76.4306H93.064V76.3799ZM91.3773 76.4052V71.1092H91.3265V76.4052H91.3773ZM91.3519 71.1345H93.8059V71.0838H91.3519V71.1345ZM93.8239 71.1272L97.3737 67.5546L97.3376 67.5188L93.7879 71.0914L93.8239 71.1272ZM97.3556 67.562H99.7754V67.5112H97.3556V67.562ZM99.7574 67.5188L95.5 71.8105L95.536 71.8462L99.7934 67.5546L99.7574 67.5188ZM95.4997 71.846L99.9283 76.423L99.9649 76.3877L95.5363 71.8107L95.4997 71.846ZM91.3773 70.3901V67.5366H91.3265V70.3901H91.3773ZM91.3519 67.562H93.064V67.5112H91.3519V67.562ZM93.0386 67.5366V70.3901H93.0894V67.5366H93.0386ZM93.064 70.3647H91.3519V70.4154H93.064V70.3647ZM110.167 71.1092H110.192V71.0838H110.167V71.1092ZM110.167 76.3938V76.4192H110.192V76.3938H110.167ZM103.615 76.0514L103.605 76.0747L103.605 76.075L103.615 76.0514ZM102.2 75.104L102.182 75.1218L102.182 75.122L102.182 75.1223L102.2 75.104ZM101.253 73.6887L101.229 73.6986V73.6989L101.253 73.6887ZM101.253 70.2531L101.229 70.243V70.2432L101.253 70.2531ZM103.615 67.9018L103.625 67.9254L103.625 67.9252L103.615 67.9018ZM109.299 67.548H109.325V67.5226H109.299V67.548ZM109.299 69.2601V69.2855H109.325V69.2601H109.299ZM104.277 69.477L104.287 69.5006L104.287 69.5003L104.277 69.477ZM103.421 70.0591L103.439 70.0771L103.44 70.0768L103.421 70.0591ZM102.839 73.0267L102.816 73.0368V73.0371L102.839 73.0267ZM104.277 74.4649L104.267 74.4882H104.267L104.277 74.4649ZM108.443 74.6817V74.7071H108.469V74.6817H108.443ZM108.443 72.8327H108.469V72.8073H108.443V72.8327ZM105.533 72.8327H105.507V72.858H105.533V72.8327ZM105.533 71.1092V71.0838H105.507V71.1092H105.533ZM110.142 71.1092V76.3938H110.192V71.1092H110.142ZM110.167 76.3684H105.339V76.4192H110.167V76.3684ZM105.339 76.3684C104.733 76.3684 104.162 76.2551 103.625 76.0281L103.605 76.075C104.149 76.3045 104.727 76.4192 105.339 76.4192V76.3684ZM103.625 76.0283C103.088 75.7934 102.619 75.4794 102.218 75.086L102.182 75.1223C102.588 75.5203 103.062 75.8376 103.605 76.0747L103.625 76.0283ZM102.218 75.0863C101.825 74.6853 101.511 74.2163 101.276 73.6786L101.229 73.6989C101.466 74.2419 101.784 74.7162 102.182 75.1218L102.218 75.0863ZM101.276 73.6788C101.049 73.1419 100.936 72.5709 100.936 71.9652H100.885C100.885 72.5772 100.999 73.1553 101.229 73.6986L101.276 73.6788ZM100.936 71.9652C100.936 71.3598 101.049 70.7926 101.276 70.2633L101.229 70.2432C100.999 70.7792 100.885 71.3534 100.885 71.9652H100.936ZM101.276 70.2633C101.511 69.7258 101.825 69.2606 102.218 68.8672L102.182 68.8314C101.784 69.2294 101.466 69.7002 101.229 70.243L101.276 70.2633ZM102.218 68.8672C102.619 68.4662 103.088 68.1524 103.625 67.9254L103.605 67.8785C103.062 68.1081 102.588 68.4256 102.182 68.8314L102.218 68.8672ZM103.625 67.9252C104.162 67.6908 104.733 67.5734 105.339 67.5734V67.5226C104.727 67.5226 104.149 67.6413 103.605 67.8788L103.625 67.9252ZM105.339 67.5734H109.299V67.5226H105.339V67.5734ZM109.274 67.548V69.2601H109.325V67.548H109.274ZM109.299 69.2347H105.339V69.2855H109.299V69.2347ZM105.339 69.2347C104.963 69.2347 104.605 69.3078 104.267 69.4539L104.287 69.5003C104.619 69.3572 104.969 69.2855 105.339 69.2855V69.2347ZM104.267 69.4536C103.937 69.5919 103.649 69.7879 103.403 70.0416L103.44 70.0768C103.68 69.8283 103.963 69.6363 104.287 69.5006L104.267 69.4536ZM103.403 70.0413C103.157 70.2871 102.962 70.575 102.816 70.905L102.862 70.9255C103.006 70.6011 103.198 70.3183 103.439 70.0771L103.403 70.0413ZM102.816 70.905C102.67 71.2355 102.597 71.589 102.597 71.9652H102.648C102.648 71.5959 102.719 71.2494 102.862 70.9255L102.816 70.905ZM102.597 71.9652C102.597 72.3416 102.67 72.6987 102.816 73.0368L102.862 73.0168C102.719 72.6853 102.648 72.3348 102.648 71.9652H102.597ZM102.816 73.0371C102.962 73.3671 103.157 73.655 103.403 73.9008L103.439 73.865C103.198 73.6238 103.006 73.341 102.862 73.0166L102.816 73.0371ZM103.403 73.9008C103.649 74.1465 103.937 74.3423 104.267 74.4882L104.287 74.4418C103.963 74.2985 103.68 74.1062 103.439 73.865L103.403 73.9008ZM104.267 74.4882C104.605 74.6343 104.963 74.7071 105.339 74.7071V74.6564C104.969 74.6564 104.619 74.5848 104.287 74.4418L104.267 74.4882ZM105.339 74.7071H108.443V74.6564H105.339V74.7071ZM108.469 74.6817V72.8327H108.418V74.6817H108.469ZM108.443 72.8073H105.533V72.858H108.443V72.8073ZM105.558 72.8327V71.1092H105.507V72.8327H105.558ZM105.533 71.1345H110.167V71.0838H105.533V71.1345Z"
                        fill="white"></path>
                </g>
            </g>
        </g>
        <defs>
            <clipPath id="SvgjsClipPath1057">
                <rect width="120" height="120" rx="16" fill="white"></rect>
            </clipPath>
        </defs>
    </svg>
    <style>@media (prefers-color-scheme: light) { :root { filter: none; } }
        @media (prefers-color-scheme: dark) { :root { filter: none; } }
    </style>
</svg>