<svg width="39" height="36" viewBox="0 0 39 36" fill="none" xmlns="http://www.w3.org/2000/svg">
    <path
        d="M0.85 15.7523C0.85 21.0946 4.29178 25.8266 9.4643 28.2373C8.71351 29.6217 7.40091 31.4354 6.68445 32.3602L6.68413 32.3606C6.22077 32.963 6.11484 33.6597 6.37901 34.2164C6.64489 34.7766 7.2637 35.15 8.15487 35.15C9.30305 35.15 11.0229 34.5851 12.8585 33.7385C14.6861 32.8955 16.651 31.7624 18.3229 30.5908C29.8315 30.8803 38.5399 24.3648 38.5399 15.7523C38.5399 7.47519 30.1292 0.85 19.695 0.85C9.26087 0.85 0.85 7.47518 0.85 15.7523ZM11.9435 26.0839L11.9431 26.0837C6.79874 23.7289 3.88665 19.9903 3.88665 15.7523C3.88665 12.482 5.62421 9.50431 8.47434 7.33925C11.3246 5.17408 15.2815 3.82781 19.695 3.82781C24.1167 3.82781 28.0778 5.17412 30.9301 7.33928C33.7823 9.50434 35.5198 12.4821 35.5198 15.7523C35.5198 19.0142 33.7824 21.9879 30.9302 24.151C28.0778 26.3142 24.1167 27.6605 19.695 27.6605C19.4525 27.6605 19.1113 27.6516 18.6816 27.6404C18.5312 27.6365 18.37 27.6323 18.1984 27.6281V27.6281H18.1947C17.4629 27.6281 16.9043 27.8543 16.2588 28.3555C14.3212 29.7353 11.5642 31.42 10.0309 32.083C10.9436 30.9679 12.1785 29.3747 12.7214 28.369C12.9619 27.9292 13.0664 27.489 12.9479 27.0828C12.8284 26.6737 12.4942 26.338 11.9435 26.0839Z"
        fill="white" stroke="white" stroke-width="0.3" />
    <path
        d="M27.394 18.4015C28.7934 18.4015 29.9344 17.2816 29.9344 15.8983C29.9344 14.5149 28.7934 13.395 27.394 13.395C25.9944 13.395 24.8535 14.5149 24.8535 15.8983C24.8535 17.2816 25.9944 18.4015 27.394 18.4015Z"
        fill="white" stroke="white" stroke-width="0.3" />
    <path
        d="M19.695 18.4015C21.0946 18.4015 22.2354 17.2816 22.2354 15.8983C22.2354 14.5149 21.0946 13.395 19.695 13.395C18.2956 13.395 17.1546 14.5149 17.1546 15.8983C17.1546 17.2816 18.2956 18.4015 19.695 18.4015Z"
        fill="white" stroke="white" stroke-width="0.3" />
    <path
        d="M12.0125 18.4015C13.3962 18.4015 14.5365 17.281 14.5365 15.8983C14.5365 14.5149 13.379 13.395 12.0125 13.395C10.613 13.395 9.47207 14.5149 9.47207 15.8983C9.47207 17.2816 10.613 18.4015 12.0125 18.4015Z"
        fill="white" stroke="white" stroke-width="0.3" />
</svg>
