<svg width="24" height="24" viewBox="0 0 24 24" fill="none" xmlns="http://www.w3.org/2000/svg">
    <path
        d="M12 23.05C18.0453 23.05 23.05 18.0344 23.05 12C23.05 5.95467 18.0344 0.95 11.9892 0.95C5.9547 0.95 0.95 5.95477 0.95 12C0.95 18.0345 5.96551 23.05 12 23.05ZM12 21.1166C6.93749 21.1166 2.89411 17.0626 2.89411 12C2.89411 6.93725 6.92678 2.88333 11.9892 2.88333C17.0518 2.88333 21.1166 6.93749 21.1166 12C21.1166 17.0625 17.0625 21.1166 12 21.1166Z"
        fill="white" stroke="white" stroke-width="0.1" />
    <path
        d="M10.1127 18.0892H14.502C14.9699 18.0892 15.3392 17.7451 15.3392 17.2735C15.3392 16.8235 14.9699 16.4686 14.502 16.4686H13.2147V11.0294C13.2147 10.7305 13.14 10.4752 12.9888 10.2937C12.8365 10.1109 12.6113 10.0088 12.3235 10.0088H10.2961C9.82815 10.0088 9.45882 10.3637 9.45882 10.8137C9.45882 11.2853 9.82815 11.6294 10.2961 11.6294H11.4V16.4686H10.1127C9.64481 16.4686 9.27548 16.8235 9.27548 17.2735C9.27548 17.7451 9.64481 18.0892 10.1127 18.0892ZM11.9029 8.31861C12.7183 8.31861 13.3549 7.67023 13.3549 6.85587C13.3549 6.0415 12.7183 5.39313 11.9029 5.39313C11.0986 5.39313 10.451 6.04125 10.451 6.85587C10.451 7.67048 11.0986 8.31861 11.9029 8.31861Z"
        fill="white" stroke="white" stroke-width="0.1" />
</svg>
