<svg width="5000" height="5000" viewBox="0 0 5000 5000" fill="none"
    xmlns="http://www.w3.org/2000/svg">
    <g clip-path="url(#clip0_230_959)">
        <mask id="mask0_230_959" style="mask-type:luminance" maskUnits="userSpaceOnUse" x="384"
            y="1786" width="4232" height="904">
            <path d="M384.5 1786.5H4615.5V2688.79H384.5V1786.5Z" fill="white" stroke="white" />
        </mask>
        <g mask="url(#mask0_230_959)">
            <mask id="path-2-outside-1_230_959" maskUnits="userSpaceOnUse" x="381.117" y="1781.99"
                width="4238" height="912" fill="black">
                <rect fill="white" x="381.117" y="1781.99" width="4238" height="912" />
                <path
                    d="M4600.49 2251.65L4574.46 2253.4C4571.55 2253.56 4568.68 2253.69 4565.78 2253.82L4548.42 2254.63C4542.64 2254.82 4536.87 2254.91 4531.09 2255.08C4519.54 2255.5 4507.95 2255.36 4496.44 2255.47C4493.56 2255.5 4490.67 2255.43 4487.79 2255.36L4470.49 2255.08L4466.18 2254.98L4461.86 2254.82C4450.36 2254.3 4438.85 2254.01 4427.4 2253.14C4421.65 2252.75 4415.9 2252.46 4410.19 2251.98L4393.06 2250.49C4390.19 2250.24 4387.36 2250.04 4384.48 2249.71L4375.97 2248.75L4358.9 2246.81L4341.9 2244.52L4333.41 2243.36L4324.96 2241.97L4308.05 2239.22L4291.27 2236.06L4282.85 2234.48C4280.07 2233.96 4277.29 2233.29 4274.52 2232.7L4257.84 2229.09C4255.07 2228.54 4252.32 2227.8 4249.55 2227.12L4241.29 2225.09C4235.8 2223.73 4230.19 2222.47 4224.9 2220.92L4208.87 2216.5L4204.86 2215.4L4200.64 2214.11L4192.15 2211.53L4179.47 2207.65L4175.95 2206.42L4159.79 2200.88L4143.63 2195.36C4140.92 2194.48 4138.27 2193.46 4135.6 2192.42L4127.59 2189.35L4111.59 2183.28L4103.58 2180.21C4100.91 2179.22 4098.26 2178.05 4095.62 2176.96L4063.87 2163.79L4032.35 2149.74C4027.09 2147.48 4021.86 2144.96 4016.64 2142.51L4000.95 2135.12L3993.11 2131.43L3989.21 2129.6L3985.3 2127.66L3969.65 2120.01L3954.04 2112.36C3948.84 2109.78 3943.65 2107.1 3938.46 2104.49L3922.84 2096.61C3917.65 2094 3912.45 2091.38 3907.26 2088.66L3876.06 2072.55L3813.31 2039.99L3781.68 2023.75L3765.81 2015.61L3749.84 2007.58L3733.8 1999.6L3725.8 1995.6L3717.7 1991.69L3685.24 1976.1L3652.37 1961.06C3646.94 1958.51 3641.2 1956.12 3635.59 1953.67L3618.58 1946.37L3610.1 1942.76L3605.84 1940.95L3601.75 1939.3L3585.32 1932.78L3568.86 1926.26L3566.8 1925.45L3564.03 1924.42L3559.79 1922.83L3551.35 1919.74L3534.41 1913.51L3525.96 1910.38C3523.14 1909.38 3520.28 1908.4 3517.43 1907.41L3483.36 1895.59L3449.03 1884.45C3446.17 1883.52 3443.32 1882.58 3440.42 1881.68L3431.81 1879.06L3414.51 1873.83C3408.77 1872.09 3402.99 1870.32 3397.22 1868.64L3379.83 1863.76C3368.24 1860.51 3356.67 1857.18 3344.98 1854.24L3318.75 1847.47L3314.37 1846.33L3309.98 1845.27L3274.81 1836.94C3180.75 1815.76 3085.25 1800.56 2989.04 1792.84L2971 1791.36L2966.49 1791L2961.91 1790.75L2934.52 1789.1C2928.45 1788.74 2922.26 1788.32 2916.44 1788.16L2881.08 1786.87L2878.37 1786.78L2876.12 1786.75L2871.63 1786.64L2862.63 1786.52L2844.66 1786.19C2832.68 1785.91 2820.69 1786 2808.68 1786C2796.68 1786.03 2784.67 1785.91 2772.68 1786.25L2736.7 1786.97L2700.69 1788.35L2691.69 1788.71C2688.69 1788.84 2685.69 1789.07 2682.68 1789.22L2664.68 1790.33L2646.71 1791.39C2643.71 1791.56 2640.71 1791.78 2637.71 1792.04L2628.71 1792.77C2616.74 1793.78 2604.77 1794.65 2592.76 1795.75L2556.89 1799.53L2547.91 1800.46L2538.95 1801.63L2503.14 1806.27C2497.17 1807.11 2491.23 1808.07 2485.26 1808.98L2467.42 1811.79L2458.48 1813.18L2454.03 1813.89L2449.58 1814.73L2413.99 1821.29C2408.06 1822.28 2402.18 1823.61 2396.28 1824.87L2378.56 1828.65L2360.89 1832.45L2343.29 1836.77L2325.68 1841.1L2316.91 1843.26C2313.97 1843.98 2311.06 1844.85 2308.16 1845.66L2273.25 1855.37L2268.9 1856.63L2255.89 1860.7L2238.6 1866.12L2229.95 1868.87C2227.08 1869.8 2224.18 1870.61 2221.31 1871.67L2203.95 1877.8L2186.62 1883.94L2177.97 1887L2169.74 1890.24L2136.84 1903.21L2134.19 1904.25L2132.12 1905.15L2127.93 1906.96L2119.6 1910.57L2102.92 1917.84C2097.31 1920.16 2091.89 1922.8 2086.4 1925.35L2070.05 1933.1C2059.04 1938.1 2048.4 1943.72 2037.65 1949.09C2032.3 1951.83 2026.88 1954.44 2021.56 1957.25L2005.71 1965.68C1963.38 1988.11 1922.21 2011.94 1881.36 2035.6C1840.51 2059.32 1800.06 2082.85 1759.09 2104.97C1748.88 2110.65 1738.57 2115.88 1728.27 2121.3C1723.1 2123.95 1718.01 2126.73 1712.82 2129.27L1697.26 2136.96L1681.68 2144.61C1676.48 2147.09 1671.22 2149.42 1665.96 2151.84L1650.25 2159.04C1644.99 2161.52 1639.77 2163.53 1634.54 2165.78L1618.83 2172.34L1610.99 2175.6C1608.28 2176.66 1605.48 2177.66 1602.73 2178.7L1586.14 2184.9L1577.88 2187.96L1573.73 2189.52C1572.95 2189.8 1573.66 2189.55 1573.21 2189.71L1572.2 2190.03L1570.18 2190.7C1548.88 2198.1 1526.84 2204.14 1504.55 2209.52C1459.9 2220.31 1413.88 2227.96 1367.46 2235.28C1344.26 2238.97 1320.9 2242.52 1297.47 2246.36L1288.66 2247.78L1279.83 2249.3C1273.95 2250.3 1267.95 2251.27 1262.21 2252.33L1227.4 2258.72C1181.23 2267.11 1134.73 2274.86 1088.21 2282.94C995.121 2299.08 901.685 2316.31 809.856 2341.53C763.977 2354.18 718.488 2368.77 674.215 2386.85C652.09 2395.88 630.279 2405.79 608.983 2416.77L604.983 2418.81L601.016 2420.94L593.102 2425.23C587.843 2428.1 582.69 2431.17 577.463 2434.11C572.33 2437.24 567.166 2440.27 562.097 2443.5C557.069 2446.79 551.968 2449.95 547.035 2453.41L539.614 2458.51L532.319 2463.8C527.418 2467.29 522.705 2471.04 517.929 2474.75C515.547 2476.55 513.248 2478.5 510.928 2480.43L503.991 2486.2L497.252 2492.21C494.985 2494.22 492.728 2496.18 490.566 2498.31L484.017 2504.54L482.411 2506.09L477.667 2510.97C475.599 2513.13 473.437 2515.26 471.4 2517.49L465.334 2524.2C464.336 2525.33 463.308 2526.43 462.342 2527.56L459.435 2531.04L453.662 2537.99L448.141 2545.16C446.304 2547.54 444.436 2549.93 442.757 2552.42L437.561 2559.81C436.659 2561.04 435.85 2562.3 435.042 2563.59L432.586 2567.39L430.172 2571.2C429.332 2572.46 428.524 2573.72 427.779 2575.05L423.234 2582.86C422.489 2584.15 421.681 2585.44 421.009 2586.77L414.711 2598.77L410.88 2606.94C409.621 2609.65 408.298 2612.37 407.196 2615.17L403.743 2623.5L402.903 2625.6L402.137 2627.7L400.584 2631.95C399.587 2634.77 398.516 2637.57 397.582 2640.42L394.905 2649.04L393.551 2653.32C393.132 2654.75 392.775 2656.23 392.386 2657.68L390.098 2666.43L389.521 2668.62C389.322 2669.34 389.196 2670.08 389.038 2670.79L386.225 2683.77C385.679 2686.32 387.254 2688.84 389.773 2689.51C392.386 2690.19 395.031 2688.61 395.713 2685.99L397.907 2677.41L398.999 2673.15C399.198 2672.44 399.355 2671.69 399.555 2671.02L400.195 2668.92L402.714 2660.65C403.134 2659.3 403.491 2657.91 403.974 2656.56L405.422 2652.42L408.33 2644.23C409.358 2641.54 410.492 2638.86 411.552 2636.15L413.2 2632.15L414.008 2630.15L414.911 2628.18L418.521 2620.28C419.686 2617.63 421.041 2615.08 422.363 2612.49L426.33 2604.78L430.623 2597.26L432.754 2593.51C433.457 2592.25 434.266 2591.06 435.042 2589.83L439.66 2582.5C440.395 2581.24 441.235 2580.09 442.043 2578.89L444.531 2575.34L446.976 2571.79C447.784 2570.59 448.624 2569.4 449.495 2568.26L454.722 2561.36C456.433 2559.03 458.301 2556.84 460.149 2554.61L465.628 2547.96L471.4 2541.5L474.308 2538.31C475.273 2537.24 476.312 2536.21 477.278 2535.18L483.313 2528.94C485.308 2526.92 487.438 2524.94 489.537 2522.95L492.634 2519.94L494.219 2518.45L495.825 2517.04L502.28 2511.26C504.41 2509.32 506.667 2507.51 508.892 2505.67L515.547 2500.15L522.411 2494.86C524.678 2493.08 526.966 2491.31 529.317 2489.63C533.999 2486.24 538.649 2482.82 543.487 2479.65L550.645 2474.81L558.003 2470.17C562.81 2467 567.88 2464.13 572.813 2461.13C575.3 2459.65 577.841 2458.25 580.36 2456.83L587.906 2452.57C593.07 2449.89 598.14 2447.12 603.304 2444.5L611.113 2440.63L614.986 2438.7L618.922 2436.82C639.893 2426.87 661.347 2417.97 683.189 2409.86C726.811 2393.69 771.755 2380.87 817.182 2369.96C862.609 2359.05 908.623 2350.12 954.827 2342.17C1001.06 2334.23 1047.52 2327.35 1094.14 2320.73C1140.76 2314.12 1187.54 2307.8 1234.4 2300.62L1269.37 2295.27C1275.21 2294.36 1280.89 2293.62 1286.67 2292.78L1295.28 2291.58L1303.99 2290.43C1327.23 2287.33 1350.58 2284.45 1374.04 2281.45C1397.53 2278.44 1421.08 2275.28 1444.7 2271.7C1468.31 2268.09 1491.99 2263.89 1515.68 2258.88C1539.36 2253.88 1563.04 2248.11 1586.5 2240.68L1588.72 2240L1589.83 2239.67C1590.08 2239.61 1591.51 2239.13 1591.4 2239.16L1595.57 2237.74L1603.95 2234.86L1620.69 2229.15C1623.48 2228.22 1626.25 2227.28 1629.06 2226.28L1637.64 2222.99L1654.78 2216.4C1666.35 2212.14 1677.29 2207.3 1688.43 2202.62C1693.97 2200.26 1699.55 2197.94 1705.04 2195.51L1721.43 2188.03L1737.82 2180.51C1743.27 2177.99 1748.6 2175.28 1753.98 2172.66C1764.73 2167.4 1775.61 2162.24 1786.15 2156.71C1828.78 2135.09 1870.43 2112.23 1911.76 2089.64C1953.09 2067.01 1994.26 2044.77 2035.75 2023.91L2051.31 2016.1C2056.5 2013.51 2061.73 2011.1 2066.96 2008.61C2077.41 2003.71 2087.76 1998.54 2098.35 1993.98L2114.12 1987.01C2119.38 1984.66 2124.61 1982.27 2129.93 1980.2L2145.87 1973.71L2153.81 1970.49L2157.81 1968.87L2159.77 1968.03C2159.82 1968.03 2159.84 1968.02 2159.84 1968C2159.84 1968.03 2159.88 1968.03 2160.22 1967.87L2161.26 1967.49L2194.46 1955.31L2202.78 1952.25L2210.86 1949.6L2227.02 1944.34L2243.15 1939.05C2245.8 1938.1 2248.63 1937.4 2251.37 1936.56L2259.63 1934.17L2284.44 1926.94L2288.61 1925.71L2292.77 1924.65L2326.2 1916.06C2328.97 1915.38 2331.75 1914.57 2334.55 1913.96L2342.97 1912.09L2359.82 1908.31L2376.66 1904.57L2393.63 1901.31L2410.56 1898.02C2416.21 1896.95 2421.86 1895.78 2427.57 1894.94L2461.68 1889.4L2465.96 1888.68L2470.22 1888.11L2478.81 1886.94L2495.94 1884.65C2501.68 1883.87 2507.36 1883.03 2513.11 1882.36L2530.3 1880.51L2547.53 1878.64L2556.11 1877.71L2564.76 1877L2599.28 1874.13C2610.81 1873.35 2622.35 1872.77 2633.91 1872.06L2642.55 1871.55C2645.42 1871.38 2648.33 1871.22 2651.2 1871.13L2685.89 1869.96C2688.78 1869.9 2691.66 1869.77 2694.57 1869.71L2737.96 1869.22L2772.68 1869.57C2784.25 1869.6 2795.84 1870.05 2807.42 1870.41C2819.01 1870.77 2830.58 1871.06 2842.17 1871.73L2876.41 1873.48L2911.7 1876.03C2917.67 1876.39 2923.22 1877 2928.93 1877.52L2945.9 1879.13L2954.42 1879.94L2958.65 1880.36L2962.94 1880.84L2980.1 1882.88C3071.64 1893.43 3162.33 1911.13 3251.83 1933.32C3296.55 1944.56 3340.98 1957.12 3385.12 1970.68L3401.64 1975.81L3409.9 1978.4L3418.16 1981.08L3451.07 1991.86L3483.85 2003.15C3486.55 2004.09 3489.3 2005 3492.04 2005.96L3500.18 2008.9L3516.5 2014.81L3524.67 2017.71L3528.73 2019.2L3529.77 2019.55C3529.8 2019.58 3531.09 2020.07 3530.11 2019.68L3532.18 2020.46L3548.67 2026.82L3569.32 2034.73L3573.25 2036.33L3581.06 2039.57L3596.68 2045.99C3601.87 2048.12 3607.07 2050.18 3612.39 2052.55L3644.08 2066.33L3675.76 2080.63L3683.69 2084.21L3691.6 2087.9L3723.28 2102.68L3739.16 2110.2L3770.94 2125.3C3855.73 2165.82 3942.13 2207.36 4032.8 2241.38C4078.23 2258.24 4124.69 2272.93 4172.25 2284.65L4180.86 2286.74L4185.15 2287.78L4189.74 2288.75L4208.09 2292.62C4214.22 2293.98 4220.2 2294.91 4226.25 2296.01L4235.29 2297.62C4238.29 2298.13 4241.29 2298.75 4244.33 2299.17L4262.45 2301.88C4265.49 2302.3 4268.49 2302.82 4271.52 2303.17L4280.62 2304.23L4298.79 2306.4L4316.98 2308.05L4326.08 2308.86L4353.38 2310.6C4359.45 2310.89 4365.51 2311.05 4371.58 2311.28L4380.68 2311.6C4383.7 2311.73 4386.74 2311.7 4389.77 2311.76L4407.97 2311.92C4414.04 2311.98 4420.07 2311.76 4426.14 2311.7C4438.23 2311.63 4450.33 2311.02 4462.4 2310.54L4466.91 2310.34L4471.44 2310.05L4489.5 2308.82C4492.5 2308.62 4495.54 2308.44 4498.54 2308.14C4510.54 2307.02 4522.54 2306.08 4534.51 2304.59C4538.09 2304.17 4541.65 2303.75 4545.23 2303.33C4542.94 2306.5 4540.58 2309.63 4538.48 2312.92C4531.44 2323.8 4525.35 2335.33 4520.51 2347.43C4515.67 2359.54 4512.15 2372.19 4510.15 2385.07C4509.15 2391.52 4508.61 2398.01 4508.37 2404.5C4508.15 2410.99 4508.41 2417.45 4509.02 2423.88C4509.63 2430.26 4510.6 2436.63 4512 2442.85C4512.6 2445.95 4513.48 2449.02 4514.22 2452.08C4515.15 2455.12 4515.96 2458.19 4517.05 2461.16C4518.7 2466.16 4520.67 2471.01 4522.73 2475.79C4519.42 2473.13 4516.03 2470.48 4512.54 2467.97C4510.22 2466.29 4507.92 2464.64 4505.6 2462.96C4503.28 2461.32 4500.92 2459.71 4498.57 2458.09L4495.05 2455.63C4493.86 2454.79 4492.69 2454 4491.51 2453.19L4484.4 2448.38L4480.85 2445.95L4477.24 2443.63C4474.85 2442.08 4472.47 2440.53 4470.04 2438.98C4465.24 2435.94 4460.4 2433.01 4455.62 2430.11C4449.55 2426.52 4443.53 2423.13 4437.53 2419.87C4430.88 2414.57 4424.04 2409.28 4416.81 2404.05C4406.55 2396.6 4395.77 2389.11 4384.45 2381.71C4381.58 2379.88 4378.71 2378.04 4375.83 2376.19C4372.93 2374.38 4369.96 2372.58 4367.02 2370.74C4364.02 2368.97 4361.02 2367.16 4357.99 2365.34C4354.92 2363.6 4351.83 2361.82 4348.73 2360.05C4323.82 2345.98 4296.69 2332.61 4267.49 2320.87C4252.87 2314.96 4237.81 2309.4 4222.25 2304.2C4206.74 2299.01 4190.76 2294.27 4174.41 2289.84C4141.69 2281.06 4107.43 2273.93 4072.06 2268.12C4054.41 2265.21 4036.44 2262.66 4018.28 2260.37C4000.08 2258.11 3981.66 2256.14 3963.04 2254.4C3953.72 2253.52 3944.36 2252.75 3934.98 2252.01C3930.2 2251.65 3925.42 2251.3 3920.62 2250.94C3915.94 2250.63 3911.22 2250.33 3906.54 2250.04L3899.45 2249.59C3897.03 2249.49 3894.58 2249.37 3892.15 2249.26C3887.28 2249.04 3882.41 2248.81 3877.51 2248.62C3867.83 2248.36 3858.08 2247.94 3848.28 2247.87C3828.72 2247.49 3808.98 2247.72 3789.1 2248.26C3784.14 2248.43 3779.16 2248.59 3774.2 2248.71C3769.2 2248.95 3764.23 2249.17 3759.23 2249.4C3754.22 2249.62 3749.23 2249.94 3744.22 2250.24C3739.22 2250.52 3734.22 2250.81 3729.19 2251.2C3689.09 2253.98 3648.65 2258.37 3608.27 2263.92C3527.44 2274.96 3446.77 2290.33 3366.53 2302.88C3346.43 2305.98 3326.46 2308.89 3306.36 2311.63C3286.13 2314.32 3265.94 2316.99 3245.76 2319.67C3225.6 2322.29 3205.47 2324.87 3185.4 2327.29C3165.37 2329.77 3145.36 2332.16 3125.42 2334.43C3045.67 2343.56 2967.14 2350.99 2891.02 2355.92C2814.91 2360.89 2741.25 2363.41 2671.39 2363.19C2636.48 2363.05 2602.52 2362.28 2569.69 2360.89C2536.88 2359.47 2505.2 2357.31 2474.84 2354.76C2444.48 2352.11 2415.44 2348.79 2387.85 2345.2C2360.3 2341.56 2334.27 2337.39 2309.8 2333.06C2285.42 2328.7 2262.63 2324 2241.63 2319.38C2236.4 2318.18 2231.27 2316.99 2226.24 2315.86C2221.24 2314.63 2216.33 2313.44 2211.53 2312.28C2206.75 2311.15 2202.07 2309.96 2197.53 2308.79C2192.98 2307.6 2188.49 2306.53 2184.2 2305.34C2175.59 2303.02 2167.39 2300.85 2159.77 2298.63C2155.94 2297.52 2152.19 2296.5 2148.61 2295.46C2145.07 2294.4 2141.61 2293.36 2138.25 2292.36C2131.58 2290.43 2125.48 2288.42 2119.83 2286.68C2114.19 2284.97 2109.12 2283.28 2104.54 2281.8C2099.99 2280.29 2095.92 2279.03 2092.47 2277.83C2089.02 2276.64 2086.08 2275.64 2083.73 2274.86C2079.05 2273.25 2076.6 2272.41 2076.6 2272.41C2076.6 2272.41 2078.92 2273.51 2083.43 2275.61C2087.93 2277.71 2094.6 2280.9 2103.41 2284.74C2107.79 2286.71 2112.74 2288.9 2118.19 2291.2C2123.64 2293.52 2129.57 2296.04 2136.06 2298.63C2139.28 2299.95 2142.67 2301.31 2146.13 2302.69C2149.61 2304.11 2153.26 2305.46 2157 2306.92C2164.45 2309.85 2172.46 2312.73 2180.94 2315.83C2214.82 2328.06 2256.57 2341.43 2305.35 2353.76C2329.71 2360.02 2355.82 2365.9 2383.53 2371.41C2411.21 2377 2440.48 2381.98 2471.16 2386.43C2532.5 2395.3 2599.45 2401.7 2670.39 2404.95C2741.31 2408.19 2816.24 2408.28 2893.54 2405.41C2970.84 2402.57 3050.54 2396.79 3131.2 2388.81C3151.36 2386.82 3171.59 2384.69 3191.86 2382.46C3212.11 2380.19 3232.41 2377.81 3252.73 2375.38C3262.9 2374.13 3273.06 2372.87 3283.26 2371.61C3293.43 2370.32 3303.59 2369.03 3313.75 2367.71L3329.1 2365.67C3334.24 2365 3339.37 2364.31 3344.5 2363.57C3354.76 2362.15 3364.99 2360.61 3375.18 2359.05C3456.91 2346.56 3537.19 2330.91 3616.1 2319.5C3635.82 2316.61 3655.47 2313.99 3675.02 2311.7C3694.56 2309.4 3714.02 2307.34 3733.38 2305.76C3772.07 2302.49 3810.34 2300.72 3848.02 2300.56C3857.44 2300.43 3866.79 2300.62 3876.16 2300.65C3880.76 2300.75 3885.38 2300.89 3889.96 2300.98C3892.29 2301.04 3894.58 2301.07 3896.86 2301.14C3899.23 2301.2 3901.58 2301.3 3903.93 2301.4C3908.64 2301.56 3913.35 2301.76 3918.04 2301.95C3922.61 2302.15 3927.17 2302.33 3931.71 2302.57C3936.33 2302.79 3940.94 2303.05 3945.52 2303.27C3950.1 2303.53 3954.69 2303.78 3959.23 2304.05C3977.5 2305.11 3995.5 2306.43 4013.21 2307.98C4030.96 2309.5 4048.42 2311.34 4065.61 2313.4C4082.77 2315.47 4099.65 2317.9 4116.2 2320.61C4132.75 2323.28 4148.95 2326.35 4164.76 2329.74C4196.44 2336.55 4226.64 2344.69 4255.07 2354.27C4283.47 2363.89 4310.15 2374.77 4334.9 2386.59C4347.25 2392.53 4359.15 2398.66 4370.57 2404.89C4382 2411.15 4392.91 2417.58 4403.36 2424.04C4413.81 2430.49 4423.84 2436.95 4433.33 2443.46C4442.88 2449.92 4451.95 2456.38 4460.53 2462.78C4469.14 2469.1 4477.27 2475.37 4485.02 2481.47C4491.73 2486.79 4498.09 2491.96 4504.15 2496.99C4505.03 2497.89 4505.93 2498.76 4506.83 2499.67C4510.63 2503.29 4514.22 2507.03 4517.89 2510.55C4525.22 2517.61 4532.35 2524.37 4539.13 2530.79C4542.55 2533.99 4545.74 2537.21 4548.87 2540.31C4550.45 2541.83 4552.06 2543.31 4553.55 2544.83C4555.03 2546.35 4556.52 2547.84 4557.94 2549.29C4563.84 2555.06 4568.97 2560.59 4573.78 2565.36C4575 2566.52 4576.03 2567.78 4577.13 2568.91C4578.23 2570.08 4579.3 2571.2 4580.29 2572.27C4582.36 2574.4 4584.26 2576.34 4585.97 2578.11C4589.3 2581.72 4592.01 2584.6 4593.91 2586.5C4595.82 2588.41 4596.88 2589.41 4596.88 2589.41L4596.94 2589.47C4597.3 2589.8 4597.78 2589.93 4598.29 2589.83C4599.07 2589.63 4599.55 2588.83 4599.36 2588.06C4599.36 2588.06 4599.04 2586.64 4598.26 2584.02C4597.56 2581.38 4596.36 2577.57 4594.68 2572.72C4593.81 2570.33 4592.72 2567.78 4591.56 2564.94C4590.3 2562.13 4589.07 2559 4587.49 2555.87C4585.91 2552.71 4584.13 2549.38 4582.27 2545.86C4580.42 2542.31 4578.16 2538.83 4575.87 2535.11C4574.71 2533.24 4573.55 2531.37 4572.3 2529.47C4571.04 2527.59 4569.68 2525.72 4568.33 2523.79C4565.51 2520.01 4562.78 2515.97 4559.55 2512.19C4557.42 2509.49 4555.06 2506.84 4552.71 2504.16C4550.22 2499.03 4547.84 2493.89 4545.74 2488.66C4545.23 2487.31 4544.64 2485.98 4544.16 2484.66L4542.68 2480.6L4541.96 2478.59L4541.29 2476.55L4539.97 2472.49C4538.35 2467.03 4536.84 2461.58 4535.8 2456.02C4535.19 2453.28 4534.84 2450.51 4534.35 2447.76C4534 2444.99 4533.58 2442.24 4533.39 2439.46C4532.83 2433.95 4532.67 2428.42 4532.83 2422.93C4532.86 2420.19 4533.09 2417.48 4533.28 2414.77C4533.58 2412.06 4533.84 2409.34 4534.26 2406.67C4535.06 2401.28 4536.16 2395.99 4537.57 2390.76C4539 2385.56 4540.73 2380.45 4542.77 2375.46C4544.77 2370.45 4547.09 2365.57 4549.61 2360.8C4554.67 2351.24 4560.74 2342.23 4567.58 2333.74C4574.39 2325.29 4582 2317.41 4590.08 2310.08C4594.14 2306.43 4598.29 2302.94 4602.59 2299.66C4604.72 2298.04 4606.88 2296.43 4609.04 2294.91C4610.14 2294.13 4611.2 2293.43 4612.27 2292.72L4613.85 2291.69L4614.59 2291.23C4614.78 2291.1 4615.14 2290.91 4615.11 2290.94L4600.49 2251.65Z" />
            </mask>
            <path
                d="M4600.49 2251.65L4574.46 2253.4C4571.55 2253.56 4568.68 2253.69 4565.78 2253.82L4548.42 2254.63C4542.64 2254.82 4536.87 2254.91 4531.09 2255.08C4519.54 2255.5 4507.95 2255.36 4496.44 2255.47C4493.56 2255.5 4490.67 2255.43 4487.79 2255.36L4470.49 2255.08L4466.18 2254.98L4461.86 2254.82C4450.36 2254.3 4438.85 2254.01 4427.4 2253.14C4421.65 2252.75 4415.9 2252.46 4410.19 2251.98L4393.06 2250.49C4390.19 2250.24 4387.36 2250.04 4384.48 2249.71L4375.97 2248.75L4358.9 2246.81L4341.9 2244.52L4333.41 2243.36L4324.96 2241.97L4308.05 2239.22L4291.27 2236.06L4282.85 2234.48C4280.07 2233.96 4277.29 2233.29 4274.52 2232.7L4257.84 2229.09C4255.07 2228.54 4252.32 2227.8 4249.55 2227.12L4241.29 2225.09C4235.8 2223.73 4230.19 2222.47 4224.9 2220.92L4208.87 2216.5L4204.86 2215.4L4200.64 2214.11L4192.15 2211.53L4179.47 2207.65L4175.95 2206.42L4159.79 2200.88L4143.63 2195.36C4140.92 2194.48 4138.27 2193.46 4135.6 2192.42L4127.59 2189.35L4111.59 2183.28L4103.58 2180.21C4100.91 2179.22 4098.26 2178.05 4095.62 2176.96L4063.87 2163.79L4032.35 2149.74C4027.09 2147.48 4021.86 2144.96 4016.64 2142.51L4000.95 2135.12L3993.11 2131.43L3989.21 2129.6L3985.3 2127.66L3969.65 2120.01L3954.04 2112.36C3948.84 2109.78 3943.65 2107.1 3938.46 2104.49L3922.84 2096.61C3917.65 2094 3912.45 2091.38 3907.26 2088.66L3876.06 2072.55L3813.31 2039.99L3781.68 2023.75L3765.81 2015.61L3749.84 2007.58L3733.8 1999.6L3725.8 1995.6L3717.7 1991.69L3685.24 1976.1L3652.37 1961.06C3646.94 1958.51 3641.2 1956.12 3635.59 1953.67L3618.58 1946.37L3610.1 1942.76L3605.84 1940.95L3601.75 1939.3L3585.32 1932.78L3568.86 1926.26L3566.8 1925.45L3564.03 1924.42L3559.79 1922.83L3551.35 1919.74L3534.41 1913.51L3525.96 1910.38C3523.14 1909.38 3520.28 1908.4 3517.43 1907.41L3483.36 1895.59L3449.03 1884.45C3446.17 1883.52 3443.32 1882.58 3440.42 1881.68L3431.81 1879.06L3414.51 1873.83C3408.77 1872.09 3402.99 1870.32 3397.22 1868.64L3379.83 1863.76C3368.24 1860.51 3356.67 1857.18 3344.98 1854.24L3318.75 1847.47L3314.37 1846.33L3309.98 1845.27L3274.81 1836.94C3180.75 1815.76 3085.25 1800.56 2989.04 1792.84L2971 1791.36L2966.49 1791L2961.91 1790.75L2934.52 1789.1C2928.45 1788.74 2922.26 1788.32 2916.44 1788.16L2881.08 1786.87L2878.37 1786.78L2876.12 1786.75L2871.63 1786.64L2862.63 1786.52L2844.66 1786.19C2832.68 1785.91 2820.69 1786 2808.68 1786C2796.68 1786.03 2784.67 1785.91 2772.68 1786.25L2736.7 1786.97L2700.69 1788.35L2691.69 1788.71C2688.69 1788.84 2685.69 1789.07 2682.68 1789.22L2664.68 1790.33L2646.71 1791.39C2643.71 1791.56 2640.71 1791.78 2637.71 1792.04L2628.71 1792.77C2616.74 1793.78 2604.77 1794.65 2592.76 1795.75L2556.89 1799.53L2547.91 1800.46L2538.95 1801.63L2503.14 1806.27C2497.17 1807.11 2491.23 1808.07 2485.26 1808.98L2467.42 1811.79L2458.48 1813.18L2454.03 1813.89L2449.58 1814.73L2413.99 1821.29C2408.06 1822.28 2402.18 1823.61 2396.28 1824.87L2378.56 1828.65L2360.89 1832.45L2343.29 1836.77L2325.68 1841.1L2316.91 1843.26C2313.97 1843.98 2311.06 1844.85 2308.16 1845.66L2273.25 1855.37L2268.9 1856.63L2255.89 1860.7L2238.6 1866.12L2229.95 1868.87C2227.08 1869.8 2224.18 1870.61 2221.31 1871.67L2203.95 1877.8L2186.62 1883.94L2177.97 1887L2169.74 1890.24L2136.84 1903.21L2134.19 1904.25L2132.12 1905.15L2127.93 1906.96L2119.6 1910.57L2102.92 1917.84C2097.31 1920.16 2091.89 1922.8 2086.4 1925.35L2070.05 1933.1C2059.04 1938.1 2048.4 1943.72 2037.65 1949.09C2032.3 1951.83 2026.88 1954.44 2021.56 1957.25L2005.71 1965.68C1963.38 1988.11 1922.21 2011.94 1881.36 2035.6C1840.51 2059.32 1800.06 2082.85 1759.09 2104.97C1748.88 2110.65 1738.57 2115.88 1728.27 2121.3C1723.1 2123.95 1718.01 2126.73 1712.82 2129.27L1697.26 2136.96L1681.68 2144.61C1676.48 2147.09 1671.22 2149.42 1665.96 2151.84L1650.25 2159.04C1644.99 2161.52 1639.77 2163.53 1634.54 2165.78L1618.83 2172.34L1610.99 2175.6C1608.28 2176.66 1605.48 2177.66 1602.73 2178.7L1586.14 2184.9L1577.88 2187.96L1573.73 2189.52C1572.95 2189.8 1573.66 2189.55 1573.21 2189.71L1572.2 2190.03L1570.18 2190.7C1548.88 2198.1 1526.84 2204.14 1504.55 2209.52C1459.9 2220.31 1413.88 2227.96 1367.46 2235.28C1344.26 2238.97 1320.9 2242.52 1297.47 2246.36L1288.66 2247.78L1279.83 2249.3C1273.95 2250.3 1267.95 2251.27 1262.21 2252.33L1227.4 2258.72C1181.23 2267.11 1134.73 2274.86 1088.21 2282.94C995.121 2299.08 901.685 2316.31 809.856 2341.53C763.977 2354.18 718.488 2368.77 674.215 2386.85C652.09 2395.88 630.279 2405.79 608.983 2416.77L604.983 2418.81L601.016 2420.94L593.102 2425.23C587.843 2428.1 582.69 2431.17 577.463 2434.11C572.33 2437.24 567.166 2440.27 562.097 2443.5C557.069 2446.79 551.968 2449.95 547.035 2453.41L539.614 2458.51L532.319 2463.8C527.418 2467.29 522.705 2471.04 517.929 2474.75C515.547 2476.55 513.248 2478.5 510.928 2480.43L503.991 2486.2L497.252 2492.21C494.985 2494.22 492.728 2496.18 490.566 2498.31L484.017 2504.54L482.411 2506.09L477.667 2510.97C475.599 2513.13 473.437 2515.26 471.4 2517.49L465.334 2524.2C464.336 2525.33 463.308 2526.43 462.342 2527.56L459.435 2531.04L453.662 2537.99L448.141 2545.16C446.304 2547.54 444.436 2549.93 442.757 2552.42L437.561 2559.81C436.659 2561.04 435.85 2562.3 435.042 2563.59L432.586 2567.39L430.172 2571.2C429.332 2572.46 428.524 2573.72 427.779 2575.05L423.234 2582.86C422.489 2584.15 421.681 2585.44 421.009 2586.77L414.711 2598.77L410.88 2606.94C409.621 2609.65 408.298 2612.37 407.196 2615.17L403.743 2623.5L402.903 2625.6L402.137 2627.7L400.584 2631.95C399.587 2634.77 398.516 2637.57 397.582 2640.42L394.905 2649.04L393.551 2653.32C393.132 2654.75 392.775 2656.23 392.386 2657.68L390.098 2666.43L389.521 2668.62C389.322 2669.34 389.196 2670.08 389.038 2670.79L386.225 2683.77C385.679 2686.32 387.254 2688.84 389.773 2689.51C392.386 2690.19 395.031 2688.61 395.713 2685.99L397.907 2677.41L398.999 2673.15C399.198 2672.44 399.355 2671.69 399.555 2671.02L400.195 2668.92L402.714 2660.65C403.134 2659.3 403.491 2657.91 403.974 2656.56L405.422 2652.42L408.33 2644.23C409.358 2641.54 410.492 2638.86 411.552 2636.15L413.2 2632.15L414.008 2630.15L414.911 2628.18L418.521 2620.28C419.686 2617.63 421.041 2615.08 422.363 2612.49L426.33 2604.78L430.623 2597.26L432.754 2593.51C433.457 2592.25 434.266 2591.06 435.042 2589.83L439.66 2582.5C440.395 2581.24 441.235 2580.09 442.043 2578.89L444.531 2575.34L446.976 2571.79C447.784 2570.59 448.624 2569.4 449.495 2568.26L454.722 2561.36C456.433 2559.03 458.301 2556.84 460.149 2554.61L465.628 2547.96L471.4 2541.5L474.308 2538.31C475.273 2537.24 476.312 2536.21 477.278 2535.18L483.313 2528.94C485.308 2526.92 487.438 2524.94 489.537 2522.95L492.634 2519.94L494.219 2518.45L495.825 2517.04L502.28 2511.26C504.41 2509.32 506.667 2507.51 508.892 2505.67L515.547 2500.15L522.411 2494.86C524.678 2493.08 526.966 2491.31 529.317 2489.63C533.999 2486.24 538.649 2482.82 543.487 2479.65L550.645 2474.81L558.003 2470.17C562.81 2467 567.88 2464.13 572.813 2461.13C575.3 2459.65 577.841 2458.25 580.36 2456.83L587.906 2452.57C593.07 2449.89 598.14 2447.12 603.304 2444.5L611.113 2440.63L614.986 2438.7L618.922 2436.82C639.893 2426.87 661.347 2417.97 683.189 2409.86C726.811 2393.69 771.755 2380.87 817.182 2369.96C862.609 2359.05 908.623 2350.12 954.827 2342.17C1001.06 2334.23 1047.52 2327.35 1094.14 2320.73C1140.76 2314.12 1187.54 2307.8 1234.4 2300.62L1269.37 2295.27C1275.21 2294.36 1280.89 2293.62 1286.67 2292.78L1295.28 2291.58L1303.99 2290.43C1327.23 2287.33 1350.58 2284.45 1374.04 2281.45C1397.53 2278.44 1421.08 2275.28 1444.7 2271.7C1468.31 2268.09 1491.99 2263.89 1515.68 2258.88C1539.36 2253.88 1563.04 2248.11 1586.5 2240.68L1588.72 2240L1589.83 2239.67C1590.08 2239.61 1591.51 2239.13 1591.4 2239.16L1595.57 2237.74L1603.95 2234.86L1620.69 2229.15C1623.48 2228.22 1626.25 2227.28 1629.06 2226.28L1637.64 2222.99L1654.78 2216.4C1666.35 2212.14 1677.29 2207.3 1688.43 2202.62C1693.97 2200.26 1699.55 2197.94 1705.04 2195.51L1721.43 2188.03L1737.82 2180.51C1743.27 2177.99 1748.6 2175.28 1753.98 2172.66C1764.73 2167.4 1775.61 2162.24 1786.15 2156.71C1828.78 2135.09 1870.43 2112.23 1911.76 2089.64C1953.09 2067.01 1994.26 2044.77 2035.75 2023.91L2051.31 2016.1C2056.5 2013.51 2061.73 2011.1 2066.96 2008.61C2077.41 2003.71 2087.76 1998.54 2098.35 1993.98L2114.12 1987.01C2119.38 1984.66 2124.61 1982.27 2129.93 1980.2L2145.87 1973.71L2153.81 1970.49L2157.81 1968.87L2159.77 1968.03C2159.82 1968.03 2159.84 1968.02 2159.84 1968C2159.84 1968.03 2159.88 1968.03 2160.22 1967.87L2161.26 1967.49L2194.46 1955.31L2202.78 1952.25L2210.86 1949.6L2227.02 1944.34L2243.15 1939.05C2245.8 1938.1 2248.63 1937.4 2251.37 1936.56L2259.63 1934.17L2284.44 1926.94L2288.61 1925.71L2292.77 1924.65L2326.2 1916.06C2328.97 1915.38 2331.75 1914.57 2334.55 1913.96L2342.97 1912.09L2359.82 1908.31L2376.66 1904.57L2393.63 1901.31L2410.56 1898.02C2416.21 1896.95 2421.86 1895.78 2427.57 1894.94L2461.68 1889.4L2465.96 1888.68L2470.22 1888.11L2478.81 1886.94L2495.94 1884.65C2501.68 1883.87 2507.36 1883.03 2513.11 1882.36L2530.3 1880.51L2547.53 1878.64L2556.11 1877.71L2564.76 1877L2599.28 1874.13C2610.81 1873.35 2622.35 1872.77 2633.91 1872.06L2642.55 1871.55C2645.42 1871.38 2648.33 1871.22 2651.2 1871.13L2685.89 1869.96C2688.78 1869.9 2691.66 1869.77 2694.57 1869.71L2737.96 1869.22L2772.68 1869.57C2784.25 1869.6 2795.84 1870.05 2807.42 1870.41C2819.01 1870.77 2830.58 1871.06 2842.17 1871.73L2876.41 1873.48L2911.7 1876.03C2917.67 1876.39 2923.22 1877 2928.93 1877.52L2945.9 1879.13L2954.42 1879.94L2958.65 1880.36L2962.94 1880.84L2980.1 1882.88C3071.64 1893.43 3162.33 1911.13 3251.83 1933.32C3296.55 1944.56 3340.98 1957.12 3385.12 1970.68L3401.64 1975.81L3409.9 1978.4L3418.16 1981.08L3451.07 1991.86L3483.85 2003.15C3486.55 2004.09 3489.3 2005 3492.04 2005.96L3500.18 2008.9L3516.5 2014.81L3524.67 2017.71L3528.73 2019.2L3529.77 2019.55C3529.8 2019.58 3531.09 2020.07 3530.11 2019.68L3532.18 2020.46L3548.67 2026.82L3569.32 2034.73L3573.25 2036.33L3581.06 2039.57L3596.68 2045.99C3601.87 2048.12 3607.07 2050.18 3612.39 2052.55L3644.08 2066.33L3675.76 2080.63L3683.69 2084.21L3691.6 2087.9L3723.28 2102.68L3739.16 2110.2L3770.94 2125.3C3855.73 2165.82 3942.13 2207.36 4032.8 2241.38C4078.23 2258.24 4124.69 2272.93 4172.25 2284.65L4180.86 2286.74L4185.15 2287.78L4189.74 2288.75L4208.09 2292.62C4214.22 2293.98 4220.2 2294.91 4226.25 2296.01L4235.29 2297.62C4238.29 2298.13 4241.29 2298.75 4244.33 2299.17L4262.45 2301.88C4265.49 2302.3 4268.49 2302.82 4271.52 2303.17L4280.62 2304.23L4298.79 2306.4L4316.98 2308.05L4326.08 2308.86L4353.38 2310.6C4359.45 2310.89 4365.51 2311.05 4371.58 2311.28L4380.68 2311.6C4383.7 2311.73 4386.74 2311.7 4389.77 2311.76L4407.97 2311.92C4414.04 2311.98 4420.07 2311.76 4426.14 2311.7C4438.23 2311.63 4450.33 2311.02 4462.4 2310.54L4466.91 2310.34L4471.44 2310.05L4489.5 2308.82C4492.5 2308.62 4495.54 2308.44 4498.54 2308.14C4510.54 2307.02 4522.54 2306.08 4534.51 2304.59C4538.09 2304.17 4541.65 2303.75 4545.23 2303.33C4542.94 2306.5 4540.58 2309.63 4538.48 2312.92C4531.44 2323.8 4525.35 2335.33 4520.51 2347.43C4515.67 2359.54 4512.15 2372.19 4510.15 2385.07C4509.15 2391.52 4508.61 2398.01 4508.37 2404.5C4508.15 2410.99 4508.41 2417.45 4509.02 2423.88C4509.63 2430.26 4510.6 2436.63 4512 2442.85C4512.6 2445.95 4513.48 2449.02 4514.22 2452.08C4515.15 2455.12 4515.96 2458.19 4517.05 2461.16C4518.7 2466.16 4520.67 2471.01 4522.73 2475.79C4519.42 2473.13 4516.03 2470.48 4512.54 2467.97C4510.22 2466.29 4507.92 2464.64 4505.6 2462.96C4503.28 2461.32 4500.92 2459.71 4498.57 2458.09L4495.05 2455.63C4493.86 2454.79 4492.69 2454 4491.51 2453.19L4484.4 2448.38L4480.85 2445.95L4477.24 2443.63C4474.85 2442.08 4472.47 2440.53 4470.04 2438.98C4465.24 2435.94 4460.4 2433.01 4455.62 2430.11C4449.55 2426.52 4443.53 2423.13 4437.53 2419.87C4430.88 2414.57 4424.04 2409.28 4416.81 2404.05C4406.55 2396.6 4395.77 2389.11 4384.45 2381.71C4381.58 2379.88 4378.71 2378.04 4375.83 2376.19C4372.93 2374.38 4369.96 2372.58 4367.02 2370.74C4364.02 2368.97 4361.02 2367.16 4357.99 2365.34C4354.92 2363.6 4351.83 2361.82 4348.73 2360.05C4323.82 2345.98 4296.69 2332.61 4267.49 2320.87C4252.87 2314.96 4237.81 2309.4 4222.25 2304.2C4206.74 2299.01 4190.76 2294.27 4174.41 2289.84C4141.69 2281.06 4107.43 2273.93 4072.06 2268.12C4054.41 2265.21 4036.44 2262.66 4018.28 2260.37C4000.08 2258.11 3981.66 2256.14 3963.04 2254.4C3953.72 2253.52 3944.36 2252.75 3934.98 2252.01C3930.2 2251.65 3925.42 2251.3 3920.62 2250.94C3915.94 2250.63 3911.22 2250.33 3906.54 2250.04L3899.45 2249.59C3897.03 2249.49 3894.58 2249.37 3892.15 2249.26C3887.28 2249.04 3882.41 2248.81 3877.51 2248.62C3867.83 2248.36 3858.08 2247.94 3848.28 2247.87C3828.72 2247.49 3808.98 2247.72 3789.1 2248.26C3784.14 2248.43 3779.16 2248.59 3774.2 2248.71C3769.2 2248.95 3764.23 2249.17 3759.23 2249.4C3754.22 2249.62 3749.23 2249.94 3744.22 2250.24C3739.22 2250.52 3734.22 2250.81 3729.19 2251.2C3689.09 2253.98 3648.65 2258.37 3608.27 2263.92C3527.44 2274.96 3446.77 2290.33 3366.53 2302.88C3346.43 2305.98 3326.46 2308.89 3306.36 2311.63C3286.13 2314.32 3265.94 2316.99 3245.76 2319.67C3225.6 2322.29 3205.47 2324.87 3185.4 2327.29C3165.37 2329.77 3145.36 2332.16 3125.42 2334.43C3045.67 2343.56 2967.14 2350.99 2891.02 2355.92C2814.91 2360.89 2741.25 2363.41 2671.39 2363.19C2636.48 2363.05 2602.52 2362.28 2569.69 2360.89C2536.88 2359.47 2505.2 2357.31 2474.84 2354.76C2444.48 2352.11 2415.44 2348.79 2387.85 2345.2C2360.3 2341.56 2334.27 2337.39 2309.8 2333.06C2285.42 2328.7 2262.63 2324 2241.63 2319.38C2236.4 2318.18 2231.27 2316.99 2226.24 2315.86C2221.24 2314.63 2216.33 2313.44 2211.53 2312.28C2206.75 2311.15 2202.07 2309.96 2197.53 2308.79C2192.98 2307.6 2188.49 2306.53 2184.2 2305.34C2175.59 2303.02 2167.39 2300.85 2159.77 2298.63C2155.94 2297.52 2152.19 2296.5 2148.61 2295.46C2145.07 2294.4 2141.61 2293.36 2138.25 2292.36C2131.58 2290.43 2125.48 2288.42 2119.83 2286.68C2114.19 2284.97 2109.12 2283.28 2104.54 2281.8C2099.99 2280.29 2095.92 2279.03 2092.47 2277.83C2089.02 2276.64 2086.08 2275.64 2083.73 2274.86C2079.05 2273.25 2076.6 2272.41 2076.6 2272.41C2076.6 2272.41 2078.92 2273.51 2083.43 2275.61C2087.93 2277.71 2094.6 2280.9 2103.41 2284.74C2107.79 2286.71 2112.74 2288.9 2118.19 2291.2C2123.64 2293.52 2129.57 2296.04 2136.06 2298.63C2139.28 2299.95 2142.67 2301.31 2146.13 2302.69C2149.61 2304.11 2153.26 2305.46 2157 2306.92C2164.45 2309.85 2172.46 2312.73 2180.94 2315.83C2214.82 2328.06 2256.57 2341.43 2305.35 2353.76C2329.71 2360.02 2355.82 2365.9 2383.53 2371.41C2411.21 2377 2440.48 2381.98 2471.16 2386.43C2532.5 2395.3 2599.45 2401.7 2670.39 2404.95C2741.31 2408.19 2816.24 2408.28 2893.54 2405.41C2970.84 2402.57 3050.54 2396.79 3131.2 2388.81C3151.36 2386.82 3171.59 2384.69 3191.86 2382.46C3212.11 2380.19 3232.41 2377.81 3252.73 2375.38C3262.9 2374.13 3273.06 2372.87 3283.26 2371.61C3293.43 2370.32 3303.59 2369.03 3313.75 2367.71L3329.1 2365.67C3334.24 2365 3339.37 2364.31 3344.5 2363.57C3354.76 2362.15 3364.99 2360.61 3375.18 2359.05C3456.91 2346.56 3537.19 2330.91 3616.1 2319.5C3635.82 2316.61 3655.47 2313.99 3675.02 2311.7C3694.56 2309.4 3714.02 2307.34 3733.38 2305.76C3772.07 2302.49 3810.34 2300.72 3848.02 2300.56C3857.44 2300.43 3866.79 2300.62 3876.16 2300.65C3880.76 2300.75 3885.38 2300.89 3889.96 2300.98C3892.29 2301.04 3894.58 2301.07 3896.86 2301.14C3899.23 2301.2 3901.58 2301.3 3903.93 2301.4C3908.64 2301.56 3913.35 2301.76 3918.04 2301.95C3922.61 2302.15 3927.17 2302.33 3931.71 2302.57C3936.33 2302.79 3940.94 2303.05 3945.52 2303.27C3950.1 2303.53 3954.69 2303.78 3959.23 2304.05C3977.5 2305.11 3995.5 2306.43 4013.21 2307.98C4030.96 2309.5 4048.42 2311.34 4065.61 2313.4C4082.77 2315.47 4099.65 2317.9 4116.2 2320.61C4132.75 2323.28 4148.95 2326.35 4164.76 2329.74C4196.44 2336.55 4226.64 2344.69 4255.07 2354.27C4283.47 2363.89 4310.15 2374.77 4334.9 2386.59C4347.25 2392.53 4359.15 2398.66 4370.57 2404.89C4382 2411.15 4392.91 2417.58 4403.36 2424.04C4413.81 2430.49 4423.84 2436.95 4433.33 2443.46C4442.88 2449.92 4451.95 2456.38 4460.53 2462.78C4469.14 2469.1 4477.27 2475.37 4485.02 2481.47C4491.73 2486.79 4498.09 2491.96 4504.15 2496.99C4505.03 2497.89 4505.93 2498.76 4506.83 2499.67C4510.63 2503.29 4514.22 2507.03 4517.89 2510.55C4525.22 2517.61 4532.35 2524.37 4539.13 2530.79C4542.55 2533.99 4545.74 2537.21 4548.87 2540.31C4550.45 2541.83 4552.06 2543.31 4553.55 2544.83C4555.03 2546.35 4556.52 2547.84 4557.94 2549.29C4563.84 2555.06 4568.97 2560.59 4573.78 2565.36C4575 2566.52 4576.03 2567.78 4577.13 2568.91C4578.23 2570.08 4579.3 2571.2 4580.29 2572.27C4582.36 2574.4 4584.26 2576.34 4585.97 2578.11C4589.3 2581.72 4592.01 2584.6 4593.91 2586.5C4595.82 2588.41 4596.88 2589.41 4596.88 2589.41L4596.94 2589.47C4597.3 2589.8 4597.78 2589.93 4598.29 2589.83C4599.07 2589.63 4599.55 2588.83 4599.36 2588.06C4599.36 2588.06 4599.04 2586.64 4598.26 2584.02C4597.56 2581.38 4596.36 2577.57 4594.68 2572.72C4593.81 2570.33 4592.72 2567.78 4591.56 2564.94C4590.3 2562.13 4589.07 2559 4587.49 2555.87C4585.91 2552.71 4584.13 2549.38 4582.27 2545.86C4580.42 2542.31 4578.16 2538.83 4575.87 2535.11C4574.71 2533.24 4573.55 2531.37 4572.3 2529.47C4571.04 2527.59 4569.68 2525.72 4568.33 2523.79C4565.51 2520.01 4562.78 2515.97 4559.55 2512.19C4557.42 2509.49 4555.06 2506.84 4552.71 2504.16C4550.22 2499.03 4547.84 2493.89 4545.74 2488.66C4545.23 2487.31 4544.64 2485.98 4544.16 2484.66L4542.68 2480.6L4541.96 2478.59L4541.29 2476.55L4539.97 2472.49C4538.35 2467.03 4536.84 2461.58 4535.8 2456.02C4535.19 2453.28 4534.84 2450.51 4534.35 2447.76C4534 2444.99 4533.58 2442.24 4533.39 2439.46C4532.83 2433.95 4532.67 2428.42 4532.83 2422.93C4532.86 2420.19 4533.09 2417.48 4533.28 2414.77C4533.58 2412.06 4533.84 2409.34 4534.26 2406.67C4535.06 2401.28 4536.16 2395.99 4537.57 2390.76C4539 2385.56 4540.73 2380.45 4542.77 2375.46C4544.77 2370.45 4547.09 2365.57 4549.61 2360.8C4554.67 2351.24 4560.74 2342.23 4567.58 2333.74C4574.39 2325.29 4582 2317.41 4590.08 2310.08C4594.14 2306.43 4598.29 2302.94 4602.59 2299.66C4604.72 2298.04 4606.88 2296.43 4609.04 2294.91C4610.14 2294.13 4611.2 2293.43 4612.27 2292.72L4613.85 2291.69L4614.59 2291.23C4614.78 2291.1 4615.14 2290.91 4615.11 2290.94L4600.49 2251.65Z"
                fill="white" />
            <path
                d="M4600.49 2251.65L4574.46 2253.4C4571.55 2253.56 4568.68 2253.69 4565.78 2253.82L4548.42 2254.63C4542.64 2254.82 4536.87 2254.91 4531.09 2255.08C4519.54 2255.5 4507.95 2255.36 4496.44 2255.47C4493.56 2255.5 4490.67 2255.43 4487.79 2255.36L4470.49 2255.08L4466.18 2254.98L4461.86 2254.82C4450.36 2254.3 4438.85 2254.01 4427.4 2253.14C4421.65 2252.75 4415.9 2252.46 4410.19 2251.98L4393.06 2250.49C4390.19 2250.24 4387.36 2250.04 4384.48 2249.71L4375.97 2248.75L4358.9 2246.81L4341.9 2244.52L4333.41 2243.36L4324.96 2241.97L4308.05 2239.22L4291.27 2236.06L4282.85 2234.48C4280.07 2233.96 4277.29 2233.29 4274.52 2232.7L4257.84 2229.09C4255.07 2228.54 4252.32 2227.8 4249.55 2227.12L4241.29 2225.09C4235.8 2223.73 4230.19 2222.47 4224.9 2220.92L4208.87 2216.5L4204.86 2215.4L4200.64 2214.11L4192.15 2211.53L4179.47 2207.65L4175.95 2206.42L4159.79 2200.88L4143.63 2195.36C4140.92 2194.48 4138.27 2193.46 4135.6 2192.42L4127.59 2189.35L4111.59 2183.28L4103.58 2180.21C4100.91 2179.22 4098.26 2178.05 4095.62 2176.96L4063.87 2163.79L4032.35 2149.74C4027.09 2147.48 4021.86 2144.96 4016.64 2142.51L4000.95 2135.12L3993.11 2131.43L3989.21 2129.6L3985.3 2127.66L3969.65 2120.01L3954.04 2112.36C3948.84 2109.78 3943.65 2107.1 3938.46 2104.49L3922.84 2096.61C3917.65 2094 3912.45 2091.38 3907.26 2088.66L3876.06 2072.55L3813.31 2039.99L3781.68 2023.75L3765.81 2015.61L3749.84 2007.58L3733.8 1999.6L3725.8 1995.6L3717.7 1991.69L3685.24 1976.1L3652.37 1961.06C3646.94 1958.51 3641.2 1956.12 3635.59 1953.67L3618.58 1946.37L3610.1 1942.76L3605.84 1940.95L3601.75 1939.3L3585.32 1932.78L3568.86 1926.26L3566.8 1925.45L3564.03 1924.42L3559.79 1922.83L3551.35 1919.74L3534.41 1913.51L3525.96 1910.38C3523.14 1909.38 3520.28 1908.4 3517.43 1907.41L3483.36 1895.59L3449.03 1884.45C3446.17 1883.52 3443.32 1882.58 3440.42 1881.68L3431.81 1879.06L3414.51 1873.83C3408.77 1872.09 3402.99 1870.32 3397.22 1868.64L3379.83 1863.76C3368.24 1860.51 3356.67 1857.18 3344.98 1854.24L3318.75 1847.47L3314.37 1846.33L3309.98 1845.27L3274.81 1836.94C3180.75 1815.76 3085.25 1800.56 2989.04 1792.84L2971 1791.36L2966.49 1791L2961.91 1790.75L2934.52 1789.1C2928.45 1788.74 2922.26 1788.32 2916.44 1788.16L2881.08 1786.87L2878.37 1786.78L2876.12 1786.75L2871.63 1786.64L2862.63 1786.52L2844.66 1786.19C2832.68 1785.91 2820.69 1786 2808.68 1786C2796.68 1786.03 2784.67 1785.91 2772.68 1786.25L2736.7 1786.97L2700.69 1788.35L2691.69 1788.71C2688.69 1788.84 2685.69 1789.07 2682.68 1789.22L2664.68 1790.33L2646.71 1791.39C2643.71 1791.56 2640.71 1791.78 2637.71 1792.04L2628.71 1792.77C2616.74 1793.78 2604.77 1794.65 2592.76 1795.75L2556.89 1799.53L2547.91 1800.46L2538.95 1801.63L2503.14 1806.27C2497.17 1807.11 2491.23 1808.07 2485.26 1808.98L2467.42 1811.79L2458.48 1813.18L2454.03 1813.89L2449.58 1814.73L2413.99 1821.29C2408.06 1822.28 2402.18 1823.61 2396.28 1824.87L2378.56 1828.65L2360.89 1832.45L2343.29 1836.77L2325.68 1841.1L2316.91 1843.26C2313.97 1843.98 2311.06 1844.85 2308.16 1845.66L2273.25 1855.37L2268.9 1856.63L2255.89 1860.7L2238.6 1866.12L2229.95 1868.87C2227.08 1869.8 2224.18 1870.61 2221.31 1871.67L2203.95 1877.8L2186.62 1883.94L2177.97 1887L2169.74 1890.24L2136.84 1903.21L2134.19 1904.25L2132.12 1905.15L2127.93 1906.96L2119.6 1910.57L2102.92 1917.84C2097.31 1920.16 2091.89 1922.8 2086.4 1925.35L2070.05 1933.1C2059.04 1938.1 2048.4 1943.72 2037.65 1949.09C2032.3 1951.83 2026.88 1954.44 2021.56 1957.25L2005.71 1965.68C1963.38 1988.11 1922.21 2011.94 1881.36 2035.6C1840.51 2059.32 1800.06 2082.85 1759.09 2104.97C1748.88 2110.65 1738.57 2115.88 1728.27 2121.3C1723.1 2123.95 1718.01 2126.73 1712.82 2129.27L1697.26 2136.96L1681.68 2144.61C1676.48 2147.09 1671.22 2149.42 1665.96 2151.84L1650.25 2159.04C1644.99 2161.52 1639.77 2163.53 1634.54 2165.78L1618.83 2172.34L1610.99 2175.6C1608.28 2176.66 1605.48 2177.66 1602.73 2178.7L1586.14 2184.9L1577.88 2187.96L1573.73 2189.52C1572.95 2189.8 1573.66 2189.55 1573.21 2189.71L1572.2 2190.03L1570.18 2190.7C1548.88 2198.1 1526.84 2204.14 1504.55 2209.52C1459.9 2220.31 1413.88 2227.96 1367.46 2235.28C1344.26 2238.97 1320.9 2242.52 1297.47 2246.36L1288.66 2247.78L1279.83 2249.3C1273.95 2250.3 1267.95 2251.27 1262.21 2252.33L1227.4 2258.72C1181.23 2267.11 1134.73 2274.86 1088.21 2282.94C995.121 2299.08 901.685 2316.31 809.856 2341.53C763.977 2354.18 718.488 2368.77 674.215 2386.85C652.09 2395.88 630.279 2405.79 608.983 2416.77L604.983 2418.81L601.016 2420.94L593.102 2425.23C587.843 2428.1 582.69 2431.17 577.463 2434.11C572.33 2437.24 567.166 2440.27 562.097 2443.5C557.069 2446.79 551.968 2449.95 547.035 2453.41L539.614 2458.51L532.319 2463.8C527.418 2467.29 522.705 2471.04 517.929 2474.75C515.547 2476.55 513.248 2478.5 510.928 2480.43L503.991 2486.2L497.252 2492.21C494.985 2494.22 492.728 2496.18 490.566 2498.31L484.017 2504.54L482.411 2506.09L477.667 2510.97C475.599 2513.13 473.437 2515.26 471.4 2517.49L465.334 2524.2C464.336 2525.33 463.308 2526.43 462.342 2527.56L459.435 2531.04L453.662 2537.99L448.141 2545.16C446.304 2547.54 444.436 2549.93 442.757 2552.42L437.561 2559.81C436.659 2561.04 435.85 2562.3 435.042 2563.59L432.586 2567.39L430.172 2571.2C429.332 2572.46 428.524 2573.72 427.779 2575.05L423.234 2582.86C422.489 2584.15 421.681 2585.44 421.009 2586.77L414.711 2598.77L410.88 2606.94C409.621 2609.65 408.298 2612.37 407.196 2615.17L403.743 2623.5L402.903 2625.6L402.137 2627.7L400.584 2631.95C399.587 2634.77 398.516 2637.57 397.582 2640.42L394.905 2649.04L393.551 2653.32C393.132 2654.75 392.775 2656.23 392.386 2657.68L390.098 2666.43L389.521 2668.62C389.322 2669.34 389.196 2670.08 389.038 2670.79L386.225 2683.77C385.679 2686.32 387.254 2688.84 389.773 2689.51C392.386 2690.19 395.031 2688.61 395.713 2685.99L397.907 2677.41L398.999 2673.15C399.198 2672.44 399.355 2671.69 399.555 2671.02L400.195 2668.92L402.714 2660.65C403.134 2659.3 403.491 2657.91 403.974 2656.56L405.422 2652.42L408.33 2644.23C409.358 2641.54 410.492 2638.86 411.552 2636.15L413.2 2632.15L414.008 2630.15L414.911 2628.18L418.521 2620.28C419.686 2617.63 421.041 2615.08 422.363 2612.49L426.33 2604.78L430.623 2597.26L432.754 2593.51C433.457 2592.25 434.266 2591.06 435.042 2589.83L439.66 2582.5C440.395 2581.24 441.235 2580.09 442.043 2578.89L444.531 2575.34L446.976 2571.79C447.784 2570.59 448.624 2569.4 449.495 2568.26L454.722 2561.36C456.433 2559.03 458.301 2556.84 460.149 2554.61L465.628 2547.96L471.4 2541.5L474.308 2538.31C475.273 2537.24 476.312 2536.21 477.278 2535.18L483.313 2528.94C485.308 2526.92 487.438 2524.94 489.537 2522.95L492.634 2519.94L494.219 2518.45L495.825 2517.04L502.28 2511.26C504.41 2509.32 506.667 2507.51 508.892 2505.67L515.547 2500.15L522.411 2494.86C524.678 2493.08 526.966 2491.31 529.317 2489.63C533.999 2486.24 538.649 2482.82 543.487 2479.65L550.645 2474.81L558.003 2470.17C562.81 2467 567.88 2464.13 572.813 2461.13C575.3 2459.65 577.841 2458.25 580.36 2456.83L587.906 2452.57C593.07 2449.89 598.14 2447.12 603.304 2444.5L611.113 2440.63L614.986 2438.7L618.922 2436.82C639.893 2426.87 661.347 2417.97 683.189 2409.86C726.811 2393.69 771.755 2380.87 817.182 2369.96C862.609 2359.05 908.623 2350.12 954.827 2342.17C1001.06 2334.23 1047.52 2327.35 1094.14 2320.73C1140.76 2314.12 1187.54 2307.8 1234.4 2300.62L1269.37 2295.27C1275.21 2294.36 1280.89 2293.62 1286.67 2292.78L1295.28 2291.58L1303.99 2290.43C1327.23 2287.33 1350.58 2284.45 1374.04 2281.45C1397.53 2278.44 1421.08 2275.28 1444.7 2271.7C1468.31 2268.09 1491.99 2263.89 1515.68 2258.88C1539.36 2253.88 1563.04 2248.11 1586.5 2240.68L1588.72 2240L1589.83 2239.67C1590.08 2239.61 1591.51 2239.13 1591.4 2239.16L1595.57 2237.74L1603.95 2234.86L1620.69 2229.15C1623.48 2228.22 1626.25 2227.28 1629.06 2226.28L1637.64 2222.99L1654.78 2216.4C1666.35 2212.14 1677.29 2207.3 1688.43 2202.62C1693.97 2200.26 1699.55 2197.94 1705.04 2195.51L1721.43 2188.03L1737.82 2180.51C1743.27 2177.99 1748.6 2175.28 1753.98 2172.66C1764.73 2167.4 1775.61 2162.24 1786.15 2156.71C1828.78 2135.09 1870.43 2112.23 1911.76 2089.64C1953.09 2067.01 1994.26 2044.77 2035.75 2023.91L2051.31 2016.1C2056.5 2013.51 2061.73 2011.1 2066.96 2008.61C2077.41 2003.71 2087.76 1998.54 2098.35 1993.98L2114.12 1987.01C2119.38 1984.66 2124.61 1982.27 2129.93 1980.2L2145.87 1973.71L2153.81 1970.49L2157.81 1968.87L2159.77 1968.03C2159.82 1968.03 2159.84 1968.02 2159.84 1968C2159.84 1968.03 2159.88 1968.03 2160.22 1967.87L2161.26 1967.49L2194.46 1955.31L2202.78 1952.25L2210.86 1949.6L2227.02 1944.34L2243.15 1939.05C2245.8 1938.1 2248.63 1937.4 2251.37 1936.56L2259.63 1934.17L2284.44 1926.94L2288.61 1925.71L2292.77 1924.65L2326.2 1916.06C2328.97 1915.38 2331.75 1914.57 2334.55 1913.96L2342.97 1912.09L2359.82 1908.31L2376.66 1904.57L2393.63 1901.31L2410.56 1898.02C2416.21 1896.95 2421.86 1895.78 2427.57 1894.94L2461.68 1889.4L2465.96 1888.68L2470.22 1888.11L2478.81 1886.94L2495.94 1884.65C2501.68 1883.87 2507.36 1883.03 2513.11 1882.36L2530.3 1880.51L2547.53 1878.64L2556.11 1877.71L2564.76 1877L2599.28 1874.13C2610.81 1873.35 2622.35 1872.77 2633.91 1872.06L2642.55 1871.55C2645.42 1871.38 2648.33 1871.22 2651.2 1871.13L2685.89 1869.96C2688.78 1869.9 2691.66 1869.77 2694.57 1869.71L2737.96 1869.22L2772.68 1869.57C2784.25 1869.6 2795.84 1870.05 2807.42 1870.41C2819.01 1870.77 2830.58 1871.06 2842.17 1871.73L2876.41 1873.48L2911.7 1876.03C2917.67 1876.39 2923.22 1877 2928.93 1877.52L2945.9 1879.13L2954.42 1879.94L2958.65 1880.36L2962.94 1880.84L2980.1 1882.88C3071.64 1893.43 3162.33 1911.13 3251.83 1933.32C3296.55 1944.56 3340.98 1957.12 3385.12 1970.68L3401.64 1975.81L3409.9 1978.4L3418.16 1981.08L3451.07 1991.86L3483.85 2003.15C3486.55 2004.09 3489.3 2005 3492.04 2005.96L3500.18 2008.9L3516.5 2014.81L3524.67 2017.71L3528.73 2019.2L3529.77 2019.55C3529.8 2019.58 3531.09 2020.07 3530.11 2019.68L3532.18 2020.46L3548.67 2026.82L3569.32 2034.73L3573.25 2036.33L3581.06 2039.57L3596.68 2045.99C3601.87 2048.12 3607.07 2050.18 3612.39 2052.55L3644.08 2066.33L3675.76 2080.63L3683.69 2084.21L3691.6 2087.9L3723.28 2102.68L3739.16 2110.2L3770.94 2125.3C3855.73 2165.82 3942.13 2207.36 4032.8 2241.38C4078.23 2258.24 4124.69 2272.93 4172.25 2284.65L4180.86 2286.74L4185.15 2287.78L4189.74 2288.75L4208.09 2292.62C4214.22 2293.98 4220.2 2294.91 4226.25 2296.01L4235.29 2297.62C4238.29 2298.13 4241.29 2298.75 4244.33 2299.17L4262.45 2301.88C4265.49 2302.3 4268.49 2302.82 4271.52 2303.17L4280.62 2304.23L4298.79 2306.4L4316.98 2308.05L4326.08 2308.86L4353.38 2310.6C4359.45 2310.89 4365.51 2311.05 4371.58 2311.28L4380.68 2311.6C4383.7 2311.73 4386.74 2311.7 4389.77 2311.76L4407.97 2311.92C4414.04 2311.98 4420.07 2311.76 4426.14 2311.7C4438.23 2311.63 4450.33 2311.02 4462.4 2310.54L4466.91 2310.34L4471.44 2310.05L4489.5 2308.82C4492.5 2308.62 4495.54 2308.44 4498.54 2308.14C4510.54 2307.02 4522.54 2306.08 4534.51 2304.59C4538.09 2304.17 4541.65 2303.75 4545.23 2303.33C4542.94 2306.5 4540.58 2309.63 4538.48 2312.92C4531.44 2323.8 4525.35 2335.33 4520.51 2347.43C4515.67 2359.54 4512.15 2372.19 4510.15 2385.07C4509.15 2391.52 4508.61 2398.01 4508.37 2404.5C4508.15 2410.99 4508.41 2417.45 4509.02 2423.88C4509.63 2430.26 4510.6 2436.63 4512 2442.85C4512.6 2445.95 4513.48 2449.02 4514.22 2452.08C4515.15 2455.12 4515.96 2458.19 4517.05 2461.16C4518.7 2466.16 4520.67 2471.01 4522.73 2475.79C4519.42 2473.13 4516.03 2470.48 4512.54 2467.97C4510.22 2466.29 4507.92 2464.64 4505.6 2462.96C4503.28 2461.32 4500.92 2459.71 4498.57 2458.09L4495.05 2455.63C4493.86 2454.79 4492.69 2454 4491.51 2453.19L4484.4 2448.38L4480.85 2445.95L4477.24 2443.63C4474.85 2442.08 4472.47 2440.53 4470.04 2438.98C4465.24 2435.94 4460.4 2433.01 4455.62 2430.11C4449.55 2426.52 4443.53 2423.13 4437.53 2419.87C4430.88 2414.57 4424.04 2409.28 4416.81 2404.05C4406.55 2396.6 4395.77 2389.11 4384.45 2381.71C4381.58 2379.88 4378.71 2378.04 4375.83 2376.19C4372.93 2374.38 4369.96 2372.58 4367.02 2370.74C4364.02 2368.97 4361.02 2367.16 4357.99 2365.34C4354.92 2363.6 4351.83 2361.82 4348.73 2360.05C4323.82 2345.98 4296.69 2332.61 4267.49 2320.87C4252.87 2314.96 4237.81 2309.4 4222.25 2304.2C4206.74 2299.01 4190.76 2294.27 4174.41 2289.84C4141.69 2281.06 4107.43 2273.93 4072.06 2268.12C4054.41 2265.21 4036.44 2262.66 4018.28 2260.37C4000.08 2258.11 3981.66 2256.14 3963.04 2254.4C3953.72 2253.52 3944.36 2252.75 3934.98 2252.01C3930.2 2251.65 3925.42 2251.3 3920.62 2250.94C3915.94 2250.63 3911.22 2250.33 3906.54 2250.04L3899.45 2249.59C3897.03 2249.49 3894.58 2249.37 3892.15 2249.26C3887.28 2249.04 3882.41 2248.81 3877.51 2248.62C3867.83 2248.36 3858.08 2247.94 3848.28 2247.87C3828.72 2247.49 3808.98 2247.72 3789.1 2248.26C3784.14 2248.43 3779.16 2248.59 3774.2 2248.71C3769.2 2248.95 3764.23 2249.17 3759.23 2249.4C3754.22 2249.62 3749.23 2249.94 3744.22 2250.24C3739.22 2250.52 3734.22 2250.81 3729.19 2251.2C3689.09 2253.98 3648.65 2258.37 3608.27 2263.92C3527.44 2274.96 3446.77 2290.33 3366.53 2302.88C3346.43 2305.98 3326.46 2308.89 3306.36 2311.63C3286.13 2314.32 3265.94 2316.99 3245.76 2319.67C3225.6 2322.29 3205.47 2324.87 3185.4 2327.29C3165.37 2329.77 3145.36 2332.16 3125.42 2334.43C3045.67 2343.56 2967.14 2350.99 2891.02 2355.92C2814.91 2360.89 2741.25 2363.41 2671.39 2363.19C2636.48 2363.05 2602.52 2362.28 2569.69 2360.89C2536.88 2359.47 2505.2 2357.31 2474.84 2354.76C2444.48 2352.11 2415.44 2348.79 2387.85 2345.2C2360.3 2341.56 2334.27 2337.39 2309.8 2333.06C2285.42 2328.7 2262.63 2324 2241.63 2319.38C2236.4 2318.18 2231.27 2316.99 2226.24 2315.86C2221.24 2314.63 2216.33 2313.44 2211.53 2312.28C2206.75 2311.15 2202.07 2309.96 2197.53 2308.79C2192.98 2307.6 2188.49 2306.53 2184.2 2305.34C2175.59 2303.02 2167.39 2300.85 2159.77 2298.63C2155.94 2297.52 2152.19 2296.5 2148.61 2295.46C2145.07 2294.4 2141.61 2293.36 2138.25 2292.36C2131.58 2290.43 2125.48 2288.42 2119.83 2286.68C2114.19 2284.97 2109.12 2283.28 2104.54 2281.8C2099.99 2280.29 2095.92 2279.03 2092.47 2277.83C2089.02 2276.64 2086.08 2275.64 2083.73 2274.86C2079.05 2273.25 2076.6 2272.41 2076.6 2272.41C2076.6 2272.41 2078.92 2273.51 2083.43 2275.61C2087.93 2277.71 2094.6 2280.9 2103.41 2284.74C2107.79 2286.71 2112.74 2288.9 2118.19 2291.2C2123.64 2293.52 2129.57 2296.04 2136.06 2298.63C2139.28 2299.95 2142.67 2301.31 2146.13 2302.69C2149.61 2304.11 2153.26 2305.46 2157 2306.92C2164.45 2309.85 2172.46 2312.73 2180.94 2315.83C2214.82 2328.06 2256.57 2341.43 2305.35 2353.76C2329.71 2360.02 2355.82 2365.9 2383.53 2371.41C2411.21 2377 2440.48 2381.98 2471.16 2386.43C2532.5 2395.3 2599.45 2401.7 2670.39 2404.95C2741.31 2408.19 2816.24 2408.28 2893.54 2405.41C2970.84 2402.57 3050.54 2396.79 3131.2 2388.81C3151.36 2386.82 3171.59 2384.69 3191.86 2382.46C3212.11 2380.19 3232.41 2377.81 3252.73 2375.38C3262.9 2374.13 3273.06 2372.87 3283.26 2371.61C3293.43 2370.32 3303.59 2369.03 3313.75 2367.71L3329.1 2365.67C3334.24 2365 3339.37 2364.31 3344.5 2363.57C3354.76 2362.15 3364.99 2360.61 3375.18 2359.05C3456.91 2346.56 3537.19 2330.91 3616.1 2319.5C3635.82 2316.61 3655.47 2313.99 3675.02 2311.7C3694.56 2309.4 3714.02 2307.34 3733.38 2305.76C3772.07 2302.49 3810.34 2300.72 3848.02 2300.56C3857.44 2300.43 3866.79 2300.62 3876.16 2300.65C3880.76 2300.75 3885.38 2300.89 3889.96 2300.98C3892.29 2301.04 3894.58 2301.07 3896.86 2301.14C3899.23 2301.2 3901.58 2301.3 3903.93 2301.4C3908.64 2301.56 3913.35 2301.76 3918.04 2301.95C3922.61 2302.15 3927.17 2302.33 3931.71 2302.57C3936.33 2302.79 3940.94 2303.05 3945.52 2303.27C3950.1 2303.53 3954.69 2303.78 3959.23 2304.05C3977.5 2305.11 3995.5 2306.43 4013.21 2307.98C4030.96 2309.5 4048.42 2311.34 4065.61 2313.4C4082.77 2315.47 4099.65 2317.9 4116.2 2320.61C4132.75 2323.28 4148.95 2326.35 4164.76 2329.74C4196.44 2336.55 4226.64 2344.69 4255.07 2354.27C4283.47 2363.89 4310.15 2374.77 4334.9 2386.59C4347.25 2392.53 4359.15 2398.66 4370.57 2404.89C4382 2411.15 4392.91 2417.58 4403.36 2424.04C4413.81 2430.49 4423.84 2436.95 4433.33 2443.46C4442.88 2449.92 4451.95 2456.38 4460.53 2462.78C4469.14 2469.1 4477.27 2475.37 4485.02 2481.47C4491.73 2486.79 4498.09 2491.96 4504.15 2496.99C4505.03 2497.89 4505.93 2498.76 4506.83 2499.67C4510.63 2503.29 4514.22 2507.03 4517.89 2510.55C4525.22 2517.61 4532.35 2524.37 4539.13 2530.79C4542.55 2533.99 4545.74 2537.21 4548.87 2540.31C4550.45 2541.83 4552.06 2543.31 4553.55 2544.83C4555.03 2546.35 4556.52 2547.84 4557.94 2549.29C4563.84 2555.06 4568.97 2560.59 4573.78 2565.36C4575 2566.52 4576.03 2567.78 4577.13 2568.91C4578.23 2570.08 4579.3 2571.2 4580.29 2572.27C4582.36 2574.4 4584.26 2576.34 4585.97 2578.11C4589.3 2581.72 4592.01 2584.6 4593.91 2586.5C4595.82 2588.41 4596.88 2589.41 4596.88 2589.41L4596.94 2589.47C4597.3 2589.8 4597.78 2589.93 4598.29 2589.83C4599.07 2589.63 4599.55 2588.83 4599.36 2588.06C4599.36 2588.06 4599.04 2586.64 4598.26 2584.02C4597.56 2581.38 4596.36 2577.57 4594.68 2572.72C4593.81 2570.33 4592.72 2567.78 4591.56 2564.94C4590.3 2562.13 4589.07 2559 4587.49 2555.87C4585.91 2552.71 4584.13 2549.38 4582.27 2545.86C4580.42 2542.31 4578.16 2538.83 4575.87 2535.11C4574.71 2533.24 4573.55 2531.37 4572.3 2529.47C4571.04 2527.59 4569.68 2525.72 4568.33 2523.79C4565.51 2520.01 4562.78 2515.97 4559.55 2512.19C4557.42 2509.49 4555.06 2506.84 4552.71 2504.16C4550.22 2499.03 4547.84 2493.89 4545.74 2488.66C4545.23 2487.31 4544.64 2485.98 4544.16 2484.66L4542.68 2480.6L4541.96 2478.59L4541.29 2476.55L4539.97 2472.49C4538.35 2467.03 4536.84 2461.58 4535.8 2456.02C4535.19 2453.28 4534.84 2450.51 4534.35 2447.76C4534 2444.99 4533.58 2442.24 4533.39 2439.46C4532.83 2433.95 4532.67 2428.42 4532.83 2422.93C4532.86 2420.19 4533.09 2417.48 4533.28 2414.77C4533.58 2412.06 4533.84 2409.34 4534.26 2406.67C4535.06 2401.28 4536.16 2395.99 4537.57 2390.76C4539 2385.56 4540.73 2380.45 4542.77 2375.46C4544.77 2370.45 4547.09 2365.57 4549.61 2360.8C4554.67 2351.24 4560.74 2342.23 4567.58 2333.74C4574.39 2325.29 4582 2317.41 4590.08 2310.08C4594.14 2306.43 4598.29 2302.94 4602.59 2299.66C4604.72 2298.04 4606.88 2296.43 4609.04 2294.91C4610.14 2294.13 4611.2 2293.43 4612.27 2292.72L4613.85 2291.69L4614.59 2291.23C4614.78 2291.1 4615.14 2290.91 4615.11 2290.94L4600.49 2251.65Z"
                stroke="white" stroke-width="8" mask="url(#path-2-outside-1_230_959)" />
        </g>
        <mask id="path-3-outside-2_230_959" maskUnits="userSpaceOnUse" x="499" y="2752.72"
            width="3994" height="352" fill="black">
            <rect fill="white" x="499" y="2752.72" width="3994" height="352" />
            <path
                d="M675.5 2821.82C660.8 2821.82 646.85 2824.67 633.65 2830.37C620.75 2835.77 609.5 2843.42 599.9 2853.32C590.3 2862.92 582.65 2874.17 576.95 2887.07C571.25 2899.97 568.4 2913.77 568.4 2928.47C568.4 2943.17 571.25 2957.12 576.95 2970.32C582.65 2983.22 590.3 2994.47 599.9 3004.07C609.5 3013.67 620.75 3021.32 633.65 3027.02C646.85 3032.72 660.8 3035.57 675.5 3035.57H831.65V3103.07H675.5C651.5 3103.07 628.85 3098.57 607.55 3089.57C586.25 3080.27 567.65 3067.82 551.75 3052.22C536.15 3036.32 523.7 3017.72 514.4 2996.42C505.4 2975.12 500.9 2952.47 500.9 2928.47C500.9 2904.47 505.4 2881.97 514.4 2860.97C523.7 2839.67 536.15 2821.22 551.75 2805.62C567.65 2789.72 586.25 2777.27 607.55 2768.27C628.85 2758.97 651.5 2754.32 675.5 2754.32H831.65V2821.82H675.5ZM1242.65 3103.52H1170.2L1072.1 2846.57L974.001 3103.52H901.551L1035.2 2753.87H1109L1242.65 3103.52ZM1656.27 3035.57V3103.52H1549.17L1495.17 2987.42H1392.57V3103.52H1325.07V2919.47H1528.92C1536.12 2919.47 1542.87 2918.12 1549.17 2915.42C1555.77 2912.72 1561.47 2908.97 1566.27 2904.17C1571.07 2899.37 1574.82 2893.82 1577.52 2887.52C1580.22 2881.22 1581.57 2874.47 1581.57 2867.27C1581.57 2854.67 1577.22 2844.02 1568.52 2835.32C1559.82 2826.62 1549.17 2822.27 1536.57 2822.27H1325.07V2754.32H1536.57C1552.17 2754.32 1566.72 2757.32 1580.22 2763.32C1594.02 2769.32 1606.02 2777.42 1616.22 2787.62C1626.42 2797.82 1634.37 2809.82 1640.07 2823.62C1646.07 2837.12 1649.07 2851.67 1649.07 2867.27C1649.07 2880.47 1646.97 2893.22 1642.77 2905.52C1638.87 2917.52 1633.17 2928.47 1625.67 2938.37C1618.47 2948.27 1609.77 2956.97 1599.57 2964.47C1589.67 2971.67 1578.72 2977.22 1566.72 2981.12L1592.37 3035.57H1656.27ZM2249.88 3035.57V3103.52H2142.78L2088.78 2987.42H1986.18V3103.52H1918.68V2919.47H2122.53C2129.73 2919.47 2136.48 2918.12 2142.78 2915.42C2149.38 2912.72 2155.08 2908.97 2159.88 2904.17C2164.68 2899.37 2168.43 2893.82 2171.13 2887.52C2173.83 2881.22 2175.18 2874.47 2175.18 2867.27C2175.18 2854.67 2170.83 2844.02 2162.13 2835.32C2153.43 2826.62 2142.78 2822.27 2130.18 2822.27H1918.68V2754.32H2130.18C2145.78 2754.32 2160.33 2757.32 2173.83 2763.32C2187.63 2769.32 2199.63 2777.42 2209.83 2787.62C2220.03 2797.82 2227.98 2809.82 2233.68 2823.62C2239.68 2837.12 2242.68 2851.67 2242.68 2867.27C2242.68 2880.47 2240.58 2893.22 2236.38 2905.52C2232.48 2917.52 2226.78 2928.47 2219.28 2938.37C2212.08 2948.27 2203.38 2956.97 2193.18 2964.47C2183.28 2971.67 2172.33 2977.22 2160.33 2981.12L2185.98 3035.57H2249.88ZM2412.12 3035.12H2647.92V3102.62H2344.62V2895.62H2620.92V2963.57H2412.12V3035.12ZM2345.97 2821.37V2753.87H2657.37V2821.37H2345.97ZM2749.57 3103.52V2875.82H2817.07V3103.52H2749.57ZM3115.87 2753.87V3103.52H3038.02L2749.57 2753.87H2837.32L3048.37 3009.02V2753.87H3115.87ZM3505.99 2753.87V2821.37H3389.44V3103.52H3321.49V2753.87H3505.99ZM3204.94 2821.37V2753.87H3293.59V2821.37H3204.94ZM3601.58 3101.72C3595.88 3101.72 3590.33 3100.67 3584.93 3098.57C3579.83 3096.17 3575.33 3093.02 3571.43 3089.12C3567.53 3085.22 3564.38 3080.72 3561.98 3075.62C3559.88 3070.22 3558.83 3064.52 3558.83 3058.52C3558.83 3052.52 3559.88 3046.97 3561.98 3041.87C3564.38 3036.47 3567.53 3031.82 3571.43 3027.92C3575.33 3023.72 3579.83 3020.57 3584.93 3018.47C3590.33 3016.07 3595.88 3014.87 3601.58 3014.87C3613.58 3014.87 3623.63 3019.22 3631.73 3027.92C3640.13 3036.32 3644.33 3046.52 3644.33 3058.52C3644.33 3070.52 3640.13 3080.72 3631.73 3089.12C3623.63 3097.52 3613.58 3101.72 3601.58 3101.72ZM4088.4 3103.52H3991.2L3858 2962.67H3817.05V3103.52H3749.55V2894.72H3846.3L3986.25 2753.87H4081.65L3913.8 2923.07L4088.4 3103.52ZM3749.55 2866.37V2753.87H3817.05V2866.37H3749.55ZM4491.34 2894.72V3103.07H4300.99C4276.99 3103.07 4254.34 3098.57 4233.04 3089.57C4211.74 3080.27 4193.14 3067.82 4177.24 3052.22C4161.64 3036.32 4149.19 3017.72 4139.89 2996.42C4130.89 2975.12 4126.39 2952.47 4126.39 2928.47C4126.39 2904.47 4130.89 2881.97 4139.89 2860.97C4149.19 2839.67 4161.64 2821.22 4177.24 2805.62C4193.14 2789.72 4211.74 2777.27 4233.04 2768.27C4254.34 2758.97 4276.99 2754.32 4300.99 2754.32H4457.14V2821.82H4300.99C4286.29 2821.82 4272.34 2824.67 4259.14 2830.37C4246.24 2835.77 4234.99 2843.42 4225.39 2853.32C4215.79 2862.92 4208.14 2874.17 4202.44 2887.07C4196.74 2899.97 4193.89 2913.77 4193.89 2928.47C4193.89 2943.17 4196.74 2957.12 4202.44 2970.32C4208.14 2983.22 4215.79 2994.47 4225.39 3004.07C4234.99 3013.67 4246.24 3021.32 4259.14 3027.02C4272.34 3032.72 4286.29 3035.57 4300.99 3035.57H4423.39V2962.67H4308.64V2894.72H4491.34Z" />
        </mask>
        <path
            d="M675.5 2821.82C660.8 2821.82 646.85 2824.67 633.65 2830.37C620.75 2835.77 609.5 2843.42 599.9 2853.32C590.3 2862.92 582.65 2874.17 576.95 2887.07C571.25 2899.97 568.4 2913.77 568.4 2928.47C568.4 2943.17 571.25 2957.12 576.95 2970.32C582.65 2983.22 590.3 2994.47 599.9 3004.07C609.5 3013.67 620.75 3021.32 633.65 3027.02C646.85 3032.72 660.8 3035.57 675.5 3035.57H831.65V3103.07H675.5C651.5 3103.07 628.85 3098.57 607.55 3089.57C586.25 3080.27 567.65 3067.82 551.75 3052.22C536.15 3036.32 523.7 3017.72 514.4 2996.42C505.4 2975.12 500.9 2952.47 500.9 2928.47C500.9 2904.47 505.4 2881.97 514.4 2860.97C523.7 2839.67 536.15 2821.22 551.75 2805.62C567.65 2789.72 586.25 2777.27 607.55 2768.27C628.85 2758.97 651.5 2754.32 675.5 2754.32H831.65V2821.82H675.5ZM1242.65 3103.52H1170.2L1072.1 2846.57L974.001 3103.52H901.551L1035.2 2753.87H1109L1242.65 3103.52ZM1656.27 3035.57V3103.52H1549.17L1495.17 2987.42H1392.57V3103.52H1325.07V2919.47H1528.92C1536.12 2919.47 1542.87 2918.12 1549.17 2915.42C1555.77 2912.72 1561.47 2908.97 1566.27 2904.17C1571.07 2899.37 1574.82 2893.82 1577.52 2887.52C1580.22 2881.22 1581.57 2874.47 1581.57 2867.27C1581.57 2854.67 1577.22 2844.02 1568.52 2835.32C1559.82 2826.62 1549.17 2822.27 1536.57 2822.27H1325.07V2754.32H1536.57C1552.17 2754.32 1566.72 2757.32 1580.22 2763.32C1594.02 2769.32 1606.02 2777.42 1616.22 2787.62C1626.42 2797.82 1634.37 2809.82 1640.07 2823.62C1646.07 2837.12 1649.07 2851.67 1649.07 2867.27C1649.07 2880.47 1646.97 2893.22 1642.77 2905.52C1638.87 2917.52 1633.17 2928.47 1625.67 2938.37C1618.47 2948.27 1609.77 2956.97 1599.57 2964.47C1589.67 2971.67 1578.72 2977.22 1566.72 2981.12L1592.37 3035.57H1656.27ZM2249.88 3035.57V3103.52H2142.78L2088.78 2987.42H1986.18V3103.52H1918.68V2919.47H2122.53C2129.73 2919.47 2136.48 2918.12 2142.78 2915.42C2149.38 2912.72 2155.08 2908.97 2159.88 2904.17C2164.68 2899.37 2168.43 2893.82 2171.13 2887.52C2173.83 2881.22 2175.18 2874.47 2175.18 2867.27C2175.18 2854.67 2170.83 2844.02 2162.13 2835.32C2153.43 2826.62 2142.78 2822.27 2130.18 2822.27H1918.68V2754.32H2130.18C2145.78 2754.32 2160.33 2757.32 2173.83 2763.32C2187.63 2769.32 2199.63 2777.42 2209.83 2787.62C2220.03 2797.82 2227.98 2809.82 2233.68 2823.62C2239.68 2837.12 2242.68 2851.67 2242.68 2867.27C2242.68 2880.47 2240.58 2893.22 2236.38 2905.52C2232.48 2917.52 2226.78 2928.47 2219.28 2938.37C2212.08 2948.27 2203.38 2956.97 2193.18 2964.47C2183.28 2971.67 2172.33 2977.22 2160.33 2981.12L2185.98 3035.57H2249.88ZM2412.12 3035.12H2647.92V3102.62H2344.62V2895.62H2620.92V2963.57H2412.12V3035.12ZM2345.97 2821.37V2753.87H2657.37V2821.37H2345.97ZM2749.57 3103.52V2875.82H2817.07V3103.52H2749.57ZM3115.87 2753.87V3103.52H3038.02L2749.57 2753.87H2837.32L3048.37 3009.02V2753.87H3115.87ZM3505.99 2753.87V2821.37H3389.44V3103.52H3321.49V2753.87H3505.99ZM3204.94 2821.37V2753.87H3293.59V2821.37H3204.94ZM3601.58 3101.72C3595.88 3101.72 3590.33 3100.67 3584.93 3098.57C3579.83 3096.17 3575.33 3093.02 3571.43 3089.12C3567.53 3085.22 3564.38 3080.72 3561.98 3075.62C3559.88 3070.22 3558.83 3064.52 3558.83 3058.52C3558.83 3052.52 3559.88 3046.97 3561.98 3041.87C3564.38 3036.47 3567.53 3031.82 3571.43 3027.92C3575.33 3023.72 3579.83 3020.57 3584.93 3018.47C3590.33 3016.07 3595.88 3014.87 3601.58 3014.87C3613.58 3014.87 3623.63 3019.22 3631.73 3027.92C3640.13 3036.32 3644.33 3046.52 3644.33 3058.52C3644.33 3070.52 3640.13 3080.72 3631.73 3089.12C3623.63 3097.52 3613.58 3101.72 3601.58 3101.72ZM4088.4 3103.52H3991.2L3858 2962.67H3817.05V3103.52H3749.55V2894.72H3846.3L3986.25 2753.87H4081.65L3913.8 2923.07L4088.4 3103.52ZM3749.55 2866.37V2753.87H3817.05V2866.37H3749.55ZM4491.34 2894.72V3103.07H4300.99C4276.99 3103.07 4254.34 3098.57 4233.04 3089.57C4211.74 3080.27 4193.14 3067.82 4177.24 3052.22C4161.64 3036.32 4149.19 3017.72 4139.89 2996.42C4130.89 2975.12 4126.39 2952.47 4126.39 2928.47C4126.39 2904.47 4130.89 2881.97 4139.89 2860.97C4149.19 2839.67 4161.64 2821.22 4177.24 2805.62C4193.14 2789.72 4211.74 2777.27 4233.04 2768.27C4254.34 2758.97 4276.99 2754.32 4300.99 2754.32H4457.14V2821.82H4300.99C4286.29 2821.82 4272.34 2824.67 4259.14 2830.37C4246.24 2835.77 4234.99 2843.42 4225.39 2853.32C4215.79 2862.92 4208.14 2874.17 4202.44 2887.07C4196.74 2899.97 4193.89 2913.77 4193.89 2928.47C4193.89 2943.17 4196.74 2957.12 4202.44 2970.32C4208.14 2983.22 4215.79 2994.47 4225.39 3004.07C4234.99 3013.67 4246.24 3021.32 4259.14 3027.02C4272.34 3032.72 4286.29 3035.57 4300.99 3035.57H4423.39V2962.67H4308.64V2894.72H4491.34Z"
            fill="white" />
        <path
            d="M633.65 2830.37L634.036 2831.3L634.046 2831.29L633.65 2830.37ZM599.9 2853.32L600.607 2854.03L600.613 2854.03L600.618 2854.02L599.9 2853.32ZM576.95 2887.07L577.865 2887.48L577.865 2887.48L576.95 2887.07ZM576.95 2970.32L576.032 2970.72L576.035 2970.73L576.95 2970.32ZM599.9 3004.07L600.607 3003.37L600.607 3003.37L599.9 3004.07ZM633.65 3027.02L633.246 3027.94L633.254 3027.94L633.65 3027.02ZM831.65 3035.57H832.65V3034.57H831.65V3035.57ZM831.65 3103.07V3104.07H832.65V3103.07H831.65ZM607.55 3089.57L607.15 3090.49L607.161 3090.5L607.55 3089.57ZM551.75 3052.22L551.036 3052.92L551.043 3052.93L551.05 3052.94L551.75 3052.22ZM514.4 2996.42L513.479 2996.81L513.484 2996.82L514.4 2996.42ZM514.4 2860.97L513.484 2860.57L513.481 2860.58L514.4 2860.97ZM551.75 2805.62L551.043 2804.92L551.043 2804.92L551.75 2805.62ZM607.55 2768.27L607.939 2769.2L607.95 2769.19L607.55 2768.27ZM831.65 2754.32H832.65V2753.32H831.65V2754.32ZM831.65 2821.82V2822.82H832.65V2821.82H831.65ZM675.5 2820.82C660.667 2820.82 646.582 2823.7 633.254 2829.46L634.046 2831.29C647.118 2825.65 660.933 2822.82 675.5 2822.82V2820.82ZM633.264 2829.45C620.241 2834.9 608.878 2842.63 599.182 2852.63L600.618 2854.02C610.122 2844.22 621.259 2836.65 634.036 2831.3L633.264 2829.45ZM599.193 2852.62C589.502 2862.31 581.783 2873.66 576.035 2886.67L577.865 2887.48C583.517 2874.69 591.098 2863.54 600.607 2854.03L599.193 2852.62ZM576.035 2886.67C570.277 2899.7 567.4 2913.64 567.4 2928.47H569.4C569.4 2913.91 572.223 2900.25 577.865 2887.48L576.035 2886.67ZM567.4 2928.47C567.4 2943.31 570.277 2957.39 576.032 2970.72L577.868 2969.93C572.223 2956.86 569.4 2943.04 569.4 2928.47H567.4ZM576.035 2970.73C581.783 2983.74 589.502 2995.09 599.193 3004.78L600.607 3003.37C591.098 2993.86 583.517 2982.71 577.865 2969.92L576.035 2970.73ZM599.193 3004.78C608.884 3014.47 620.237 3022.19 633.246 3027.94L634.054 3026.11C621.263 3020.46 610.116 3012.88 600.607 3003.37L599.193 3004.78ZM633.254 3027.94C646.582 3033.7 660.667 3036.57 675.5 3036.57V3034.57C660.933 3034.57 647.118 3031.75 634.046 3026.11L633.254 3027.94ZM675.5 3036.57H831.65V3034.57H675.5V3036.57ZM830.65 3035.57V3103.07H832.65V3035.57H830.65ZM831.65 3102.07H675.5V3104.07H831.65V3102.07ZM675.5 3102.07C651.629 3102.07 629.111 3097.6 607.939 3088.65L607.161 3090.5C628.589 3099.55 651.371 3104.07 675.5 3104.07V3102.07ZM607.95 3088.66C586.757 3079.4 568.26 3067.02 552.45 3051.51L551.05 3052.94C567.04 3068.63 585.743 3081.14 607.15 3090.49L607.95 3088.66ZM552.464 3051.52C536.953 3035.71 524.57 3017.22 515.316 2996.02L513.484 2996.82C522.83 3018.23 535.347 3036.93 551.036 3052.92L552.464 3051.52ZM515.321 2996.03C506.375 2974.86 501.9 2952.35 501.9 2928.47H499.9C499.9 2952.6 504.425 2975.39 513.479 2996.81L515.321 2996.03ZM501.9 2928.47C501.9 2904.6 506.375 2882.24 515.319 2861.37L513.481 2860.58C504.425 2881.71 499.9 2904.35 499.9 2928.47H501.9ZM515.316 2861.37C524.569 2840.18 536.95 2821.84 552.457 2806.33L551.043 2804.92C535.35 2820.61 522.831 2839.17 513.484 2860.57L515.316 2861.37ZM552.457 2806.33C568.263 2790.52 586.755 2778.15 607.939 2769.2L607.161 2767.35C585.745 2776.4 567.037 2788.92 551.043 2804.92L552.457 2806.33ZM607.95 2769.19C629.12 2759.95 651.633 2755.32 675.5 2755.32V2753.32C651.367 2753.32 628.58 2758 607.15 2767.36L607.95 2769.19ZM675.5 2755.32H831.65V2753.32H675.5V2755.32ZM830.65 2754.32V2821.82H832.65V2754.32H830.65ZM831.65 2820.82H675.5V2822.82H831.65V2820.82ZM1242.65 3103.52V3104.52H1244.1L1243.59 3103.17L1242.65 3103.52ZM1170.2 3103.52L1169.27 3103.88L1169.51 3104.52H1170.2V3103.52ZM1072.1 2846.57L1073.04 2846.22L1072.1 2843.77L1071.17 2846.22L1072.1 2846.57ZM974.001 3103.52V3104.52H974.69L974.935 3103.88L974.001 3103.52ZM901.551 3103.52L900.617 3103.17L900.098 3104.52H901.551V3103.52ZM1035.2 2753.87V2752.87H1034.51L1034.27 2753.52L1035.2 2753.87ZM1109 2753.87L1109.94 2753.52L1109.69 2752.87H1109V2753.87ZM1242.65 3102.52H1170.2V3104.52H1242.65V3102.52ZM1171.14 3103.17L1073.04 2846.22L1071.17 2846.93L1169.27 3103.88L1171.14 3103.17ZM1071.17 2846.22L973.067 3103.17L974.935 3103.88L1073.04 2846.93L1071.17 2846.22ZM974.001 3102.52H901.551V3104.52H974.001V3102.52ZM902.485 3103.88L1036.14 2754.23L1034.27 2753.52L900.617 3103.17L902.485 3103.88ZM1035.2 2754.87H1109V2752.87H1035.2V2754.87ZM1108.07 2754.23L1241.72 3103.88L1243.59 3103.17L1109.94 2753.52L1108.07 2754.23ZM1656.27 3035.57H1657.27V3034.57H1656.27V3035.57ZM1656.27 3103.52V3104.52H1657.27V3103.52H1656.27ZM1549.17 3103.52L1548.26 3103.95L1548.53 3104.52H1549.17V3103.52ZM1495.17 2987.42L1496.08 2987L1495.81 2986.42H1495.17V2987.42ZM1392.57 2987.42V2986.42H1391.57V2987.42H1392.57ZM1392.57 3103.52V3104.52H1393.57V3103.52H1392.57ZM1325.07 3103.52H1324.07V3104.52H1325.07V3103.52ZM1325.07 2919.47V2918.47H1324.07V2919.47H1325.07ZM1549.17 2915.42L1548.79 2914.5L1548.79 2914.5L1548.78 2914.5L1549.17 2915.42ZM1566.27 2904.17L1565.56 2903.47L1565.56 2903.47L1566.27 2904.17ZM1568.52 2835.32L1567.81 2836.03L1567.81 2836.03L1568.52 2835.32ZM1325.07 2822.27H1324.07V2823.27H1325.07V2822.27ZM1325.07 2754.32V2753.32H1324.07V2754.32H1325.07ZM1580.22 2763.32L1579.82 2764.24L1579.82 2764.24L1580.22 2763.32ZM1616.22 2787.62L1615.51 2788.33L1615.51 2788.33L1616.22 2787.62ZM1640.07 2823.62L1639.15 2824.01L1639.15 2824.02L1639.16 2824.03L1640.07 2823.62ZM1642.77 2905.52L1641.83 2905.2L1641.82 2905.21L1641.82 2905.22L1642.77 2905.52ZM1625.67 2938.37L1624.87 2937.77L1624.87 2937.78L1624.86 2937.79L1625.67 2938.37ZM1599.57 2964.47L1600.16 2965.28L1600.16 2965.28L1599.57 2964.47ZM1566.72 2981.12L1566.41 2980.17L1565.33 2980.52L1565.82 2981.55L1566.72 2981.12ZM1592.37 3035.57L1591.47 3036L1591.74 3036.57H1592.37V3035.57ZM1655.27 3035.57V3103.52H1657.27V3035.57H1655.27ZM1656.27 3102.52H1549.17V3104.52H1656.27V3102.52ZM1550.08 3103.1L1496.08 2987L1494.26 2987.85L1548.26 3103.95L1550.08 3103.1ZM1495.17 2986.42H1392.57V2988.42H1495.17V2986.42ZM1391.57 2987.42V3103.52H1393.57V2987.42H1391.57ZM1392.57 3102.52H1325.07V3104.52H1392.57V3102.52ZM1326.07 3103.52V2919.47H1324.07V3103.52H1326.07ZM1325.07 2920.47H1528.92V2918.47H1325.07V2920.47ZM1528.92 2920.47C1536.25 2920.47 1543.13 2919.1 1549.57 2916.34L1548.78 2914.5C1542.61 2917.15 1535.99 2918.47 1528.92 2918.47V2920.47ZM1549.55 2916.35C1556.27 2913.6 1562.08 2909.78 1566.98 2904.88L1565.56 2903.47C1560.86 2908.17 1555.28 2911.85 1548.79 2914.5L1549.55 2916.35ZM1566.98 2904.88C1571.87 2899.99 1575.69 2894.33 1578.44 2887.92L1576.6 2887.13C1573.95 2893.31 1570.27 2898.76 1565.56 2903.47L1566.98 2904.88ZM1578.44 2887.92C1581.2 2881.49 1582.57 2874.6 1582.57 2867.27H1580.57C1580.57 2874.35 1579.25 2880.96 1576.6 2887.13L1578.44 2887.92ZM1582.57 2867.27C1582.57 2854.42 1578.12 2843.51 1569.23 2834.62L1567.81 2836.03C1576.32 2844.54 1580.57 2854.93 1580.57 2867.27H1582.57ZM1569.23 2834.62C1560.34 2825.72 1549.43 2821.27 1536.57 2821.27V2823.27C1548.91 2823.27 1559.31 2827.52 1567.81 2836.03L1569.23 2834.62ZM1536.57 2821.27H1325.07V2823.27H1536.57V2821.27ZM1326.07 2822.27V2754.32H1324.07V2822.27H1326.07ZM1325.07 2755.32H1536.57V2753.32H1325.07V2755.32ZM1536.57 2755.32C1552.04 2755.32 1566.45 2758.3 1579.82 2764.24L1580.63 2762.41C1566.99 2756.35 1552.3 2753.32 1536.57 2753.32V2755.32ZM1579.82 2764.24C1593.51 2770.19 1605.41 2778.22 1615.51 2788.33L1616.93 2786.92C1606.64 2776.62 1594.53 2768.45 1580.62 2762.41L1579.82 2764.24ZM1615.51 2788.33C1625.62 2798.43 1633.5 2810.32 1639.15 2824.01L1641 2823.24C1635.25 2809.33 1627.22 2797.21 1616.93 2786.92L1615.51 2788.33ZM1639.16 2824.03C1645.1 2837.4 1648.07 2851.81 1648.07 2867.27H1650.07C1650.07 2851.54 1647.05 2836.85 1640.99 2823.22L1639.16 2824.03ZM1648.07 2867.27C1648.07 2880.37 1645.99 2893.01 1641.83 2905.2L1643.72 2905.85C1647.95 2893.44 1650.07 2880.58 1650.07 2867.27H1648.07ZM1641.82 2905.22C1637.95 2917.11 1632.31 2927.96 1624.87 2937.77L1626.47 2938.98C1634.04 2928.99 1639.79 2917.94 1643.72 2905.83L1641.82 2905.22ZM1624.86 2937.79C1617.73 2947.6 1609.1 2956.23 1598.98 2963.67L1600.16 2965.28C1610.44 2957.72 1619.22 2948.95 1626.48 2938.96L1624.86 2937.79ZM1598.98 2963.67C1589.17 2970.8 1578.32 2976.3 1566.41 2980.17L1567.03 2982.08C1579.13 2978.14 1590.17 2972.55 1600.16 2965.28L1598.98 2963.67ZM1565.82 2981.55L1591.47 3036L1593.28 3035.15L1567.63 2980.7L1565.82 2981.55ZM1592.37 3036.57H1656.27V3034.57H1592.37V3036.57ZM2249.88 3035.57H2250.88V3034.57H2249.88V3035.57ZM2249.88 3103.52V3104.52H2250.88V3103.52H2249.88ZM2142.78 3103.52L2141.88 3103.95L2142.15 3104.52H2142.78V3103.52ZM2088.78 2987.42L2089.69 2987L2089.42 2986.42H2088.78V2987.42ZM1986.18 2987.42V2986.42H1985.18V2987.42H1986.18ZM1986.18 3103.52V3104.52H1987.18V3103.52H1986.18ZM1918.68 3103.52H1917.68V3104.52H1918.68V3103.52ZM1918.68 2919.47V2918.47H1917.68V2919.47H1918.68ZM2142.78 2915.42L2142.41 2914.5L2142.4 2914.5L2142.39 2914.5L2142.78 2915.42ZM2159.88 2904.17L2159.18 2903.47L2159.18 2903.47L2159.88 2904.17ZM2162.13 2835.32L2161.43 2836.03L2161.43 2836.03L2162.13 2835.32ZM1918.68 2822.27H1917.68V2823.27H1918.68V2822.27ZM1918.68 2754.32V2753.32H1917.68V2754.32H1918.68ZM2173.83 2763.32L2173.43 2764.24L2173.44 2764.24L2173.83 2763.32ZM2209.83 2787.62L2209.13 2788.33L2209.13 2788.33L2209.83 2787.62ZM2233.68 2823.62L2232.76 2824.01L2232.77 2824.02L2232.77 2824.03L2233.68 2823.62ZM2236.38 2905.52L2235.44 2905.2L2235.44 2905.21L2235.43 2905.22L2236.38 2905.52ZM2219.28 2938.37L2218.49 2937.77L2218.48 2937.78L2218.48 2937.79L2219.28 2938.37ZM2193.18 2964.47L2193.77 2965.28L2193.78 2965.28L2193.18 2964.47ZM2160.33 2981.12L2160.03 2980.17L2158.95 2980.52L2159.43 2981.55L2160.33 2981.12ZM2185.98 3035.57L2185.08 3036L2185.35 3036.57H2185.98V3035.57ZM2248.88 3035.57V3103.52H2250.88V3035.57H2248.88ZM2249.88 3102.52H2142.78V3104.52H2249.88V3102.52ZM2143.69 3103.1L2089.69 2987L2087.88 2987.85L2141.88 3103.95L2143.69 3103.1ZM2088.78 2986.42H1986.18V2988.42H2088.78V2986.42ZM1985.18 2987.42V3103.52H1987.18V2987.42H1985.18ZM1986.18 3102.52H1918.68V3104.52H1986.18V3102.52ZM1919.68 3103.52V2919.47H1917.68V3103.52H1919.68ZM1918.68 2920.47H2122.53V2918.47H1918.68V2920.47ZM2122.53 2920.47C2129.86 2920.47 2136.75 2919.1 2143.18 2916.34L2142.39 2914.5C2136.22 2917.15 2129.61 2918.47 2122.53 2918.47V2920.47ZM2143.16 2916.35C2149.88 2913.6 2155.69 2909.78 2160.59 2904.88L2159.18 2903.47C2154.48 2908.17 2148.89 2911.85 2142.41 2914.5L2143.16 2916.35ZM2160.59 2904.88C2165.48 2899.99 2169.3 2894.33 2172.05 2887.92L2170.22 2887.13C2167.57 2893.31 2163.89 2898.76 2159.18 2903.47L2160.59 2904.88ZM2172.05 2887.92C2174.81 2881.49 2176.18 2874.6 2176.18 2867.27H2174.18C2174.18 2874.35 2172.86 2880.96 2170.22 2887.13L2172.05 2887.92ZM2176.18 2867.27C2176.18 2854.42 2171.73 2843.51 2162.84 2834.62L2161.43 2836.03C2169.94 2844.54 2174.18 2854.93 2174.18 2867.27H2176.18ZM2162.84 2834.62C2153.95 2825.72 2143.04 2821.27 2130.18 2821.27V2823.27C2142.53 2823.27 2152.92 2827.52 2161.43 2836.03L2162.84 2834.62ZM2130.18 2821.27H1918.68V2823.27H2130.18V2821.27ZM1919.68 2822.27V2754.32H1917.68V2822.27H1919.68ZM1918.68 2755.32H2130.18V2753.32H1918.68V2755.32ZM2130.18 2755.32C2145.65 2755.32 2160.06 2758.3 2173.43 2764.24L2174.24 2762.41C2160.61 2756.35 2145.92 2753.32 2130.18 2753.32V2755.32ZM2173.44 2764.24C2187.13 2770.19 2199.02 2778.22 2209.13 2788.33L2210.54 2786.92C2200.25 2776.62 2188.14 2768.45 2174.23 2762.41L2173.44 2764.24ZM2209.13 2788.33C2219.23 2798.43 2227.11 2810.32 2232.76 2824.01L2234.61 2823.24C2228.86 2809.33 2220.84 2797.21 2210.54 2786.92L2209.13 2788.33ZM2232.77 2824.03C2238.71 2837.4 2241.68 2851.81 2241.68 2867.27H2243.68C2243.68 2851.54 2240.66 2836.85 2234.6 2823.22L2232.77 2824.03ZM2241.68 2867.27C2241.68 2880.37 2239.6 2893.01 2235.44 2905.2L2237.33 2905.85C2241.57 2893.44 2243.68 2880.58 2243.68 2867.27H2241.68ZM2235.43 2905.22C2231.57 2917.11 2225.92 2927.96 2218.49 2937.77L2220.08 2938.98C2227.65 2928.99 2233.4 2917.94 2237.34 2905.83L2235.43 2905.22ZM2218.48 2937.79C2211.34 2947.6 2202.71 2956.23 2192.59 2963.67L2193.78 2965.28C2204.06 2957.72 2212.83 2948.95 2220.09 2938.96L2218.48 2937.79ZM2192.6 2963.67C2182.78 2970.8 2171.93 2976.3 2160.03 2980.17L2160.64 2982.08C2172.74 2978.14 2183.79 2972.55 2193.77 2965.28L2192.6 2963.67ZM2159.43 2981.55L2185.08 3036L2186.89 3035.15L2161.24 2980.7L2159.43 2981.55ZM2185.98 3036.57H2249.88V3034.57H2185.98V3036.57ZM2412.12 3035.12H2411.12V3036.12H2412.12V3035.12ZM2647.92 3035.12H2648.92V3034.12H2647.92V3035.12ZM2647.92 3102.62V3103.62H2648.92V3102.62H2647.92ZM2344.62 3102.62H2343.62V3103.62H2344.62V3102.62ZM2344.62 2895.62V2894.62H2343.62V2895.62H2344.62ZM2620.92 2895.62H2621.92V2894.62H2620.92V2895.62ZM2620.92 2963.57V2964.57H2621.92V2963.57H2620.92ZM2412.12 2963.57V2962.57H2411.12V2963.57H2412.12ZM2345.97 2821.37H2344.97V2822.37H2345.97V2821.37ZM2345.97 2753.87V2752.87H2344.97V2753.87H2345.97ZM2657.37 2753.87H2658.37V2752.87H2657.37V2753.87ZM2657.37 2821.37V2822.37H2658.37V2821.37H2657.37ZM2412.12 3036.12H2647.92V3034.12H2412.12V3036.12ZM2646.92 3035.12V3102.62H2648.92V3035.12H2646.92ZM2647.92 3101.62H2344.62V3103.62H2647.92V3101.62ZM2345.62 3102.62V2895.62H2343.62V3102.62H2345.62ZM2344.62 2896.62H2620.92V2894.62H2344.62V2896.62ZM2619.92 2895.62V2963.57H2621.92V2895.62H2619.92ZM2620.92 2962.57H2412.12V2964.57H2620.92V2962.57ZM2411.12 2963.57V3035.12H2413.12V2963.57H2411.12ZM2346.97 2821.37V2753.87H2344.97V2821.37H2346.97ZM2345.97 2754.87H2657.37V2752.87H2345.97V2754.87ZM2656.37 2753.87V2821.37H2658.37V2753.87H2656.37ZM2657.37 2820.37H2345.97V2822.37H2657.37V2820.37ZM2749.57 3103.52H2748.57V3104.52H2749.57V3103.52ZM2749.57 2875.82V2874.82H2748.57V2875.82H2749.57ZM2817.07 2875.82H2818.07V2874.82H2817.07V2875.82ZM2817.07 3103.52V3104.52H2818.07V3103.52H2817.07ZM3115.87 2753.87H3116.87V2752.87H3115.87V2753.87ZM3115.87 3103.52V3104.52H3116.87V3103.52H3115.87ZM3038.02 3103.52L3037.25 3104.16L3037.55 3104.52H3038.02V3103.52ZM2749.57 2753.87V2752.87H2747.45L2748.8 2754.51L2749.57 2753.87ZM2837.32 2753.87L2838.09 2753.24L2837.79 2752.87H2837.32V2753.87ZM3048.37 3009.02L3047.6 3009.66L3049.37 3011.8V3009.02H3048.37ZM3048.37 2753.87V2752.87H3047.37V2753.87H3048.37ZM2750.57 3103.52V2875.82H2748.57V3103.52H2750.57ZM2749.57 2876.82H2817.07V2874.82H2749.57V2876.82ZM2816.07 2875.82V3103.52H2818.07V2875.82H2816.07ZM2817.07 3102.52H2749.57V3104.52H2817.07V3102.52ZM3114.87 2753.87V3103.52H3116.87V2753.87H3114.87ZM3115.87 3102.52H3038.02V3104.52H3115.87V3102.52ZM3038.79 3102.89L2750.34 2753.24L2748.8 2754.51L3037.25 3104.16L3038.79 3102.89ZM2749.57 2754.87H2837.32V2752.87H2749.57V2754.87ZM2836.55 2754.51L3047.6 3009.66L3049.14 3008.39L2838.09 2753.24L2836.55 2754.51ZM3049.37 3009.02V2753.87H3047.37V3009.02H3049.37ZM3048.37 2754.87H3115.87V2752.87H3048.37V2754.87ZM3505.99 2753.87H3506.99V2752.87H3505.99V2753.87ZM3505.99 2821.37V2822.37H3506.99V2821.37H3505.99ZM3389.44 2821.37V2820.37H3388.44V2821.37H3389.44ZM3389.44 3103.52V3104.52H3390.44V3103.52H3389.44ZM3321.49 3103.52H3320.49V3104.52H3321.49V3103.52ZM3321.49 2753.87V2752.87H3320.49V2753.87H3321.49ZM3204.94 2821.37H3203.94V2822.37H3204.94V2821.37ZM3204.94 2753.87V2752.87H3203.94V2753.87H3204.94ZM3293.59 2753.87H3294.59V2752.87H3293.59V2753.87ZM3293.59 2821.37V2822.37H3294.59V2821.37H3293.59ZM3504.99 2753.87V2821.37H3506.99V2753.87H3504.99ZM3505.99 2820.37H3389.44V2822.37H3505.99V2820.37ZM3388.44 2821.37V3103.52H3390.44V2821.37H3388.44ZM3389.44 3102.52H3321.49V3104.52H3389.44V3102.52ZM3322.49 3103.52V2753.87H3320.49V3103.52H3322.49ZM3321.49 2754.87H3505.99V2752.87H3321.49V2754.87ZM3205.94 2821.37V2753.87H3203.94V2821.37H3205.94ZM3204.94 2754.87H3293.59V2752.87H3204.94V2754.87ZM3292.59 2753.87V2821.37H3294.59V2753.87H3292.59ZM3293.59 2820.37H3204.94V2822.37H3293.59V2820.37ZM3584.93 3098.57L3584.5 3099.48L3584.53 3099.49L3584.57 3099.51L3584.93 3098.57ZM3571.43 3089.12L3570.72 3089.83L3570.72 3089.83L3571.43 3089.12ZM3561.98 3075.62L3561.05 3075.99L3561.06 3076.02L3561.07 3076.05L3561.98 3075.62ZM3561.98 3041.87L3561.07 3041.47L3561.06 3041.48L3561.05 3041.49L3561.98 3041.87ZM3571.43 3027.92L3572.14 3028.63L3572.15 3028.62L3572.16 3028.6L3571.43 3027.92ZM3584.93 3018.47L3585.31 3019.4L3585.32 3019.39L3585.34 3019.39L3584.93 3018.47ZM3631.73 3027.92L3631 3028.61L3631.01 3028.62L3631.02 3028.63L3631.73 3027.92ZM3631.73 3089.12L3631.02 3088.42L3631.02 3088.42L3631.01 3088.43L3631.73 3089.12ZM3601.58 3100.72C3596.01 3100.72 3590.58 3099.7 3585.29 3097.64L3584.57 3099.51C3590.08 3101.65 3595.75 3102.72 3601.58 3102.72V3100.72ZM3585.36 3097.67C3580.36 3095.32 3575.95 3092.23 3572.14 3088.42L3570.72 3089.83C3574.71 3093.81 3579.3 3097.03 3584.5 3099.48L3585.36 3097.67ZM3572.14 3088.42C3568.32 3084.6 3565.24 3080.2 3562.88 3075.2L3561.07 3076.05C3563.52 3081.25 3566.74 3085.85 3570.72 3089.83L3572.14 3088.42ZM3562.91 3075.26C3560.86 3069.98 3559.83 3064.4 3559.83 3058.52H3557.83C3557.83 3064.64 3558.9 3070.47 3561.05 3075.99L3562.91 3075.26ZM3559.83 3058.52C3559.83 3052.64 3560.86 3047.22 3562.9 3042.25L3561.05 3041.49C3558.9 3046.72 3557.83 3052.41 3557.83 3058.52H3559.83ZM3562.89 3042.28C3565.25 3036.98 3568.33 3032.44 3572.14 3028.63L3570.72 3027.22C3566.73 3031.21 3563.51 3035.96 3561.07 3041.47L3562.89 3042.28ZM3572.16 3028.6C3575.97 3024.51 3580.35 3021.44 3585.31 3019.4L3584.55 3017.55C3579.31 3019.71 3574.69 3022.94 3570.7 3027.24L3572.16 3028.6ZM3585.34 3019.39C3590.61 3017.04 3596.02 3015.87 3601.58 3015.87V3013.87C3595.73 3013.87 3590.05 3015.11 3584.52 3017.56L3585.34 3019.39ZM3601.58 3015.87C3613.3 3015.87 3623.09 3020.11 3631 3028.61L3632.46 3027.24C3624.17 3018.34 3613.85 3013.87 3601.58 3013.87V3015.87ZM3631.02 3028.63C3639.23 3036.84 3643.33 3046.79 3643.33 3058.52H3645.33C3645.33 3046.26 3641.03 3035.81 3632.44 3027.22L3631.02 3028.63ZM3643.33 3058.52C3643.33 3070.26 3639.23 3080.21 3631.02 3088.42L3632.44 3089.83C3641.03 3081.24 3645.33 3070.79 3645.33 3058.52H3643.33ZM3631.01 3088.43C3623.1 3096.63 3613.32 3100.72 3601.58 3100.72V3102.72C3613.84 3102.72 3624.15 3098.42 3632.45 3089.82L3631.01 3088.43ZM4088.4 3103.52V3104.52H4090.76L4089.12 3102.83L4088.4 3103.52ZM3991.2 3103.52L3990.48 3104.21L3990.77 3104.52H3991.2V3103.52ZM3858 2962.67L3858.73 2961.99L3858.43 2961.67H3858V2962.67ZM3817.05 2962.67V2961.67H3816.05V2962.67H3817.05ZM3817.05 3103.52V3104.52H3818.05V3103.52H3817.05ZM3749.55 3103.52H3748.55V3104.52H3749.55V3103.52ZM3749.55 2894.72V2893.72H3748.55V2894.72H3749.55ZM3846.3 2894.72V2895.72H3846.72L3847.01 2895.43L3846.3 2894.72ZM3986.25 2753.87V2752.87H3985.84L3985.54 2753.17L3986.25 2753.87ZM4081.65 2753.87L4082.36 2754.58L4084.05 2752.87H4081.65V2753.87ZM3913.8 2923.07L3913.09 2922.37L3912.4 2923.07L3913.08 2923.77L3913.8 2923.07ZM3749.55 2866.37H3748.55V2867.37H3749.55V2866.37ZM3749.55 2753.87V2752.87H3748.55V2753.87H3749.55ZM3817.05 2753.87H3818.05V2752.87H3817.05V2753.87ZM3817.05 2866.37V2867.37H3818.05V2866.37H3817.05ZM4088.4 3102.52H3991.2V3104.52H4088.4V3102.52ZM3991.93 3102.84L3858.73 2961.99L3857.28 2963.36L3990.48 3104.21L3991.93 3102.84ZM3858 2961.67H3817.05V2963.67H3858V2961.67ZM3816.05 2962.67V3103.52H3818.05V2962.67H3816.05ZM3817.05 3102.52H3749.55V3104.52H3817.05V3102.52ZM3750.55 3103.52V2894.72H3748.55V3103.52H3750.55ZM3749.55 2895.72H3846.3V2893.72H3749.55V2895.72ZM3847.01 2895.43L3986.96 2754.58L3985.54 2753.17L3845.59 2894.02L3847.01 2895.43ZM3986.25 2754.87H4081.65V2752.87H3986.25V2754.87ZM4080.94 2753.17L3913.09 2922.37L3914.51 2923.78L4082.36 2754.58L4080.94 2753.17ZM3913.08 2923.77L4087.68 3104.22L4089.12 3102.83L3914.52 2922.38L3913.08 2923.77ZM3750.55 2866.37V2753.87H3748.55V2866.37H3750.55ZM3749.55 2754.87H3817.05V2752.87H3749.55V2754.87ZM3816.05 2753.87V2866.37H3818.05V2753.87H3816.05ZM3817.05 2865.37H3749.55V2867.37H3817.05V2865.37ZM4491.34 2894.72H4492.34V2893.72H4491.34V2894.72ZM4491.34 3103.07V3104.07H4492.34V3103.07H4491.34ZM4233.04 3089.57L4232.64 3090.49L4232.65 3090.5L4233.04 3089.57ZM4177.24 3052.22L4176.52 3052.92L4176.53 3052.93L4176.54 3052.94L4177.24 3052.22ZM4139.89 2996.42L4138.97 2996.81L4138.97 2996.82L4139.89 2996.42ZM4139.89 2860.97L4138.97 2860.57L4138.97 2860.58L4139.89 2860.97ZM4177.24 2805.62L4176.53 2804.92L4176.53 2804.92L4177.24 2805.62ZM4233.04 2768.27L4233.43 2769.2L4233.44 2769.19L4233.04 2768.27ZM4457.14 2754.32H4458.14V2753.32H4457.14V2754.32ZM4457.14 2821.82V2822.82H4458.14V2821.82H4457.14ZM4259.14 2830.37L4259.52 2831.3L4259.53 2831.29L4259.14 2830.37ZM4225.39 2853.32L4226.1 2854.03L4226.1 2854.03L4226.11 2854.02L4225.39 2853.32ZM4202.44 2887.07L4203.35 2887.48L4203.35 2887.48L4202.44 2887.07ZM4202.44 2970.32L4201.52 2970.72L4201.52 2970.73L4202.44 2970.32ZM4225.39 3004.07L4226.1 3003.37L4226.1 3003.37L4225.39 3004.07ZM4259.14 3027.02L4258.73 3027.94L4258.74 3027.94L4259.14 3027.02ZM4423.39 3035.57V3036.57H4424.39V3035.57H4423.39ZM4423.39 2962.67H4424.39V2961.67H4423.39V2962.67ZM4308.64 2962.67H4307.64V2963.67H4308.64V2962.67ZM4308.64 2894.72V2893.72H4307.64V2894.72H4308.64ZM4490.34 2894.72V3103.07H4492.34V2894.72H4490.34ZM4491.34 3102.07H4300.99V3104.07H4491.34V3102.07ZM4300.99 3102.07C4277.12 3102.07 4254.6 3097.6 4233.43 3088.65L4232.65 3090.5C4254.08 3099.55 4276.86 3104.07 4300.99 3104.07V3102.07ZM4233.44 3088.66C4212.25 3079.4 4193.75 3067.02 4177.94 3051.51L4176.54 3052.94C4192.53 3068.63 4211.23 3081.14 4232.64 3090.49L4233.44 3088.66ZM4177.95 3051.52C4162.44 3035.71 4150.06 3017.22 4140.8 2996.02L4138.97 2996.82C4148.32 3018.23 4160.84 3036.93 4176.52 3052.92L4177.95 3051.52ZM4140.81 2996.03C4131.86 2974.86 4127.39 2952.35 4127.39 2928.47H4125.39C4125.39 2952.6 4129.91 2975.39 4138.97 2996.81L4140.81 2996.03ZM4127.39 2928.47C4127.39 2904.6 4131.86 2882.24 4140.81 2861.37L4138.97 2860.58C4129.91 2881.71 4125.39 2904.35 4125.39 2928.47H4127.39ZM4140.8 2861.37C4150.06 2840.18 4162.44 2821.84 4177.95 2806.33L4176.53 2804.92C4160.84 2820.61 4148.32 2839.17 4138.97 2860.57L4140.8 2861.37ZM4177.95 2806.33C4193.75 2790.52 4212.24 2778.15 4233.43 2769.2L4232.65 2767.35C4211.23 2776.4 4192.52 2788.92 4176.53 2804.92L4177.95 2806.33ZM4233.44 2769.19C4254.61 2759.95 4277.12 2755.32 4300.99 2755.32V2753.32C4276.86 2753.32 4254.07 2758 4232.64 2767.36L4233.44 2769.19ZM4300.99 2755.32H4457.14V2753.32H4300.99V2755.32ZM4456.14 2754.32V2821.82H4458.14V2754.32H4456.14ZM4457.14 2820.82H4300.99V2822.82H4457.14V2820.82ZM4300.99 2820.82C4286.16 2820.82 4272.07 2823.7 4258.74 2829.46L4259.53 2831.29C4272.61 2825.65 4286.42 2822.82 4300.99 2822.82V2820.82ZM4258.75 2829.45C4245.73 2834.9 4234.37 2842.63 4224.67 2852.63L4226.11 2854.02C4235.61 2844.22 4246.75 2836.65 4259.52 2831.3L4258.75 2829.45ZM4224.68 2852.62C4214.99 2862.31 4207.27 2873.66 4201.52 2886.67L4203.35 2887.48C4209.01 2874.69 4216.59 2863.54 4226.1 2854.03L4224.68 2852.62ZM4201.52 2886.67C4195.76 2899.7 4192.89 2913.64 4192.89 2928.47H4194.89C4194.89 2913.91 4197.71 2900.25 4203.35 2887.48L4201.52 2886.67ZM4192.89 2928.47C4192.89 2943.31 4195.76 2957.39 4201.52 2970.72L4203.36 2969.93C4197.71 2956.86 4194.89 2943.04 4194.89 2928.47H4192.89ZM4201.52 2970.73C4207.27 2983.74 4214.99 2995.09 4224.68 3004.78L4226.1 3003.37C4216.59 2993.86 4209.01 2982.71 4203.35 2969.92L4201.52 2970.73ZM4224.68 3004.78C4234.37 3014.47 4245.73 3022.19 4258.73 3027.94L4259.54 3026.11C4246.75 3020.46 4235.6 3012.88 4226.1 3003.37L4224.68 3004.78ZM4258.74 3027.94C4272.07 3033.7 4286.16 3036.57 4300.99 3036.57V3034.57C4286.42 3034.57 4272.61 3031.75 4259.53 3026.11L4258.74 3027.94ZM4300.99 3036.57H4423.39V3034.57H4300.99V3036.57ZM4424.39 3035.57V2962.67H4422.39V3035.57H4424.39ZM4423.39 2961.67H4308.64V2963.67H4423.39V2961.67ZM4309.64 2962.67V2894.72H4307.64V2962.67H4309.64ZM4308.64 2895.72H4491.34V2893.72H4308.64V2895.72Z"
            fill="white" mask="url(#path-3-outside-2_230_959)" />
    </g>
    <defs>
        <clipPath id="clip0_230_959">
            <rect width="5000" height="5000" fill="white" />
        </clipPath>
    </defs>
</svg>
