<svg xmlns="http://www.w3.org/2000/svg" version="1.1" width="120" height="120">
    <svg width="120" height="120" viewBox="0 0 120 120" fill="none"
        xmlns="http://www.w3.org/2000/svg">
        <mask id="SvgjsMask1028" style="mask-type:luminance" maskUnits="userSpaceOnUse" x="0" y="0"
            width="120" height="120">
            <path d="M120 0H0V120H120V0Z" fill="white"></path>
        </mask>
        <g mask="url(#mask0_4582_193)">
            <mask id="SvgjsMask1027" style="mask-type:luminance" maskUnits="userSpaceOnUse" x="2"
                y="40" width="116" height="26">
                <path d="M2.31641 40.7227H117.684V65.3255H2.31641V40.7227Z" fill="white"></path>
            </mask>
            <g mask="url(#mask1_4582_193)">
                <path
                    d="M117.274 53.4057L116.564 53.4534C116.485 53.4578 116.407 53.4613 116.327 53.4649L115.854 53.487C115.697 53.4921 115.539 53.4946 115.382 53.4992C115.067 53.5107 114.751 53.5069 114.437 53.5099C114.358 53.5107 114.279 53.5088 114.201 53.5069L113.729 53.4992L113.612 53.4965L113.494 53.4921C113.18 53.478 112.866 53.4701 112.554 53.4463C112.397 53.4357 112.241 53.4278 112.085 53.4147L111.618 53.3741C111.54 53.3673 111.462 53.3618 111.384 53.3528L111.152 53.3266L110.686 53.2737L110.223 53.2113L109.991 53.1797L109.761 53.1418L109.3 53.0668L108.842 52.9806L108.613 52.9375C108.537 52.9234 108.461 52.9051 108.386 52.889L107.931 52.7906C107.855 52.7756 107.78 52.7554 107.705 52.7369L107.48 52.6815C107.33 52.6444 107.177 52.6101 107.033 52.5678L106.596 52.4473L106.486 52.4173L106.371 52.3821L106.14 52.3118L105.794 52.206L105.698 52.1724L105.257 52.0214L104.817 51.8708C104.743 51.8469 104.671 51.819 104.598 51.7907L104.379 51.707L103.943 51.5415L103.725 51.4577C103.652 51.4308 103.58 51.3989 103.508 51.3691L102.642 51.01L101.782 50.6269C101.639 50.5653 101.496 50.4966 101.354 50.4298L100.926 50.2283L100.712 50.1277L100.606 50.0778L100.499 50.0249L100.073 49.8163L99.6471 49.6077C99.5053 49.5373 99.3638 49.4642 99.2223 49.3931L98.7964 49.1782C98.6548 49.1071 98.513 49.0356 98.3715 48.9614L97.5208 48.5222L95.8098 47.6344L94.9473 47.1915L94.5146 46.9696L94.0791 46.7506L93.6418 46.533L93.4236 46.424L93.2028 46.3174L92.3177 45.8923L91.4214 45.4822C91.2734 45.4126 91.1168 45.3475 90.9639 45.2807L90.5001 45.0816L90.2688 44.9832L90.1527 44.9338L90.0412 44.8888L89.5932 44.711L89.1443 44.5333L89.0882 44.5112L89.0126 44.4831L88.897 44.4397L88.6669 44.3555L88.205 44.1856L87.9746 44.1003C87.8977 44.073 87.8197 44.0463 87.742 44.0193L86.813 43.697L85.8769 43.3932C85.7989 43.3679 85.7212 43.3422 85.6421 43.3177L85.4074 43.2463L84.9357 43.1037C84.7791 43.0562 84.6215 43.0079 84.4642 42.9621L83.99 42.8291C83.674 42.7405 83.3585 42.6497 83.0398 42.5695L82.3246 42.3849L82.2051 42.3538L82.0854 42.3249L81.1264 42.0978C78.5617 41.5202 75.9577 41.1058 73.3343 40.8953L72.8424 40.8549L72.7194 40.8451L72.5946 40.8383L71.8477 40.7933C71.6822 40.7835 71.5134 40.772 71.3547 40.7677L70.3906 40.7325L70.3167 40.73L70.2553 40.7292L70.1329 40.7262L69.8875 40.723L69.3975 40.714C69.0708 40.7063 68.7439 40.7088 68.4164 40.7088C68.0892 40.7096 67.7617 40.7063 67.4348 40.7156L66.4537 40.7352L65.4718 40.7729L65.2264 40.7827C65.1446 40.7862 65.0628 40.7925 64.9808 40.7966L64.49 40.8268L64 40.8558C63.9182 40.8604 63.8364 40.8664 63.7546 40.8735L63.5092 40.8934C63.1828 40.9209 62.8564 40.9446 62.5289 40.9746L61.5508 41.0777L61.306 41.1031L61.0617 41.135L60.0852 41.2615C59.9224 41.2844 59.7605 41.3106 59.5977 41.3354L59.1112 41.412L58.8675 41.4499L58.7461 41.4693L58.6248 41.4922L57.6544 41.671C57.4927 41.698 57.3323 41.7343 57.1715 41.7687L56.6883 41.8717L56.2065 41.9753L55.7266 42.0931L55.2464 42.2112L55.0073 42.2701C54.9271 42.2897 54.8478 42.3135 54.7687 42.3355L53.8168 42.6003L53.6982 42.6347L53.3434 42.7456L52.872 42.8934L52.6361 42.9684C52.5579 42.9938 52.4788 43.0159 52.4005 43.0448L51.9272 43.2119L51.4546 43.3793L51.2188 43.4628L50.9944 43.5511L50.0973 43.9048L50.025 43.9331L49.9686 43.9577L49.8543 44.007L49.6272 44.1054L49.1724 44.3037C49.0194 44.3669 48.8716 44.4389 48.7219 44.5085L48.2761 44.7198C47.9759 44.8561 47.6858 45.0093 47.3927 45.1558C47.2468 45.2305 47.099 45.3017 46.9539 45.3783L46.5217 45.6081C45.3675 46.2197 44.2449 46.8695 43.1311 47.5147C42.0172 48.1614 40.9143 48.803 39.7971 49.4062C39.5187 49.561 39.2376 49.7037 38.9568 49.8514C38.8158 49.9237 38.677 49.9995 38.5355 50.0688L38.1112 50.2784L37.6864 50.487C37.5446 50.5547 37.4012 50.6182 37.2577 50.6842L36.8294 50.8805C36.6859 50.9481 36.5436 51.0029 36.401 51.0643L35.9726 51.2432L35.7589 51.332C35.685 51.361 35.6086 51.3882 35.5336 51.4166L35.0813 51.5856L34.8561 51.6691L34.7429 51.7116C34.7216 51.7192 34.741 51.7124 34.7287 51.7168L34.7012 51.7255L34.6461 51.7438C34.0653 51.9456 33.4643 52.1103 32.8566 52.2569C31.6391 52.5512 30.3842 52.7598 29.1185 52.9593C28.4859 53.06 27.8489 53.1568 27.2101 53.2615L26.9699 53.3002L26.7291 53.3416C26.5688 53.3689 26.4052 53.3954 26.2486 53.4243L25.2995 53.5985C24.0405 53.8273 22.7726 54.0386 21.5042 54.2589C18.9659 54.699 16.4182 55.1688 13.9143 55.8565C12.6633 56.2014 11.4229 56.5992 10.2157 57.0922C9.61243 57.3384 9.0177 57.6087 8.43702 57.9081L8.32795 57.9637L8.21979 58.0218L8.00399 58.1387C7.8606 58.217 7.72009 58.3007 7.57756 58.3809C7.4376 58.4662 7.29679 58.5488 7.15858 58.6369C7.02148 58.7266 6.88239 58.8128 6.74788 58.9071L6.54553 59.0462L6.34662 59.1904C6.21298 59.2856 6.08447 59.3878 5.95424 59.489C5.88929 59.5381 5.82661 59.5913 5.76335 59.6439L5.57419 59.8012L5.39044 59.9651C5.32863 60.0199 5.26708 60.0733 5.20813 60.1314L5.02956 60.3013L4.98577 60.3436L4.85641 60.4766C4.80003 60.5355 4.74107 60.5936 4.68553 60.6544L4.52013 60.8374C4.49292 60.8682 4.46489 60.8982 4.43855 60.929L4.35928 61.0239L4.20187 61.2134L4.05132 61.4089C4.00123 61.4738 3.9503 61.5389 3.90452 61.6068L3.76284 61.8083C3.73824 61.8419 3.71618 61.8762 3.69415 61.9114L3.62718 62.015L3.56136 62.1189C3.53846 62.1533 3.51643 62.1876 3.49611 62.2239L3.37218 62.4369C3.35187 62.472 3.32984 62.5072 3.31151 62.5435L3.13979 62.8707L3.03532 63.0934C3.001 63.1673 2.96492 63.2415 2.93487 63.3178L2.84072 63.545L2.81782 63.6023L2.79693 63.6595L2.75458 63.7754C2.7274 63.8523 2.69819 63.9286 2.67273 64.0063L2.59973 64.2414L2.56281 64.3581C2.55139 64.3971 2.54165 64.4374 2.53105 64.477L2.46866 64.7156L2.45293 64.7753C2.4475 64.7949 2.44406 64.8151 2.43976 64.8344L2.36305 65.1884C2.34817 65.2579 2.39111 65.3266 2.4598 65.3449C2.53105 65.3634 2.60317 65.3203 2.62176 65.2489L2.68159 65.015L2.71136 64.8988C2.71679 64.8794 2.72107 64.859 2.72652 64.8407L2.74398 64.7835L2.81266 64.558C2.82411 64.5211 2.83385 64.4832 2.84702 64.4464L2.8865 64.3335L2.96579 64.1102C2.99382 64.0369 3.02475 63.9638 3.05365 63.8899L3.09858 63.7808L3.12062 63.7263L3.14524 63.6726L3.24367 63.4572C3.27544 63.3849 3.31239 63.3154 3.34843 63.2448L3.4566 63.0345L3.57366 62.8295L3.63177 62.7272C3.65093 62.6929 3.67299 62.6604 3.69415 62.6269L3.82007 62.427C3.84011 62.3927 3.86302 62.3613 3.88505 62.3286L3.95289 62.2318L4.01956 62.135C4.04159 62.1023 4.06449 62.0698 4.08824 62.0388L4.23077 61.8506C4.27742 61.7871 4.32836 61.7274 4.37875 61.6666L4.52814 61.4852L4.68553 61.3091L4.76482 61.2221C4.79114 61.1929 4.81947 61.1648 4.84581 61.1368L5.01036 60.9666C5.06476 60.9115 5.12284 60.8575 5.18007 60.8033L5.26452 60.7212L5.30774 60.6806L5.35153 60.6421L5.52754 60.4845C5.58562 60.4316 5.64716 60.3823 5.70783 60.3321L5.88929 60.1816L6.07645 60.0373C6.13827 59.9888 6.20066 59.9405 6.26476 59.8947C6.39243 59.8023 6.51922 59.709 6.65114 59.6226L6.84631 59.4906L7.04694 59.3641C7.17802 59.2777 7.31626 59.1994 7.45077 59.1176C7.51858 59.0773 7.58787 59.0391 7.65656 59.0004L7.86231 58.8842C8.00312 58.8111 8.14137 58.7356 8.28217 58.6642L8.4951 58.5586L8.60071 58.506L8.70803 58.4548C9.27985 58.1835 9.86484 57.9408 10.4604 57.7196C11.6499 57.2787 12.8753 56.9292 14.114 56.6317C15.3527 56.3342 16.6073 56.0907 17.8672 55.8739C19.1278 55.6574 20.3947 55.4698 21.6659 55.2893C22.937 55.1091 24.2126 54.9368 25.4903 54.741L26.4439 54.5951C26.6031 54.5703 26.758 54.5501 26.9156 54.5272L27.1504 54.4945L27.3879 54.4631C28.0215 54.3786 28.6582 54.3001 29.2979 54.2183C29.9384 54.1362 30.5806 54.05 31.2246 53.9524C31.8684 53.854 32.5141 53.7395 33.16 53.6028C33.8057 53.4665 34.4514 53.3092 35.0911 53.1066L35.1516 53.088L35.1819 53.079C35.1887 53.0774 35.2277 53.0643 35.2247 53.0651L35.3384 53.0264L35.5669 52.9479L36.0234 52.7922C36.0994 52.7668 36.175 52.7412 36.2516 52.7139L36.4855 52.6242L36.9529 52.4445C37.2684 52.3284 37.5667 52.1964 37.8704 52.0688C38.0215 52.0045 38.1736 51.9412 38.3233 51.8749L38.7702 51.671L39.2172 51.4659C39.3658 51.3972 39.5111 51.3233 39.6578 51.2519C39.9509 51.1085 40.2476 50.9678 40.535 50.817C41.6974 50.2275 42.833 49.6041 43.96 48.9882C45.0869 48.3711 46.2095 47.7647 47.3408 47.1959L47.7651 46.9829C47.9066 46.9123 48.0492 46.8466 48.1919 46.7787C48.4768 46.6451 48.759 46.5041 49.0478 46.3798L49.4778 46.1897C49.6212 46.1257 49.7638 46.0605 49.9089 46.0041L50.3435 45.8271L50.56 45.7393L50.6691 45.6951L50.7225 45.6722C50.7239 45.6722 50.7244 45.6719 50.7244 45.6714C50.7244 45.6722 50.7255 45.6722 50.7348 45.6679L50.7631 45.6575L51.6684 45.3254L51.8953 45.2419L52.1156 45.1697L52.5562 45.0263L52.996 44.882C53.0683 44.8561 53.1455 44.837 53.2202 44.8141L53.4454 44.7489L54.1219 44.5518L54.2356 44.5183L54.349 44.4894L55.2606 44.2551C55.3361 44.2366 55.4119 44.2145 55.4883 44.1979L55.7178 44.1469L56.1773 44.0438L56.6365 43.9418L57.0992 43.853L57.5608 43.7632C57.7149 43.7341 57.869 43.7022 58.0246 43.6793L58.9547 43.5282L59.0714 43.5086L59.1876 43.493L59.4218 43.4611L59.8889 43.3987C60.0454 43.3774 60.2003 43.3545 60.3571 43.3362L60.8258 43.2858L61.2956 43.2348L61.5296 43.2094L61.7654 43.1901L62.7067 43.1118C63.0211 43.0906 63.3357 43.0747 63.6509 43.0554L63.8865 43.0415C63.9648 43.0368 64.0441 43.0325 64.1224 43.03L65.0683 42.9981C65.1471 42.9965 65.2256 42.9929 65.305 42.9913L66.4881 42.9779L67.4348 42.9875C67.7503 42.9883 68.0663 43.0006 68.3821 43.0104C68.6981 43.0202 69.0136 43.0281 69.3296 43.0464L70.2632 43.0941L71.2255 43.1636C71.3883 43.1735 71.5396 43.1901 71.6953 43.2043L72.158 43.2482L72.3903 43.2703L72.5057 43.2817L72.6226 43.2948L73.0905 43.3504C75.5866 43.6381 78.0594 44.1207 80.4998 44.7258C81.7192 45.0323 82.9307 45.3747 84.1343 45.7445L84.5847 45.8844L84.81 45.955L85.0352 46.028L85.9325 46.322L86.8264 46.6298C86.9 46.6555 86.975 46.6803 87.0497 46.7065L87.2716 46.7866L87.7166 46.9478L87.9394 47.0268L88.0501 47.0675L88.0785 47.077C88.0793 47.0778 88.1145 47.0912 88.0877 47.0806L88.1442 47.1018L88.5938 47.2752L89.1569 47.4909L89.264 47.5346L89.477 47.6229L89.9029 47.798C90.0444 47.856 90.1862 47.9122 90.3313 47.9768L91.1954 48.3526L92.0592 48.7425L92.2754 48.8401L92.4911 48.9407L93.3549 49.3437L93.7879 49.5488L94.6545 49.9605C96.9665 51.0654 99.3223 52.198 101.795 53.1257C103.033 53.5854 104.3 53.986 105.597 54.3055L105.832 54.3625L105.949 54.3909L106.074 54.4173L106.574 54.5228C106.741 54.5599 106.904 54.5853 107.069 54.6153L107.316 54.6592C107.398 54.6731 107.48 54.69 107.562 54.7014L108.057 54.7753C108.139 54.7868 108.221 54.801 108.304 54.8105L108.552 54.8394L109.047 54.8986L109.543 54.9436L109.792 54.9657L110.536 55.0131C110.701 55.021 110.867 55.0254 111.032 55.0316L111.28 55.0404C111.363 55.0439 111.446 55.0431 111.528 55.0447L112.024 55.0491C112.19 55.0507 112.354 55.0447 112.52 55.0431C112.85 55.0412 113.179 55.0246 113.509 55.0115L113.632 55.006L113.755 54.9981L114.248 54.9646C114.329 54.9591 114.412 54.9542 114.494 54.946C114.821 54.9155 115.148 54.8899 115.475 54.8492C115.572 54.8378 115.67 54.8263 115.767 54.8149C115.705 54.9013 115.64 54.9867 115.583 55.0764C115.391 55.373 115.225 55.6874 115.093 56.0174C114.961 56.3476 114.865 56.6925 114.811 57.0437C114.783 57.2196 114.769 57.3965 114.762 57.5735C114.756 57.7505 114.763 57.9266 114.78 58.1019C114.796 58.2759 114.823 58.4496 114.861 58.6192C114.877 58.7037 114.901 58.7874 114.922 58.8709C114.947 58.9538 114.969 59.0375 114.999 59.1184C115.044 59.2548 115.097 59.387 115.154 59.5174C115.063 59.4448 114.971 59.3726 114.876 59.3041C114.813 59.2583 114.75 59.2133 114.687 59.1675C114.623 59.1228 114.559 59.0789 114.495 59.0347L114.399 58.9677C114.366 58.9447 114.335 58.9232 114.302 58.9011L114.108 58.77L114.012 58.7037L113.913 58.6404C113.848 58.5982 113.783 58.5559 113.717 58.5137C113.586 58.4308 113.454 58.3509 113.324 58.2718C113.158 58.1739 112.994 58.0815 112.83 57.9926C112.649 57.8481 112.463 57.7038 112.265 57.5612C111.986 57.3581 111.692 57.1538 111.383 56.9521C111.305 56.9022 111.227 56.852 111.148 56.8016C111.069 56.7522 110.988 56.7031 110.908 56.653C110.826 56.6047 110.744 56.5553 110.662 56.5057C110.578 56.4583 110.494 56.4097 110.409 56.3615C109.73 55.9778 108.99 55.6133 108.194 55.2931C107.795 55.132 107.385 54.9804 106.96 54.8386C106.537 54.6971 106.102 54.5678 105.656 54.447C104.764 54.2076 103.83 54.0132 102.865 53.8548C102.384 53.7755 101.894 53.7059 101.399 53.6435C100.902 53.5819 100.4 53.5281 99.8925 53.4807C99.6384 53.4567 99.3831 53.4357 99.1274 53.4155C98.997 53.4057 98.8667 53.3962 98.7358 53.3863C98.6082 53.3779 98.4795 53.3697 98.3519 53.3618L98.1586 53.3495C98.0926 53.3468 98.0258 53.3435 97.9595 53.3405C97.8267 53.3345 97.6939 53.3283 97.5603 53.3231C97.2964 53.316 97.0305 53.3046 96.7633 53.3026C96.23 53.2923 95.6917 53.2986 95.1496 53.3133C95.0144 53.3179 94.8786 53.3223 94.7434 53.3255C94.607 53.3321 94.4715 53.3381 94.3352 53.3444C94.1986 53.3504 94.0625 53.3591 93.9259 53.3673C93.7896 53.3749 93.6532 53.3828 93.5161 53.3934C92.4227 53.4692 91.32 53.5889 90.2189 53.7403C88.0149 54.0413 85.8153 54.4604 83.6274 54.8026C83.0793 54.8871 82.5348 54.9665 81.9867 55.0412C81.4351 55.1145 80.8846 55.1873 80.3343 55.2604C79.7846 55.3319 79.2357 55.4022 78.6885 55.4682C78.1423 55.5358 77.5967 55.601 77.053 55.6629C74.8784 55.9118 72.7372 56.1144 70.6616 56.2489C68.5863 56.3844 66.5778 56.4531 64.6729 56.4471C63.721 56.4433 62.795 56.4223 61.8998 56.3844C61.0052 56.3456 60.1414 56.2868 59.3136 56.2172C58.4857 56.145 57.6939 56.0544 56.9416 55.9565C56.1904 55.8573 55.4806 55.7436 54.8134 55.6255C54.1486 55.5066 53.5272 55.3785 52.9546 55.2525C52.812 55.2198 52.6721 55.1873 52.535 55.1565C52.3986 55.123 52.2647 55.0905 52.1339 55.0589C52.0035 55.0281 51.8759 54.9957 51.7521 54.9638C51.6281 54.9313 51.5056 54.9021 51.3886 54.8697C51.1539 54.8064 50.9303 54.7472 50.7225 54.6867C50.6181 54.6565 50.5158 54.6286 50.4182 54.6003C50.3217 54.5714 50.2273 54.543 50.1357 54.5158C49.9539 54.4631 49.7875 54.4083 49.6335 54.3609C49.4797 54.3142 49.3414 54.2682 49.2166 54.2278C49.0925 54.1866 48.9815 54.1523 48.8874 54.1196C48.7934 54.0871 48.7132 54.0599 48.6491 54.0386C48.5215 53.9947 48.4547 53.9718 48.4547 53.9718C48.4547 53.9718 48.518 54.0018 48.6409 54.059C48.7636 54.1163 48.9455 54.2033 49.1857 54.308C49.3052 54.3617 49.4401 54.4214 49.5887 54.4841C49.7374 54.5474 49.899 54.6161 50.076 54.6867C50.1638 54.7227 50.2562 54.7598 50.3506 54.7974C50.4455 54.8361 50.545 54.873 50.647 54.9128C50.8501 54.9927 51.0685 55.0712 51.2998 55.1557C52.2236 55.4892 53.362 55.8538 54.6921 56.19C55.3563 56.3606 56.0682 56.521 56.8238 56.6712C57.5786 56.8236 58.3767 56.9594 59.2132 57.0808C60.8858 57.3226 62.7113 57.4971 64.6456 57.5858C66.5794 57.6741 68.6226 57.6766 70.7303 57.5983C72.8381 57.5209 75.0112 57.3633 77.2106 57.1457C77.7603 57.0914 78.3119 57.0333 78.8646 56.9725C79.4168 56.9106 79.9703 56.8457 80.5244 56.7795C80.8017 56.7454 81.0787 56.711 81.3568 56.6767C81.6342 56.6415 81.9112 56.6063 82.1882 56.5703L82.6068 56.5147C82.7469 56.4964 82.8868 56.4776 83.0267 56.4574C83.3064 56.4187 83.5854 56.3767 83.8632 56.3342C86.0918 55.9936 88.2808 55.5669 90.4324 55.2558C90.9701 55.177 91.5059 55.1055 92.039 55.0431C92.5718 54.9804 93.1024 54.9242 93.6303 54.8811C94.6853 54.792 95.7288 54.7437 96.7562 54.7393C97.0131 54.7358 97.268 54.741 97.5235 54.7418C97.6489 54.7445 97.7749 54.7483 97.8998 54.7508C97.9633 54.7524 98.0258 54.7532 98.088 54.7552C98.1526 54.7568 98.2166 54.7595 98.2807 54.7622C98.4092 54.7666 98.5376 54.7721 98.6655 54.7772C98.7901 54.7827 98.9144 54.7876 99.0382 54.7942C99.1642 54.8002 99.2899 54.8072 99.4148 54.8132C99.5397 54.8203 99.6648 54.8271 99.7886 54.8345C100.287 54.8634 100.778 54.8994 101.26 54.9417C101.744 54.9831 102.221 55.0333 102.689 55.0895C103.157 55.1459 103.617 55.2122 104.069 55.2861C104.52 55.3589 104.962 55.4426 105.393 55.535C106.257 55.7207 107.08 55.9426 107.855 56.2039C108.63 56.4662 109.357 56.7628 110.032 57.0851C110.369 57.2471 110.693 57.4142 111.005 57.5841C111.316 57.7548 111.614 57.9301 111.899 58.1063C112.184 58.2822 112.457 58.4583 112.716 58.6358C112.976 58.812 113.224 58.9881 113.458 59.1626C113.692 59.3349 113.914 59.5059 114.125 59.6722C114.308 59.8173 114.482 59.9583 114.647 60.0954C114.671 60.12 114.696 60.1437 114.72 60.1685C114.824 60.2672 114.922 60.3692 115.022 60.4652C115.222 60.6577 115.416 60.842 115.601 61.0171C115.694 61.1043 115.781 61.1921 115.866 61.2766C115.909 61.3181 115.953 61.3584 115.994 61.3999C116.034 61.4413 116.075 61.482 116.114 61.5215C116.275 61.6788 116.414 61.8296 116.546 61.9597C116.579 61.9913 116.607 62.0257 116.637 62.0565C116.667 62.0884 116.696 62.1189 116.723 62.1481C116.78 62.2062 116.831 62.2591 116.878 62.3073C116.969 62.4058 117.043 62.4843 117.095 62.5361C117.147 62.5882 117.175 62.6154 117.175 62.6154L117.177 62.6171C117.187 62.6261 117.2 62.6296 117.214 62.6269C117.235 62.6215 117.248 62.5996 117.243 62.5786C117.243 62.5786 117.234 62.5399 117.213 62.4685C117.194 62.3965 117.161 62.2926 117.116 62.1604C117.092 62.0952 117.062 62.0257 117.03 61.9482C116.996 61.8716 116.963 61.7863 116.919 61.7009C116.876 61.6148 116.828 61.524 116.777 61.428C116.727 61.3312 116.665 61.2363 116.603 61.1348C116.571 61.0839 116.539 61.0329 116.505 60.9811C116.471 60.9298 116.434 60.8788 116.397 60.8262C116.32 60.7231 116.246 60.613 116.158 60.5099C116.1 60.4363 116.035 60.364 115.971 60.2909C115.903 60.151 115.838 60.0109 115.781 59.8683C115.767 59.8315 115.751 59.7952 115.738 59.7592L115.698 59.6485L115.678 59.5937L115.66 59.5381L115.624 59.4274C115.58 59.2785 115.538 59.1299 115.51 58.9783C115.493 58.9036 115.484 58.828 115.47 58.7531C115.461 58.6775 115.449 58.6025 115.444 58.5267C115.429 58.3765 115.425 58.2257 115.429 58.076C115.43 58.0013 115.436 57.9274 115.441 57.8535C115.449 57.7796 115.457 57.7055 115.468 57.6327C115.49 57.4857 115.52 57.3414 115.558 57.1988C115.597 57.0571 115.644 56.9177 115.7 56.7817C115.755 56.645 115.818 56.512 115.887 56.3819C116.025 56.1212 116.19 55.8756 116.377 55.6441C116.562 55.4137 116.77 55.1988 116.99 54.9989C117.101 54.8994 117.214 54.8042 117.331 54.7148C117.389 54.6706 117.448 54.6267 117.507 54.5853C117.537 54.564 117.566 54.5449 117.595 54.5256L117.638 54.4975L117.658 54.4849C117.664 54.4814 117.673 54.4762 117.673 54.477L117.274 53.4057Z"
                    fill="black"></path>
            </g>
            <path
                d="M10.2513 68.9527C9.85049 68.9527 9.47011 69.0304 9.11019 69.1858C8.75844 69.3331 8.45169 69.5417 8.18992 69.8116C7.92816 70.0734 7.71956 70.3801 7.56414 70.7319C7.40872 71.0836 7.33101 71.4599 7.33101 71.8607C7.33101 72.2615 7.40872 72.6419 7.56414 73.0018C7.71956 73.3536 7.92816 73.6603 8.18992 73.9221C8.45169 74.1839 8.75844 74.3925 9.11019 74.5479C9.47011 74.7033 9.85049 74.781 10.2513 74.781H14.5091V76.6216H10.2513C9.5969 76.6216 8.9793 76.4989 8.39852 76.2535C7.81773 75.9999 7.31056 75.6604 6.87701 75.235C6.45164 74.8015 6.11217 74.2943 5.85859 73.7135C5.61318 73.1327 5.49048 72.5151 5.49048 71.8607C5.49048 71.2063 5.61318 70.5928 5.85859 70.0202C6.11217 69.4394 6.45164 68.9363 6.87701 68.511C7.31056 68.0774 7.81773 67.7379 8.39852 67.4925C8.9793 67.2389 9.5969 67.1122 10.2513 67.1122H14.5091V68.9527H10.2513ZM25.7159 76.6338H23.7404L21.0654 69.6275L18.3906 76.6338H16.4151L20.0593 67.0999H22.0716L25.7159 76.6338ZM36.9941 74.781V76.6338H34.0738L32.6013 73.4681H29.8037V76.6338H27.9632V71.6153H33.5216C33.7179 71.6153 33.902 71.5785 34.0738 71.5049C34.2537 71.4313 34.4092 71.329 34.54 71.1981C34.6709 71.0672 34.7732 70.9159 34.8468 70.7441C34.9204 70.5723 34.9572 70.3883 34.9572 70.192C34.9572 69.8484 34.8386 69.558 34.6014 69.3208C34.3642 69.0836 34.0738 68.965 33.7302 68.965H27.9632V67.1122H33.7302C34.1556 67.1122 34.5523 67.194 34.9204 67.3576C35.2967 67.5212 35.6239 67.742 35.902 68.0201C36.1802 68.2983 36.3969 68.6255 36.5523 69.0018C36.7159 69.3699 36.7977 69.7666 36.7977 70.192C36.7977 70.5519 36.7405 70.8996 36.626 71.2349C36.5196 71.5621 36.3642 71.8607 36.1597 72.1307C35.9634 72.4006 35.7262 72.6378 35.448 72.8423C35.1781 73.0387 34.8795 73.19 34.5523 73.2963L35.2517 74.781H36.9941ZM53.1801 74.781V76.6338H50.2598L48.7874 73.4681H45.9898V76.6338H44.1492V71.6153H49.7076C49.904 71.6153 50.088 71.5785 50.2598 71.5049C50.4398 71.4313 50.5952 71.329 50.7261 71.1981C50.8569 71.0672 50.9592 70.9159 51.0328 70.7441C51.1064 70.5723 51.1432 70.3883 51.1432 70.192C51.1432 69.8484 51.0246 69.558 50.7874 69.3208C50.5502 69.0836 50.2598 68.965 49.9162 68.965H44.1492V67.1122H49.9162C50.3416 67.1122 50.7383 67.194 51.1064 67.3576C51.4827 67.5212 51.8099 67.742 52.0881 68.0201C52.3662 68.2983 52.5829 68.6255 52.7384 69.0018C52.902 69.3699 52.9838 69.7666 52.9838 70.192C52.9838 70.5519 52.9265 70.8996 52.812 71.2349C52.7056 71.5621 52.5502 71.8607 52.3457 72.1307C52.1494 72.4006 51.9122 72.6378 51.6341 72.8423C51.3641 73.0387 51.0655 73.19 50.7383 73.2963L51.4377 74.781H53.1801ZM57.6039 74.7688H64.0335V76.6093H55.7634V70.965H63.2973V72.8178H57.6039V74.7688ZM55.8002 68.9404V67.0999H64.2912V68.9404H55.8002ZM66.8052 76.6338V70.4251H68.6457V76.6338H66.8052ZM76.7931 67.0999V76.6338H74.6704L66.8052 67.0999H69.1979L74.9526 74.0571V67.0999H76.7931ZM87.4306 67.0999V68.9404H84.2526V76.6338H82.3998V67.0999H87.4306ZM79.2218 68.9404V67.0999H81.6391V68.9404H79.2218ZM90.0371 76.5847C89.8816 76.5847 89.7303 76.5561 89.5831 76.4989C89.444 76.4334 89.3213 76.3475 89.2149 76.2412C89.1086 76.1348 89.0227 76.0121 88.9573 75.8731C88.9 75.7258 88.8714 75.5704 88.8714 75.4068C88.8714 75.2432 88.9 75.0919 88.9573 74.9528C89.0227 74.8056 89.1086 74.6788 89.2149 74.5724C89.3213 74.4579 89.444 74.372 89.5831 74.3148C89.7303 74.2493 89.8816 74.2166 90.0371 74.2166C90.3643 74.2166 90.6383 74.3352 90.8592 74.5724C91.0882 74.8015 91.2027 75.0796 91.2027 75.4068C91.2027 75.734 91.0882 76.0121 90.8592 76.2412C90.6383 76.4702 90.3643 76.5847 90.0371 76.5847ZM103.311 76.6338H100.661L97.0289 72.7933H95.9123V76.6338H94.0718V70.9405H96.7099L100.526 67.0999H103.127L98.5504 71.7135L103.311 76.6338ZM94.0718 70.1674V67.0999H95.9123V70.1674H94.0718ZM114.298 70.9405V76.6216H109.108C108.454 76.6216 107.836 76.4989 107.255 76.2535C106.674 75.9999 106.167 75.6604 105.734 75.235C105.308 74.8015 104.969 74.2943 104.715 73.7135C104.47 73.1327 104.347 72.5151 104.347 71.8607C104.347 71.2063 104.47 70.5928 104.715 70.0202C104.969 69.4394 105.308 68.9363 105.734 68.511C106.167 68.0774 106.674 67.7379 107.255 67.4925C107.836 67.2389 108.454 67.1122 109.108 67.1122H113.366V68.9527H109.108C108.707 68.9527 108.327 69.0304 107.967 69.1858C107.615 69.3331 107.308 69.5417 107.047 69.8116C106.785 70.0734 106.576 70.3801 106.421 70.7319C106.265 71.0836 106.188 71.4599 106.188 71.8607C106.188 72.2615 106.265 72.6419 106.421 73.0018C106.576 73.3536 106.785 73.6603 107.047 73.9221C107.308 74.1839 107.615 74.3925 107.967 74.5479C108.327 74.7033 108.707 74.781 109.108 74.781H112.445V72.7933H109.317V70.9405H114.298Z"
                fill="black"></path>
            <mask id="SvgjsMask1026" style="mask-type:luminance" maskUnits="userSpaceOnUse" x="5"
                y="67" width="110" height="10">
                <path d="M114.343 67.0688H5.43848V76.6668H114.343V67.0688Z" fill="white"></path>
                <path
                    d="M10.2511 68.9527C9.85024 68.9527 9.46987 69.0305 9.10994 69.1859C8.7582 69.3331 8.45144 69.5417 8.18968 69.8117C7.92791 70.0734 7.71932 70.3802 7.5639 70.7319C7.40848 71.0837 7.33076 71.46 7.33076 71.8608C7.33076 72.2616 7.40848 72.642 7.5639 73.0019C7.71932 73.3537 7.92791 73.6604 8.18968 73.9222C8.45144 74.1839 8.7582 74.3925 9.10994 74.548C9.46987 74.7034 9.85024 74.7811 10.2511 74.7811H14.5088V76.6216H10.2511C9.59666 76.6216 8.97906 76.4989 8.39827 76.2535C7.81748 75.9999 7.31031 75.6605 6.87677 75.2351C6.4514 74.8015 6.11193 74.2944 5.85834 73.7136C5.61294 73.1328 5.49023 72.5152 5.49023 71.8608C5.49023 71.2064 5.61294 70.5929 5.85834 70.0202C6.11193 69.4395 6.4514 68.9364 6.87677 68.511C7.31031 68.0775 7.81748 67.738 8.39827 67.4926C8.97906 67.239 9.59666 67.1122 10.2511 67.1122H14.5088V68.9527H10.2511ZM25.7156 76.6339H23.7401L21.0652 69.6276L18.3903 76.6339H16.4148L20.059 67.0999H22.0714L25.7156 76.6339ZM36.9938 74.7811V76.6339H34.0735L32.6011 73.4682H29.8035V76.6339H27.963V71.6154H33.5214C33.7177 71.6154 33.9017 71.5786 34.0735 71.5049C34.2535 71.4313 34.4089 71.3291 34.5398 71.1982C34.6707 71.0673 34.7729 70.916 34.8465 70.7442C34.9202 70.5724 34.957 70.3884 34.957 70.192C34.957 69.8485 34.8384 69.5581 34.6011 69.3208C34.3639 69.0836 34.0735 68.965 33.73 68.965H27.963V67.1122H33.73C34.1553 67.1122 34.5521 67.194 34.9202 67.3576C35.2965 67.5212 35.6237 67.7421 35.9018 68.0202C36.1799 68.2983 36.3967 68.6255 36.5521 69.0018C36.7157 69.3699 36.7975 69.7667 36.7975 70.192C36.7975 70.552 36.7402 70.8996 36.6257 71.235C36.5194 71.5622 36.364 71.8608 36.1595 72.1307C35.9631 72.4007 35.7259 72.6379 35.4478 72.8424C35.1778 73.0387 34.8793 73.1901 34.5521 73.2964L35.2515 74.7811H36.9938ZM53.1799 74.7811V76.6339H50.2596L48.7871 73.4682H45.9895V76.6339H44.149V71.6154H49.7074C49.9037 71.6154 50.0878 71.5786 50.2596 71.5049C50.4395 71.4313 50.5949 71.3291 50.7258 71.1982C50.8567 71.0673 50.9589 70.916 51.0326 70.7442C51.1062 70.5724 51.143 70.3884 51.143 70.192C51.143 69.8485 51.0244 69.5581 50.7872 69.3208C50.5499 69.0836 50.2595 68.965 49.916 68.965H44.149V67.1122H49.916C50.3413 67.1122 50.7381 67.194 51.1062 67.3576C51.4825 67.5212 51.8097 67.7421 52.0878 68.0202C52.3659 68.2983 52.5827 68.6255 52.7381 69.0018C52.9017 69.3699 52.9835 69.7667 52.9835 70.192C52.9835 70.552 52.9263 70.8996 52.8117 71.235C52.7054 71.5622 52.55 71.8608 52.3455 72.1307C52.1492 72.4007 51.9119 72.6379 51.6338 72.8424C51.3639 73.0387 51.0653 73.1901 50.7381 73.2964L51.4375 74.7811H53.1799ZM57.6037 74.7688H64.0333V76.6093H55.7631V70.9651H63.297V72.8179H57.6037V74.7688ZM55.8 68.9405V67.0999H64.2909V68.9405H55.8ZM66.805 76.6339V70.4252H68.6455V76.6339H66.805ZM76.7929 67.0999V76.6339H74.6702L66.805 67.0999H69.1977L74.9524 74.0571V67.0999H76.7929ZM87.4303 67.0999V68.9405H84.2524V76.6339H82.3996V67.0999H87.4303ZM79.2216 68.9405V67.0999H81.6388V68.9405H79.2216ZM90.0368 76.5848C89.8814 76.5848 89.7301 76.5562 89.5828 76.4989C89.4437 76.4335 89.321 76.3476 89.2147 76.2412C89.1084 76.1349 89.0225 76.0122 88.957 75.8731C88.8998 75.7259 88.8711 75.5705 88.8711 75.4069C88.8711 75.2433 88.8998 75.0919 88.957 74.9529C89.0225 74.8056 89.1084 74.6788 89.2147 74.5725C89.321 74.458 89.4437 74.3721 89.5828 74.3148C89.7301 74.2494 89.8814 74.2167 90.0368 74.2167C90.364 74.2167 90.638 74.3353 90.8589 74.5725C91.088 74.8015 91.2025 75.0797 91.2025 75.4069C91.2025 75.7341 91.088 76.0122 90.8589 76.2412C90.638 76.4703 90.364 76.5848 90.0368 76.5848ZM103.311 76.6339H100.661L97.0286 72.7933H95.9121V76.6339H94.0715V70.9405H96.7096L100.526 67.0999H103.127L98.5501 71.7135L103.311 76.6339ZM94.0715 70.1675V67.0999H95.9121V70.1675H94.0715ZM114.298 70.9405V76.6216H109.108C108.453 76.6216 107.836 76.4989 107.255 76.2535C106.674 75.9999 106.167 75.6605 105.733 75.2351C105.308 74.8015 104.969 74.2944 104.715 73.7136C104.47 73.1328 104.347 72.5152 104.347 71.8608C104.347 71.2064 104.47 70.5929 104.715 70.0202C104.969 69.4395 105.308 68.9364 105.733 68.511C106.167 68.0775 106.674 67.738 107.255 67.4926C107.836 67.239 108.453 67.1122 109.108 67.1122H113.365V68.9527H109.108C108.707 68.9527 108.326 69.0305 107.967 69.1859C107.615 69.3331 107.308 69.5417 107.046 69.8117C106.785 70.0734 106.576 70.3802 106.421 70.7319C106.265 71.0837 106.187 71.46 106.187 71.8608C106.187 72.2616 106.265 72.642 106.421 73.0019C106.576 73.3537 106.785 73.6604 107.046 73.9222C107.308 74.1839 107.615 74.3925 107.967 74.548C108.326 74.7034 108.707 74.7811 109.108 74.7811H112.445V72.7933H109.316V70.9405H114.298Z"
                    fill="black"></path>
            </mask>
            <g mask="url(#mask2_4582_193)">
                <path
                    d="M9.10987 69.1859L9.12039 69.2112L9.12067 69.2109L9.10987 69.1859ZM8.1896 69.8116L8.20888 69.831H8.20904L8.20918 69.8307L8.1896 69.8116ZM7.56382 73.0019L7.53879 73.0128L7.53887 73.0131L7.56382 73.0019ZM9.10987 74.5479L9.09885 74.573H9.09907L9.10987 74.5479ZM14.5088 74.7811H14.536V74.7538H14.5088V74.7811ZM14.5088 76.6216V76.6489H14.536V76.6216H14.5088ZM8.3982 76.2535L8.38729 76.2786L8.38759 76.2789L8.3982 76.2535ZM6.87669 75.2351L6.85722 75.2542L6.85741 75.2544L6.8576 75.2547L6.87669 75.2351ZM5.85826 73.7136L5.83315 73.7242L5.83329 73.7245L5.85826 73.7136ZM5.85826 70.0202L5.83329 70.0093L5.83321 70.0096L5.85826 70.0202ZM8.3982 67.4926L8.4088 67.5179L8.4091 67.5177L8.3982 67.4926ZM14.5088 67.1122H14.536V67.0849H14.5088V67.1122ZM14.5088 68.9527V68.98H14.536V68.9527H14.5088ZM10.251 68.9255C9.84654 68.9255 9.46249 69.004 9.09907 69.161L9.12067 69.2109C9.4771 69.0572 9.8538 68.98 10.251 68.98V68.9255ZM9.09934 69.1608C8.74424 69.3094 8.43441 69.5202 8.17002 69.7928L8.20918 69.8307C8.46833 69.5635 8.772 69.3571 9.12039 69.2112L9.09934 69.1608ZM8.17032 69.7926C7.90608 70.0568 7.6956 70.3663 7.53887 70.721L7.58877 70.7431C7.74288 70.3943 7.9496 70.0903 8.20888 69.831L8.17032 69.7926ZM7.53887 70.721C7.38187 71.0763 7.30342 71.4564 7.30342 71.8608H7.35796C7.35796 71.4638 7.43493 71.0913 7.58877 70.7431L7.53887 70.721ZM7.30342 71.8608C7.30342 72.2654 7.38187 72.6493 7.53879 73.0128L7.58885 72.9913C7.43493 72.6349 7.35796 72.258 7.35796 71.8608H7.30342ZM7.53887 73.0131C7.6956 73.3678 7.90608 73.6773 8.17032 73.9415L8.20888 73.9031C7.9496 73.6438 7.74288 73.3397 7.58877 72.991L7.53887 73.0131ZM8.17032 73.9415C8.43457 74.2057 8.74413 74.4162 9.09885 74.573L9.12088 74.5231C8.77211 74.3691 8.46816 74.1624 8.20888 73.9031L8.17032 73.9415ZM9.09907 74.573C9.46249 74.7301 9.84654 74.8083 10.251 74.8083V74.7538C9.8538 74.7538 9.4771 74.6769 9.12067 74.5231L9.09907 74.573ZM10.251 74.8083H14.5088V74.7538H10.251V74.8083ZM14.4815 74.7811V76.6216H14.536V74.7811H14.4815ZM14.5088 76.5943H10.251V76.6489H14.5088V76.5943ZM10.251 76.5943C9.6001 76.5943 8.9861 76.4724 8.4088 76.2284L8.38759 76.2789C8.97187 76.5256 9.59307 76.6489 10.251 76.6489V76.5943ZM8.4091 76.2287C7.83123 75.9762 7.32687 75.6386 6.89578 75.2157L6.8576 75.2547C7.2936 75.6825 7.80358 76.0236 8.38729 76.2786L8.4091 76.2287ZM6.89616 75.216C6.47322 74.7849 6.13557 74.2807 5.88324 73.7027L5.83329 73.7245C6.08813 74.3083 6.42943 74.8182 6.85722 75.2542L6.89616 75.216ZM5.88338 73.7029C5.63944 73.1257 5.51742 72.5119 5.51742 71.8608H5.46289C5.46289 72.5187 5.58627 73.1401 5.83315 73.7242L5.88338 73.7029ZM5.51742 71.8608C5.51742 71.2099 5.63944 70.6002 5.88332 70.0311L5.83321 70.0096C5.58627 70.5858 5.46289 71.2031 5.46289 71.8608H5.51742ZM5.88324 70.0311C6.13554 69.4534 6.47314 68.9533 6.89597 68.5304L6.85741 68.4919C6.42951 68.9197 6.08815 69.4258 5.83329 70.0093L5.88324 70.0311ZM6.89597 68.5304C7.32695 68.0993 7.83118 67.762 8.4088 67.5179L8.38759 67.4675C7.80364 67.7143 7.29352 68.0556 6.85741 68.4919L6.89597 68.5304ZM8.4091 67.5177C8.98635 67.2657 9.60021 67.1395 10.251 67.1395V67.0849C9.59296 67.0849 8.97162 67.2125 8.38729 67.4678L8.4091 67.5177ZM10.251 67.1395H14.5088V67.0849H10.251V67.1395ZM14.4815 67.1122V68.9527H14.536V67.1122H14.4815ZM14.5088 68.9255H10.251V68.98H14.5088V68.9255ZM25.7155 76.6339V76.6611H25.7551L25.7412 76.6243L25.7155 76.6339ZM23.74 76.6339L23.7147 76.6437L23.7212 76.6611H23.74V76.6339ZM21.0651 69.6276L21.0908 69.618L21.0651 69.5512L21.0398 69.618L21.0651 69.6276ZM18.3903 76.6339V76.6611H18.409L18.4157 76.6437L18.3903 76.6339ZM16.4148 76.6339L16.3893 76.6243L16.3751 76.6611H16.4148V76.6339ZM20.059 67.0999V67.0727H20.0402L20.0336 67.0904L20.059 67.0999ZM22.0713 67.0999L22.0969 67.0904L22.0901 67.0727H22.0713V67.0999ZM25.7155 76.6066H23.74V76.6611H25.7155V76.6066ZM23.7657 76.6243L21.0908 69.618L21.0398 69.6374L23.7147 76.6437L23.7657 76.6243ZM21.0398 69.618L18.3648 76.6243L18.4157 76.6437L21.0908 69.6374L21.0398 69.618ZM18.3903 76.6066H16.4148V76.6611H18.3903V76.6066ZM16.4402 76.6437L20.0846 67.1097L20.0336 67.0904L16.3893 76.6243L16.4402 76.6437ZM20.059 67.1272H22.0713V67.0727H20.059V67.1272ZM22.0459 67.1097L25.6902 76.6437L25.7412 76.6243L22.0969 67.0904L22.0459 67.1097ZM36.9938 74.7811H37.021V74.7538H36.9938V74.7811ZM36.9938 76.6339V76.6611H37.021V76.6339H36.9938ZM34.0735 76.6339L34.0486 76.6456L34.056 76.6611H34.0735V76.6339ZM32.601 73.4682L32.6258 73.4567L32.6185 73.4409H32.601V73.4682ZM29.8034 73.4682V73.4409H29.7762V73.4682H29.8034ZM29.8034 76.6339V76.6611H29.8307V76.6339H29.8034ZM27.9629 76.6339H27.9356V76.6611H27.9629V76.6339ZM27.9629 71.6154V71.5881H27.9356V71.6154H27.9629ZM34.0735 71.5049L34.0631 71.4798H34.0628L34.0735 71.5049ZM27.9629 68.965H27.9356V68.9923H27.9629V68.965ZM27.9629 67.1122V67.0849H27.9356V67.1122H27.9629ZM36.552 69.0018L36.5269 69.0124V69.0127L36.5272 69.013L36.552 69.0018ZM36.6257 71.235L36.6 71.2263L36.5997 71.2265V71.2268L36.6257 71.235ZM36.1594 72.1307L36.1376 72.1143V72.1146L36.1373 72.1149L36.1594 72.1307ZM34.552 73.2964L34.5435 73.2705L34.5141 73.28L34.5274 73.3081L34.552 73.2964ZM35.2514 74.7811L35.2269 74.7928L35.2342 74.8083H35.2514V74.7811ZM36.9665 74.7811V76.6339H37.021V74.7811H36.9665ZM36.9938 76.6066H34.0735V76.6611H36.9938V76.6066ZM34.0983 76.6224L32.6258 73.4567L32.5762 73.4799L34.0486 76.6456L34.0983 76.6224ZM32.601 73.4409H29.8034V73.4954H32.601V73.4409ZM29.7762 73.4682V76.6339H29.8307V73.4682H29.7762ZM29.8034 76.6066H27.9629V76.6611H29.8034V76.6066ZM27.9902 76.6339V71.6154H27.9356V76.6339H27.9902ZM27.9629 71.6426H33.5213V71.5881H27.9629V71.6426ZM33.5213 71.6426C33.7212 71.6426 33.9088 71.6053 34.0844 71.53L34.0628 71.4798C33.8946 71.5521 33.7141 71.5881 33.5213 71.5881V71.6426ZM34.0838 71.5303C34.267 71.4553 34.4255 71.3511 34.5591 71.2175L34.5204 71.1791C34.3922 71.3072 34.2401 71.4076 34.0631 71.4798L34.0838 71.5303ZM34.5591 71.2175C34.6924 71.0842 34.7966 70.9299 34.8716 70.7551L34.8214 70.7335C34.7491 70.902 34.6488 71.0507 34.5204 71.1791L34.5591 71.2175ZM34.8716 70.7551C34.9468 70.5798 34.9842 70.3919 34.9842 70.192H34.9296C34.9296 70.3851 34.8936 70.5653 34.8214 70.7335L34.8716 70.7551ZM34.9842 70.192C34.9842 69.8416 34.8628 69.5442 34.6204 69.3017L34.5817 69.3402C34.8138 69.5722 34.9296 69.8555 34.9296 70.192H34.9842ZM34.6204 69.3017C34.378 69.0591 34.0805 68.9377 33.7299 68.9377V68.9923C34.0664 68.9923 34.3499 69.1081 34.5817 69.3402L34.6204 69.3017ZM33.7299 68.9377H27.9629V68.9923H33.7299V68.9377ZM27.9902 68.965V67.1122H27.9356V68.965H27.9902ZM27.9629 67.1395H33.7299V67.0849H27.9629V67.1395ZM33.7299 67.1395C34.1517 67.1395 34.5446 67.2207 34.9092 67.3827L34.9313 67.3328C34.5594 67.1675 34.1588 67.0849 33.7299 67.0849V67.1395ZM34.9092 67.3827C35.2825 67.5449 35.607 67.7639 35.8824 68.0396L35.9211 68.0011C35.6405 67.7203 35.3103 67.4975 34.931 67.3328L34.9092 67.3827ZM35.8824 68.0396C36.158 68.315 36.3729 68.6392 36.5269 69.0124L36.5774 68.9914C36.4206 68.6122 36.2017 68.2817 35.9211 68.0011L35.8824 68.0396ZM36.5272 69.013C36.6892 69.3775 36.7702 69.7705 36.7702 70.192H36.8247C36.8247 69.7631 36.7424 69.3626 36.5771 68.9909L36.5272 69.013ZM36.7702 70.192C36.7702 70.5492 36.7135 70.8939 36.6 71.2263L36.6516 71.244C36.7669 70.9056 36.8247 70.5549 36.8247 70.192H36.7702ZM36.5997 71.2268C36.4942 71.551 36.3404 71.8469 36.1376 72.1143L36.1812 72.1473C36.3876 71.8749 36.5444 71.5736 36.6516 71.2434L36.5997 71.2268ZM36.1373 72.1149C35.9429 72.3824 35.7076 72.6177 35.4316 72.8206L35.4638 72.8645C35.7441 72.6583 35.9835 72.4192 36.1815 72.1468L36.1373 72.1149ZM35.4316 72.8206C35.1641 73.015 34.8683 73.1649 34.5435 73.2705L34.5604 73.3226C34.8904 73.2151 35.1914 73.0627 35.4638 72.8645L35.4316 72.8206ZM34.5274 73.3081L35.2269 74.7928L35.2762 74.7696L34.5768 73.2849L34.5274 73.3081ZM35.2514 74.8083H36.9938V74.7538H35.2514V74.8083ZM53.1798 74.7811H53.2071V74.7538H53.1798V74.7811ZM53.1798 76.6339V76.6611H53.2071V76.6339H53.1798ZM50.2595 76.6339L50.2349 76.6456L50.2423 76.6611H50.2595V76.6339ZM48.7871 73.4682L48.8119 73.4567L48.8045 73.4409H48.7871V73.4682ZM45.9895 73.4682V73.4409H45.9622V73.4682H45.9895ZM45.9895 76.6339V76.6611H46.0167V76.6339H45.9895ZM44.1489 76.6339H44.1217V76.6611H44.1489V76.6339ZM44.1489 71.6154V71.5881H44.1217V71.6154H44.1489ZM50.2595 71.5049L50.2494 71.4798H50.2491H50.2488L50.2595 71.5049ZM44.1489 68.965H44.1217V68.9923H44.1489V68.965ZM44.1489 67.1122V67.0849H44.1217V67.1122H44.1489ZM51.1061 67.3576L51.0952 67.3827H51.0955L51.1061 67.3576ZM52.7381 69.0018L52.713 69.0124L52.7132 69.0127V69.013L52.7381 69.0018ZM52.8117 71.235L52.7861 71.2263V71.2265L52.7858 71.2268L52.8117 71.235ZM52.3454 72.1307L52.3239 72.1143L52.3236 72.1146V72.1149L52.3454 72.1307ZM51.6337 72.8424L51.6498 72.8645H51.6501L51.6337 72.8424ZM50.738 73.2964L50.7298 73.2705L50.7004 73.28L50.7135 73.3081L50.738 73.2964ZM51.4374 74.7811L51.4129 74.7928L51.4202 74.8083H51.4374V74.7811ZM53.1525 74.7811V76.6339H53.2071V74.7811H53.1525ZM53.1798 76.6066H50.2595V76.6611H53.1798V76.6066ZM50.2843 76.6224L48.8119 73.4567L48.7625 73.4799L50.2349 76.6456L50.2843 76.6224ZM48.7871 73.4409H45.9895V73.4954H48.7871V73.4409ZM45.9622 73.4682V76.6339H46.0167V73.4682H45.9622ZM45.9895 76.6066H44.1489V76.6611H45.9895V76.6066ZM44.1762 76.6339V71.6154H44.1217V76.6339H44.1762ZM44.1489 71.6426H49.7073V71.5881H44.1489V71.6426ZM49.7073 71.6426C49.9072 71.6426 50.0951 71.6053 50.2704 71.53L50.2488 71.4798C50.0806 71.5521 49.9004 71.5881 49.7073 71.5881V71.6426ZM50.2698 71.5303C50.4531 71.4553 50.6115 71.3511 50.7451 71.2175L50.7067 71.1791C50.5785 71.3072 50.4261 71.4076 50.2494 71.4798L50.2698 71.5303ZM50.7451 71.2175C50.8784 71.0842 50.9826 70.9299 51.0576 70.7551L51.0077 70.7335C50.9354 70.902 50.8351 71.0507 50.7067 71.1791L50.7451 71.2175ZM51.0576 70.7551C51.1328 70.5798 51.1702 70.3919 51.1702 70.192H51.1157C51.1157 70.3851 51.0797 70.5653 51.0077 70.7335L51.0576 70.7551ZM51.1702 70.192C51.1702 69.8416 51.0489 69.5442 50.8065 69.3017L50.768 69.3402C51.0001 69.5722 51.1157 69.8555 51.1157 70.192H51.1702ZM50.8065 69.3017C50.5641 69.0591 50.2666 68.9377 49.9159 68.9377V68.9923C50.2527 68.9923 50.536 69.1081 50.768 69.3402L50.8065 69.3017ZM49.9159 68.9377H44.1489V68.9923H49.9159V68.9377ZM44.1762 68.965V67.1122H44.1217V68.965H44.1762ZM44.1489 67.1395H49.9159V67.0849H44.1489V67.1395ZM49.9159 67.1395C50.3377 67.1395 50.7307 67.2207 51.0952 67.3827L51.1173 67.3328C50.7457 67.1675 50.3451 67.0849 49.9159 67.0849V67.1395ZM51.0955 67.3827C51.4688 67.5449 51.793 67.7639 52.0687 68.0396L52.1071 68.0011C51.8265 67.7203 51.4963 67.4975 51.117 67.3328L51.0955 67.3827ZM52.0687 68.0396C52.344 68.315 52.5589 68.6392 52.713 69.0124L52.7634 68.9914C52.6066 68.6122 52.388 68.2817 52.1071 68.0011L52.0687 68.0396ZM52.7132 69.013C52.8752 69.3775 52.9562 69.7705 52.9562 70.192H53.0107C53.0107 69.7631 52.9284 69.3626 52.7632 68.9909L52.7132 69.013ZM52.9562 70.192C52.9562 70.5492 52.8995 70.8939 52.7861 71.2263L52.8376 71.244C52.9532 70.9056 53.0107 70.5549 53.0107 70.192H52.9562ZM52.7858 71.2268C52.6805 71.551 52.5265 71.8469 52.3239 72.1143L52.3672 72.1473C52.5736 71.8749 52.7304 71.5736 52.8379 71.2434L52.7858 71.2268ZM52.3236 72.1149C52.1289 72.3824 51.8936 72.6177 51.6177 72.8206L51.6501 72.8645C51.9304 72.6583 52.1695 72.4192 52.3675 72.1468L52.3236 72.1149ZM51.6179 72.8206C51.3502 73.015 51.0543 73.1649 50.7298 73.2705L50.7465 73.3226C51.0764 73.2151 51.3777 73.0627 51.6498 72.8645L51.6179 72.8206ZM50.7135 73.3081L51.4129 74.7928L51.4622 74.7696L50.7628 73.2849L50.7135 73.3081ZM51.4374 74.8083H53.1798V74.7538H51.4374V74.8083ZM57.6036 74.7688H57.5763V74.7961H57.6036V74.7688ZM64.0332 74.7688H64.0605V74.7415H64.0332V74.7688ZM64.0332 76.6093V76.6366H64.0605V76.6093H64.0332ZM55.7631 76.6093H55.7358V76.6366H55.7631V76.6093ZM55.7631 70.965V70.9378H55.7358V70.965H55.7631ZM63.297 70.965H63.3242V70.9378H63.297V70.965ZM63.297 72.8178V72.8451H63.3242V72.8178H63.297ZM57.6036 72.8178V72.7906H57.5763V72.8178H57.6036ZM55.7999 68.9405H55.7726V68.9677H55.7999V68.9405ZM55.7999 67.0999V67.0727H55.7726V67.0999H55.7999ZM64.2909 67.0999H64.3181V67.0727H64.2909V67.0999ZM64.2909 68.9405V68.9677H64.3181V68.9405H64.2909ZM57.6036 74.7961H64.0332V74.7415H57.6036V74.7961ZM64.0059 74.7688V76.6093H64.0605V74.7688H64.0059ZM64.0332 76.5821H55.7631V76.6366H64.0332V76.5821ZM55.7903 76.6093V70.965H55.7358V76.6093H55.7903ZM55.7631 70.9923H63.297V70.9378H55.7631V70.9923ZM63.2697 70.965V72.8178H63.3242V70.965H63.2697ZM63.297 72.7906H57.6036V72.8451H63.297V72.7906ZM57.5763 72.8178V74.7688H57.6309V72.8178H57.5763ZM55.8272 68.9405V67.0999H55.7726V68.9405H55.8272ZM55.7999 67.1272H64.2909V67.0727H55.7999V67.1272ZM64.2636 67.0999V68.9405H64.3181V67.0999H64.2636ZM64.2909 68.9132H55.7999V68.9677H64.2909V68.9132ZM66.8049 76.6339H66.7776V76.6611H66.8049V76.6339ZM66.8049 70.4252V70.3979H66.7776V70.4252H66.8049ZM68.6454 70.4252H68.6727V70.3979H68.6454V70.4252ZM68.6454 76.6339V76.6611H68.6727V76.6339H68.6454ZM76.7928 67.0999H76.8201V67.0727H76.7928V67.0999ZM76.7928 76.6339V76.6611H76.8201V76.6339H76.7928ZM74.6701 76.6339L74.6491 76.6513L74.6573 76.6611H74.6701V76.6339ZM66.8049 67.0999V67.0727H66.7471L66.7839 67.1174L66.8049 67.0999ZM69.1976 67.0999L69.2186 67.0827L69.2104 67.0727H69.1976V67.0999ZM74.9523 74.0571L74.9313 74.0746L74.9796 74.1329V74.0571H74.9523ZM74.9523 67.0999V67.0727H74.925V67.0999H74.9523ZM66.8322 76.6339V70.4252H66.7776V76.6339H66.8322ZM66.8049 70.4524H68.6454V70.3979H66.8049V70.4524ZM68.6182 70.4252V76.6339H68.6727V70.4252H68.6182ZM68.6454 76.6066H66.8049V76.6611H68.6454V76.6066ZM76.7656 67.0999V76.6339H76.8201V67.0999H76.7656ZM76.7928 76.6066H74.6701V76.6611H76.7928V76.6066ZM74.6911 76.6167L66.8259 67.0827L66.7839 67.1174L74.6491 76.6513L74.6911 76.6167ZM66.8049 67.1272H69.1976V67.0727H66.8049V67.1272ZM69.1766 67.1174L74.9313 74.0746L74.9733 74.0399L69.2186 67.0827L69.1766 67.1174ZM74.9796 74.0571V67.0999H74.925V74.0571H74.9796ZM74.9523 67.1272H76.7928V67.0727H74.9523V67.1272ZM87.4303 67.0999H87.4576V67.0727H87.4303V67.0999ZM87.4303 68.9405V68.9677H87.4576V68.9405H87.4303ZM84.2523 68.9405V68.9132H84.225V68.9405H84.2523ZM84.2523 76.6339V76.6611H84.2796V76.6339H84.2523ZM82.3995 76.6339H82.3722V76.6611H82.3995V76.6339ZM82.3995 67.0999V67.0727H82.3722V67.0999H82.3995ZM79.2215 68.9405H79.1943V68.9677H79.2215V68.9405ZM79.2215 67.0999V67.0727H79.1943V67.0999H79.2215ZM81.6388 67.0999H81.666V67.0727H81.6388V67.0999ZM81.6388 68.9405V68.9677H81.666V68.9405H81.6388ZM87.403 67.0999V68.9405H87.4576V67.0999H87.403ZM87.4303 68.9132H84.2523V68.9677H87.4303V68.9132ZM84.225 68.9405V76.6339H84.2796V68.9405H84.225ZM84.2523 76.6066H82.3995V76.6611H84.2523V76.6066ZM82.4268 76.6339V67.0999H82.3722V76.6339H82.4268ZM82.3995 67.1272H87.4303V67.0727H82.3995V67.1272ZM79.2488 68.9405V67.0999H79.1943V68.9405H79.2488ZM79.2215 67.1272H81.6388V67.0727H79.2215V67.1272ZM81.6115 67.0999V68.9405H81.666V67.0999H81.6115ZM81.6388 68.9132H79.2215V68.9677H81.6388V68.9132ZM89.5827 76.4989L89.571 76.5237L89.5718 76.524L89.5729 76.5245L89.5827 76.4989ZM88.957 75.8731L88.9316 75.8832L88.9319 75.884L88.9322 75.8848L88.957 75.8731ZM88.957 74.9529L88.9322 74.9419L88.9319 74.9422L88.9316 74.9425L88.957 74.9529ZM89.2146 74.5725L89.234 74.5918L89.2343 74.5916L89.2345 74.591L89.2146 74.5725ZM89.5827 74.3148L89.5931 74.3402L89.5934 74.3399H89.5939L89.5827 74.3148ZM90.8589 74.5725L90.8389 74.5913L90.8392 74.5916L90.8395 74.5918L90.8589 74.5725ZM90.8589 76.2412L90.8395 76.2221L90.8392 76.2224L90.8589 76.2412ZM90.0367 76.5575C89.8849 76.5575 89.7368 76.5297 89.5926 76.4735L89.5729 76.5245C89.7232 76.5829 89.8778 76.6121 90.0367 76.6121V76.5575ZM89.5945 76.4744C89.4581 76.4103 89.3379 76.326 89.234 76.2221L89.1953 76.2606C89.3041 76.3691 89.4292 76.4569 89.571 76.5237L89.5945 76.4744ZM89.234 76.2221C89.1298 76.118 89.0459 75.998 88.9815 75.8617L88.9322 75.8848C88.999 76.0266 89.0868 76.1521 89.1953 76.2606L89.234 76.2221ZM88.9823 75.8633C88.9264 75.7193 88.8983 75.5672 88.8983 75.4069H88.8438C88.8438 75.5737 88.873 75.7327 88.9316 75.8832L88.9823 75.8633ZM88.8983 75.4069C88.8983 75.2465 88.9264 75.0987 88.9821 74.9632L88.9316 74.9425C88.873 75.0851 88.8438 75.2403 88.8438 75.4069H88.8983ZM88.9818 74.964C89.0461 74.8195 89.1301 74.6957 89.234 74.5918L89.1953 74.5534C89.0865 74.6622 88.9987 74.7917 88.9322 74.9419L88.9818 74.964ZM89.2345 74.591C89.3384 74.4795 89.4579 74.3958 89.5931 74.3402L89.5724 74.2897C89.4295 74.3486 89.3035 74.4367 89.1947 74.5539L89.2345 74.591ZM89.5939 74.3399C89.7376 74.2758 89.8851 74.2439 90.0367 74.2439V74.1894C89.8772 74.1894 89.7224 74.2232 89.5716 74.29L89.5939 74.3399ZM90.0367 74.2439C90.3563 74.2439 90.6233 74.3595 90.8389 74.5913L90.8788 74.5539C90.6527 74.3113 90.3713 74.1894 90.0367 74.1894V74.2439ZM90.8395 74.5918C91.0634 74.8157 91.1752 75.087 91.1752 75.4069H91.2297C91.2297 75.0726 91.1124 74.7876 90.8782 74.5534L90.8395 74.5918ZM91.1752 75.4069C91.1752 75.727 91.0634 75.9983 90.8395 76.2221L90.8782 76.2606C91.1124 76.0264 91.2297 75.7414 91.2297 75.4069H91.1752ZM90.8392 76.2224C90.6235 76.446 90.3569 76.5575 90.0367 76.5575V76.6121C90.371 76.6121 90.6522 76.4948 90.8785 76.2603L90.8392 76.2224ZM103.311 76.6339V76.6611H103.375L103.331 76.6151L103.311 76.6339ZM100.661 76.6339L100.641 76.6527L100.649 76.6611H100.661V76.6339ZM97.0286 72.7933L97.0485 72.7748L97.0403 72.766H97.0286V72.7933ZM95.912 72.7933V72.766H95.8847V72.7933H95.912ZM95.912 76.6339V76.6611H95.9393V76.6339H95.912ZM94.0715 76.6339H94.0442V76.6611H94.0715V76.6339ZM94.0715 70.9405V70.9132H94.0442V70.9405H94.0715ZM96.7096 70.9405V70.9678H96.721L96.7289 70.9599L96.7096 70.9405ZM100.526 67.0999V67.0727H100.514L100.506 67.0808L100.526 67.0999ZM103.127 67.0999L103.146 67.1193L103.192 67.0727H103.127V67.0999ZM98.5501 71.7135L98.5307 71.6944L98.5119 71.7135L98.5305 71.7326L98.5501 71.7135ZM94.0715 70.1675H94.0442V70.1947H94.0715V70.1675ZM94.0715 67.0999V67.0727H94.0442V67.0999H94.0715ZM95.912 67.0999H95.9393V67.0727H95.912V67.0999ZM95.912 70.1675V70.1947H95.9393V70.1675H95.912ZM103.311 76.6066H100.661V76.6611H103.311V76.6066ZM100.68 76.6153L97.0485 72.7748L97.0089 72.8121L100.641 76.6527L100.68 76.6153ZM97.0286 72.766H95.912V72.8206H97.0286V72.766ZM95.8847 72.7933V76.6339H95.9393V72.7933H95.8847ZM95.912 76.6066H94.0715V76.6611H95.912V76.6066ZM94.0987 76.6339V70.9405H94.0442V76.6339H94.0987ZM94.0715 70.9678H96.7096V70.9132H94.0715V70.9678ZM96.7289 70.9599L100.545 67.1193L100.506 67.0808L96.6902 70.9214L96.7289 70.9599ZM100.526 67.1272H103.127V67.0727H100.526V67.1272ZM103.108 67.0808L98.5307 71.6944L98.5694 71.7329L103.146 67.1193L103.108 67.0808ZM98.5305 71.7326L103.291 76.653L103.331 76.6151L98.5697 71.6947L98.5305 71.7326ZM94.0987 70.1675V67.0999H94.0442V70.1675H94.0987ZM94.0715 67.1272H95.912V67.0727H94.0715V67.1272ZM95.8847 67.0999V70.1675H95.9393V67.0999H95.8847ZM95.912 70.1402H94.0715V70.1947H95.912V70.1402ZM114.298 70.9405H114.325V70.9132H114.298V70.9405ZM114.298 76.6216V76.6489H114.325V76.6216H114.298ZM107.255 76.2535L107.244 76.2786L107.244 76.2789L107.255 76.2535ZM105.733 75.2351L105.714 75.2542L105.714 75.2544L105.714 75.2547L105.733 75.2351ZM104.715 73.7136L104.69 73.7242V73.7245L104.715 73.7136ZM104.715 70.0202L104.69 70.0093V70.0096L104.715 70.0202ZM107.255 67.4926L107.265 67.5179L107.266 67.5177L107.255 67.4926ZM113.365 67.1122H113.393V67.0849H113.365V67.1122ZM113.365 68.9527V68.98H113.393V68.9527H113.365ZM107.967 69.1859L107.977 69.2112L107.977 69.2109L107.967 69.1859ZM107.046 69.8116L107.066 69.831L107.066 69.8307L107.046 69.8116ZM106.42 73.0019L106.395 73.0128V73.0131L106.42 73.0019ZM107.967 74.5479L107.955 74.573H107.956L107.967 74.5479ZM112.445 74.7811V74.8083H112.472V74.7811H112.445ZM112.445 72.7933H112.472V72.766H112.445V72.7933ZM109.316 72.7933H109.289V72.8206H109.316V72.7933ZM109.316 70.9405V70.9132H109.289V70.9405H109.316ZM114.271 70.9405V76.6216H114.325V70.9405H114.271ZM114.298 76.5943H109.108V76.6489H114.298V76.5943ZM109.108 76.5943C108.457 76.5943 107.843 76.4724 107.265 76.2284L107.244 76.2789C107.829 76.5256 108.45 76.6489 109.108 76.6489V76.5943ZM107.266 76.2287C106.688 75.9762 106.184 75.6386 105.752 75.2157L105.714 75.2547C106.15 75.6825 106.66 76.0236 107.244 76.2786L107.266 76.2287ZM105.753 75.216C105.33 74.7849 104.992 74.2807 104.74 73.7027L104.69 73.7245C104.945 74.3083 105.286 74.8182 105.714 75.2542L105.753 75.216ZM104.74 73.7029C104.496 73.1257 104.374 72.5119 104.374 71.8608H104.32C104.32 72.5187 104.443 73.1401 104.69 73.7242L104.74 73.7029ZM104.374 71.8608C104.374 71.2099 104.496 70.6002 104.74 70.0311L104.69 70.0096C104.443 70.5858 104.32 71.2031 104.32 71.8608H104.374ZM104.74 70.0311C104.992 69.4534 105.33 68.9533 105.753 68.5304L105.714 68.4919C105.286 68.9197 104.945 69.4258 104.69 70.0093L104.74 70.0311ZM105.753 68.5304C106.184 68.0993 106.688 67.762 107.265 67.5179L107.244 67.4675C106.66 67.7143 106.15 68.0556 105.714 68.4919L105.753 68.5304ZM107.266 67.5177C107.843 67.2657 108.457 67.1395 109.108 67.1395V67.0849C108.45 67.0849 107.828 67.2125 107.244 67.4678L107.266 67.5177ZM109.108 67.1395H113.365V67.0849H109.108V67.1395ZM113.338 67.1122V68.9527H113.393V67.1122H113.338ZM113.365 68.9255H109.108V68.98H113.365V68.9255ZM109.108 68.9255C108.703 68.9255 108.319 69.004 107.956 69.161L107.977 69.2109C108.334 69.0572 108.71 68.98 109.108 68.98V68.9255ZM107.956 69.1608C107.601 69.3094 107.291 69.5202 107.027 69.7928L107.066 69.8307C107.325 69.5635 107.629 69.3571 107.977 69.2112L107.956 69.1608ZM107.027 69.7926C106.763 70.0568 106.552 70.3663 106.395 70.721L106.445 70.7431C106.6 70.3943 106.806 70.0903 107.066 69.831L107.027 69.7926ZM106.395 70.721C106.238 71.0763 106.16 71.4564 106.16 71.8608H106.215C106.215 71.4638 106.291 71.0913 106.445 70.7431L106.395 70.721ZM106.16 71.8608C106.16 72.2654 106.238 72.6493 106.395 73.0128L106.446 72.9913C106.291 72.6349 106.215 72.258 106.215 71.8608H106.16ZM106.395 73.0131C106.552 73.3678 106.763 73.6773 107.027 73.9415L107.066 73.9031C106.806 73.6438 106.6 73.3397 106.445 72.991L106.395 73.0131ZM107.027 73.9415C107.291 74.2057 107.601 74.4162 107.955 74.573L107.977 74.5231C107.629 74.3691 107.325 74.1624 107.066 73.9031L107.027 73.9415ZM107.956 74.573C108.319 74.7301 108.703 74.8083 109.108 74.8083V74.7538C108.71 74.7538 108.334 74.6769 107.977 74.5231L107.956 74.573ZM109.108 74.8083H112.445V74.7538H109.108V74.8083ZM112.472 74.7811V72.7933H112.418V74.7811H112.472ZM112.445 72.766H109.316V72.8206H112.445V72.766ZM109.344 72.7933V70.9405H109.289V72.7933H109.344ZM109.316 70.9678H114.298V70.9132H109.316V70.9678Z"
                    fill="black"></path>
            </g>
        </g>
    </svg>
    <style>@media (prefers-color-scheme: light) { :root { filter: none; } }
        @media (prefers-color-scheme: dark) { :root { filter: none; } }
    </style>
</svg>